<?xml version="1.0" encoding="UTF-8" standalone="no"?>
<!-- Created with Inkscape (http://www.inkscape.org/) -->

<svg
   xmlns:dc="http://purl.org/dc/elements/1.1/"
   xmlns:cc="http://creativecommons.org/ns#"
   xmlns:rdf="http://www.w3.org/1999/02/22-rdf-syntax-ns#"
   xmlns:svg="http://www.w3.org/2000/svg"
   xmlns="http://www.w3.org/2000/svg"
   xmlns:sodipodi="http://sodipodi.sourceforge.net/DTD/sodipodi-0.dtd"
   xmlns:inkscape="http://www.inkscape.org/namespaces/inkscape"
   width="800px"
   height="400px"
   viewBox="0 0 800 400"
   version="1.1"
   id="SVGRoot"
   sodipodi:docname="msp430.svg"
   inkscape:version="0.92.1 r15371">
  <sodipodi:namedview
     id="base"
     pagecolor="#ffffff"
     bordercolor="#666666"
     borderopacity="1.0"
     inkscape:pageopacity="0.0"
     inkscape:pageshadow="2"
     inkscape:zoom="3"
     inkscape:cx="611.73747"
     inkscape:cy="96.052891"
     inkscape:document-units="px"
     inkscape:current-layer="layer1"
     showgrid="false"
     inkscape:window-width="1920"
     inkscape:window-height="1027"
     inkscape:window-x="-8"
     inkscape:window-y="-8"
     inkscape:window-maximized="1" />
  <defs
     id="defs44" />
  <metadata
     id="metadata47">
    <rdf:RDF>
      <cc:Work
         rdf:about="">
        <dc:format>image/svg+xml</dc:format>
        <dc:type
           rdf:resource="http://purl.org/dc/dcmitype/StillImage" />
      </cc:Work>
    </rdf:RDF>
  </metadata>
  <g
     id="layer1"
     inkscape:groupmode="layer"
     inkscape:label="Layer 1">
    <path
       id="path62"
       d="m 461.11376,28.375803 c 1.84807,1.367695 3.58784,2.885936 5.20523,4.519014 1.58775,1.534399 3.07508,3.170343 4.43251,4.911205 1.77652,2.151743 3.15178,4.584547 4.47966,7.027025 1.103,2.146939 2.22413,4.282754 3.37322,6.405364 1.17836,2.09945 2.09379,4.326642 3.00685,6.549449 1.09674,2.724456 2.07757,5.494166 2.99047,8.285038 1.04654,3.269373 2.01592,6.562992 2.99547,9.852921 0.90979,3.140078 2.13496,6.181994 3.41211,9.188242 1.28695,3.067249 2.59185,6.12791 3.82147,9.218994 1.32839,2.863881 2.49929,5.794345 3.72481,8.702155 1.39721,3.22252 2.79168,6.44699 4.24444,9.64523 1.77049,3.98039 3.38439,8.02374 4.87937,12.11463 1.64602,4.35472 3.27085,8.71738 5.01543,13.03387 1.74407,4.24633 3.73797,8.38274 5.75178,12.50584 2.18287,4.27424 4.12948,8.65738 5.98926,13.0796 2.28518,5.31176 4.45109,10.67333 6.66961,16.01298 2.47548,5.68651 4.85096,11.41707 7.42923,17.05811 2.32584,5.06732 4.86216,10.03423 7.32904,15.03353 2.43689,4.92758 4.49215,10.02776 6.40924,15.17558 1.87178,5.12847 3.59953,10.30749 5.3549,15.47656 1.5427,4.54901 3.16978,9.06605 4.89109,13.55052 1.64048,3.90335 3.34072,7.78194 5.16699,11.6022 1.76231,3.8517 3.52913,7.70056 5.22419,11.58236 1.82493,4.00664 3.53025,8.06532 5.27157,12.10853 1.65732,4.03167 3.38965,8.03227 5.14672,12.02144 1.61864,4.06857 3.28329,8.11377 5.22945,12.03766 1.73089,3.4552 3.55794,6.85958 5.39839,10.2572 1.74389,3.10191 3.33234,6.28987 4.90488,9.48141 1.52867,3.1559 2.91097,6.37802 4.33442,9.58173 1.5873,3.49156 3.1111,7.01136 4.66079,10.51981 1.50164,3.27096 2.92916,6.57703 4.33211,9.89165 1.15994,2.55771 2.07327,5.21786 3.19528,7.79024 0.55981,1.48417 1.41986,2.79776 2.20077,4.16331 0.43282,0.67696 0.99957,1.21409 1.11001,2.02851 -6.63022,4.06368 -4.96433,3.97957 -9.76127,3.92345 -1.35565,-0.0159 -2.71133,-0.0254 -4.06706,-0.0281 -1.48348,0.0487 -2.94743,-0.21631 -4.42263,-0.34042 -2.02481,-0.14754 -4.05597,-0.16053 -6.08507,-0.17917 -2.55344,-0.0131 -5.10691,-0.0156 -7.66038,-0.0175 -2.79753,0.0362 -5.59795,-0.0743 -8.39241,0.0754 -2.72505,0.16917 -5.44926,0.29438 -8.16837,0.54215 -2.68633,0.24636 -5.38315,0.32112 -8.07904,0.36252 -2.95938,0.0331 -5.919,0.0237 -8.8785,0.0206 -3.27195,-10e-4 -6.54391,-0.005 -9.81586,-0.0106 -3.69316,-0.002 -7.38632,-0.004 -11.07947,-0.0105 -4.25738,-0.003 -8.51475,-0.006 -12.77213,-0.0103 -4.49214,-10e-4 -8.98428,-2.9e-4 -13.47642,0.001 -4.66109,-0.05 -9.31872,0.16 -13.97683,0.29741 -4.81307,0.19456 -9.61545,0.56115 -14.42336,0.84353 -4.98286,0.18744 -9.96506,0.38123 -14.94812,0.56922 -5.07568,0.099 -10.13385,0.54111 -15.19666,0.87835 -4.57482,0.28045 -9.1451,0.60205 -13.72598,0.77287 -4.0856,0.0476 -8.16449,0.21271 -12.24591,0.39084 -4.11848,0.20484 -8.24371,0.14608 -12.36286,0.30942 -4.12122,0.19048 -8.24288,0.30698 -12.36121,0.55299 -3.7979,0.22844 -7.58616,0.5682 -11.38733,0.75091 -3.17899,0.0568 -6.34936,0.21131 -9.52197,0.41226 -2.65757,0.20715 -5.32776,0.13606 -7.98485,0.32357 -2.52072,0.21247 -5.04726,0.3272 -7.57554,0.39306 -2.48294,-0.0295 -4.95375,0.21879 -7.42954,0.36722 -2.33563,0.12363 -4.67444,0.15576 -7.01273,0.18262 -1.75324,0.0129 -3.50654,0.0117 -5.25982,0.0161 -1.27338,0.005 -2.54677,0.005 -3.82015,0.001 -1.21757,-8.3e-4 -2.43515,0.003 -3.65272,0.004 -1.16026,-0.004 -2.32053,-10e-4 -3.48079,3e-5 -1.2336,0.0706 -2.43939,-0.20387 -3.65948,-0.34016 -1.22811,-0.12833 -2.46362,-0.14729 -3.69721,-0.16027 -1.10981,0.0913 -2.17509,-0.0965 -3.26217,-0.27657 -1.04199,-0.0519 -1.96724,-0.35757 -2.81093,-0.96851 -0.62852,-0.67582 -1.14142,-1.47097 -1.54657,-2.29946 -0.45945,-0.72617 -0.75506,-1.53674 -1.11764,-2.31211 -0.44466,-0.94182 -0.84439,-1.91308 -1.37675,-2.80967 -0.57676,-0.96151 -1.2066,-1.88641 -1.78906,-2.84556 -0.60868,-1.05198 -1.14524,-2.14205 -1.70932,-3.21776 -0.5192,-1.08243 -1.15956,-2.09426 -1.67139,-3.18103 -0.73651,-1.32341 -1.38458,-2.68051 -1.98961,-4.06924 -0.68205,-1.61266 -1.25863,-3.27 -2.03429,-4.84112 -0.90683,-1.62016 -1.68513,-3.30364 -2.53573,-4.95278 -1.13805,-1.95141 -1.92621,-4.06317 -2.76261,-6.15268 -0.89889,-2.33817 -1.88046,-4.64314 -2.81981,-6.96509 -1.1158,-2.59676 -2.25733,-5.18099 -3.34272,-7.79127 -1.06442,-2.74395 -2.31381,-5.40887 -3.43713,-8.12837 -1.3278,-3.01928 -2.58658,-6.06805 -3.87359,-9.10477 -1.53008,-3.69401 -2.94074,-7.43509 -4.37705,-11.166 -1.5423,-4.03556 -2.92011,-8.12987 -4.36379,-12.20098 -1.47393,-4.03644 -2.88849,-8.09384 -4.38718,-12.1214 -1.26246,-3.58157 -2.6752,-7.10764 -4.15886,-10.60251 -1.42913,-3.42928 -2.86657,-6.85654 -4.21703,-10.31765 -1.70275,-4.1908 -3.29264,-8.42304 -4.79552,-12.68923 -1.58522,-4.7928 -2.96783,-9.65101 -4.36555,-14.50125 -1.34725,-4.56931 -2.81643,-9.10058 -4.3754,-13.60176 -1.40811,-3.9971 -2.82373,-7.99133 -4.21371,-11.99493 -1.48609,-4.06814 -2.93267,-8.14927 -4.23511,-12.28012 -1.25932,-4.16739 -2.22256,-8.41506 -3.38443,-12.60885 -1.1601,-3.9771 -2.28319,-7.96475 -3.39503,-11.95556 -0.94384,-3.38245 -1.85483,-6.77392 -2.78938,-10.15924 -0.80536,-2.85459 -1.76731,-5.66147 -2.66307,-8.48845 -0.75348,-2.44615 -1.47614,-4.89931 -2.29761,-7.32399 -1.07716,-3.19954 -1.91802,-6.4708 -2.80573,-9.72596 -0.91447,-3.64733 -2.03263,-7.23187 -3.21829,-10.79829 -1.07981,-3.36177 -2.26028,-6.689 -3.35559,-10.04542 -0.9751,-2.72191 -2.20224,-5.34281 -3.36318,-7.98794 -1.00014,-2.28444 -2.06128,-4.54093 -3.07897,-6.81749 -1.0018,-2.09674 -1.91082,-4.229934 -2.78622,-6.381626 -0.81991,-2.019545 -1.57723,-4.06371 -2.37831,-6.091283 -0.90302,-2.249671 -1.84462,-4.482405 -2.70291,-6.749603 -0.81117,-2.192817 -1.59486,-4.396595 -2.32528,-6.617724 -0.83672,-2.30562 -1.39842,-4.691749 -1.94958,-7.077415 -0.46796,-2.104204 -0.94389,-4.207346 -1.44543,-6.304037 -0.54176,-2.063699 -1.15365,-4.111471 -1.77669,-6.152605 -0.55767,-1.831605 -1.08254,-3.674066 -1.69093,-5.489532 -0.34697,-1.152073 -0.80609,-2.265167 -1.16162,-3.414471 -0.24305,-1.085059 -0.53389,-2.160475 -0.74641,-3.252493 -0.10429,-1.018068 -0.33786,-2.013196 -0.51299,-3.019801 -0.28317,-0.837216 -0.45055,-1.701083 -0.65244,-2.558878 -0.22,-0.9849 -0.55684,-1.935975 -0.78693,-2.918072 -1.30695,-3.928029 0.84482,-2.676049 6.31465,-5.949458 1.21965,-0.33238 2.47108,-0.574991 3.72,-0.782606 1.34445,-0.400875 2.72811,-0.606076 4.12205,-0.728943 1.09286,-0.0811 2.18932,-0.08172 3.28451,-0.08266 1.00091,0.0016 2.00181,0.0046 3.00272,0.0061 0.99855,0.0013 1.99709,0.0014 2.99564,0.0016 0.99707,-0.04077 1.9752,-0.293567 2.97267,-0.398618 1.00553,-0.09003 2.01579,-0.09743 3.02455,-0.103957 1.01339,0.09741 1.97574,-0.108024 2.96561,-0.275119 1.01062,-0.109195 2.00061,-0.191381 2.99345,-0.405861 0.15662,-6.68e-4 0.31324,-0.0013 0.46986,-0.002 0,0 -5.98566,4.419846 -5.98566,4.419846 v 0 c -0.13684,0.02204 -0.27368,0.04407 -0.41052,0.06611 -0.99631,0.176841 -2.01149,0.197676 -3.00655,0.389087 -1.00768,0.166331 -2.01285,0.212886 -3.03441,0.183715 -0.99349,0.01641 -1.98895,0.04101 -2.97554,0.169633 -1.00549,0.140532 -2.0049,0.375654 -3.0268,0.325961 -0.99882,-2.33e-4 -1.99764,-5.78e-4 -2.99646,-0.0024 -0.99971,-0.002 -1.99944,-0.0061 -2.99916,-0.0036 -1.07719,0.0072 -2.15608,0.02068 -3.22862,0.131699 -1.37677,0.159879 -2.72447,0.449947 -4.07378,0.762635 -1.22746,0.235451 -2.50326,0.434561 -3.63401,0.986648 2.00961,-1.222204 4.03157,-2.424315 6.02882,-3.666611 0.11237,-0.06989 -0.3046,0.102094 -0.32115,0.233388 -0.0529,0.419425 0.28245,0.809416 0.3437,1.206532 0.20906,0.980862 0.56021,1.91803 0.78131,2.895765 0.23807,0.868747 0.35015,1.770478 0.67779,2.617337 0.15971,1.006239 0.42967,1.990615 0.50506,3.009114 0.18707,1.072431 0.49288,2.117012 0.69784,3.185509 0.33836,1.150828 0.82668,2.249482 1.14151,3.407657 0.57803,1.834188 1.08149,3.690275 1.63834,5.531253 0.63829,2.051214 1.26581,4.108075 1.839,6.177626 0.47715,2.107892 0.93673,4.219417 1.39418,6.331635 0.55405,2.362382 1.10603,4.726783 1.94417,7.009035 0.71091,2.21621 1.49027,4.411121 2.30174,6.592327 0.84734,2.266278 1.77651,4.498183 2.69921,6.734828 0.81525,2.020654 1.56762,4.064287 2.38047,6.085075 0.86996,2.145435 1.75729,4.279295 2.75898,6.367839 1.0184,2.278589 2.07972,4.537699 3.06855,6.829489 1.16847,2.67003 2.38157,5.32532 3.35896,8.07351 1.08139,3.36091 2.25866,6.68895 3.33198,10.05281 1.18379,3.58048 2.31995,7.1726 3.23495,10.83333 0.8853,3.23475 1.74908,6.4791 2.85352,9.64804 0.83514,2.42788 1.55606,4.88787 2.29825,7.3449 0.88024,2.84338 1.83811,5.66237 2.64378,8.52831 0.92818,3.39059 1.81708,6.79118 2.74504,10.18138 1.10393,3.99441 2.2125,7.98752 3.37808,11.9645 1.16622,4.18501 2.10678,8.43096 3.36846,12.59023 1.29096,4.1271 2.74289,8.19786 4.23286,12.257 1.38799,4.00537 2.80617,7.99984 4.20419,12.00151 1.55364,4.51921 2.98482,9.07925 4.34708,13.6596 1.39378,4.83491 2.78359,9.6747 4.36803,14.45101 1.51397,4.25131 3.09898,8.47461 4.82119,12.64659 1.36746,3.44629 2.83335,6.85299 4.24572,10.28106 1.47583,3.51257 2.87473,7.05789 4.13152,10.65547 1.48292,4.0368 2.91657,8.09105 4.3939,12.12978 1.43068,4.06844 2.79928,8.15865 4.35353,12.18255 1.44149,3.71787 2.85418,7.44718 4.4022,11.12271 1.3062,3.03023 2.5699,6.07871 3.90854,9.09493 1.12607,2.71812 2.38803,5.37702 3.443,8.1246 1.07936,2.61437 2.2427,5.18941 3.36429,7.78484 0.94726,2.31916 1.92682,4.62523 2.83751,6.95919 0.8296,2.06567 1.60956,4.15547 2.7418,6.08175 0.86322,1.64876 1.65579,3.33065 2.57228,4.95156 0.77254,1.5837 1.35432,3.25038 2.03736,4.87373 0.61594,1.37732 1.27571,2.7209 2.01151,4.03746 0.50346,1.07831 1.15942,2.06956 1.6621,3.14777 0.55834,1.06103 1.07907,2.14152 1.67828,3.18098 0.58858,0.96134 1.24339,1.87528 1.81171,2.84788 0.53227,0.92088 0.9575,1.90143 1.41046,2.86288 0.3735,0.76946 0.67,1.57698 1.12316,2.30567 0.33553,0.70978 0.76866,1.41432 1.33953,1.95597 0.81695,0.47522 1.69447,0.61741 2.62652,0.7156 1.0594,0.17177 2.11628,0.21732 3.18994,0.19491 1.24789,0.0279 2.49755,0.066 3.73712,0.22411 1.20282,0.15015 2.40072,0.34082 3.61824,0.26219 1.16025,0.001 2.32052,0.004 3.48078,-10e-6 1.21339,0.002 2.42679,0.005 3.64018,0.005 1.27034,-0.003 2.54068,-0.002 3.811,0.006 1.74194,0.007 3.48392,0.0103 5.22586,-4.7e-4 2.32327,-0.0161 4.64721,-0.0568 6.96683,-0.1964 2.48035,-0.1555 4.95791,-0.36404 7.44553,-0.34843 2.52259,-0.0741 5.04189,-0.2111 7.55796,-0.40889 2.65275,-0.12797 5.31142,-0.11834 7.96188,-0.30841 3.16334,-0.1872 6.32639,-0.3013 9.49424,-0.38053 3.79037,-0.18673 7.56906,-0.52662 11.35776,-0.7377 4.11862,-0.23312 8.24178,-0.34148 12.36244,-0.53396 4.12159,-0.13232 8.2475,-0.11268 12.36717,-0.31996 4.07614,-0.18188 8.15143,-0.30561 12.23114,-0.37439 4.56747,-0.17523 9.12513,-0.49604 13.6873,-0.76985 5.0592,-0.33456 10.1153,-0.74005 15.18666,-0.84689 4.98922,-0.20257 9.97916,-0.37995 14.96734,-0.60177 4.80471,-0.29393 9.60657,-0.63413 14.41774,-0.81247 4.67374,-0.13884 9.34591,-0.38223 14.02325,-0.30495 4.49081,0.002 8.98161,0.003 13.47241,0.001 4.26682,-0.005 8.53364,-0.007 12.80046,-0.0103 3.70219,-0.007 7.40439,-0.009 11.10659,-0.009 3.2781,-0.004 6.5562,-0.005 9.8343,-0.003 2.96384,-0.002 5.92789,-0.002 8.89146,-0.0467 2.688,-0.0567 5.37624,-0.15147 8.05391,-0.40717 2.72341,-0.23086 5.45312,-0.34891 8.18128,-0.51106 2.80194,-0.0915 5.60618,-0.0315 8.40928,-0.0491 2.56487,-0.004 5.1298,-0.0144 7.69464,9.1e-4 2.05033,0.0169 4.10325,0.0374 6.14795,0.20496 1.46853,0.13254 2.93371,0.33399 4.41222,0.27292 1.35354,0.0101 2.70705,0.0228 4.06058,0.0324 4.26782,-0.0133 5.02216,-1.3685 -3.06795,3.46531 0.76229,0.46593 -0.72506,-1.17127 -0.70872,-1.36244 -0.76963,-1.40263 -1.61485,-2.75777 -2.17779,-4.26735 -1.0861,-2.59286 -1.97267,-5.26694 -3.12469,-7.83432 -1.38956,-3.31703 -2.81168,-6.6222 -4.30729,-9.89266 -1.53622,-3.51266 -3.06286,-7.03002 -4.66672,-10.51236 -1.42561,-3.19251 -2.81952,-6.39899 -4.33049,-9.5527 -1.56017,-3.18746 -3.14527,-6.36666 -4.88397,-9.46112 -1.8354,-3.41107 -3.6439,-6.83566 -5.37478,-10.30121 -1.9346,-3.94027 -3.61093,-7.99209 -5.24275,-12.06592 -1.76084,-3.99021 -3.47613,-8.00092 -5.13323,-12.0353 -1.7487,-4.03831 -3.45892,-8.09323 -5.28377,-12.09806 -1.69413,-3.8731 -3.46301,-7.71144 -5.22103,-11.55594 -1.83582,-3.83792 -3.53817,-7.73815 -5.17261,-11.66566 -1.71652,-4.49924 -3.33337,-9.03308 -4.86266,-13.59939 -1.72946,-5.17085 -3.45942,-10.34266 -5.33406,-15.46304 -1.90119,-5.12845 -3.94061,-10.2081 -6.37474,-15.11117 -2.46806,-5.00778 -4.99417,-9.98929 -7.30525,-15.07243 -2.56297,-5.65665 -4.93889,-11.39492 -7.4299,-17.08339 -2.23584,-5.32846 -4.41626,-10.68042 -6.72893,-15.97638 -1.86771,-4.40349 -3.83672,-8.76061 -6.00682,-13.02484 -2.01889,-4.13956 -4.01517,-8.29354 -5.76472,-12.55599 -1.75033,-4.32198 -3.37928,-8.6904 -5.03935,-13.04751 -1.49902,-4.06828 -3.09117,-8.09798 -4.88416,-12.04745 -1.47607,-3.19341 -2.90401,-6.40936 -4.30099,-9.63781 -1.23656,-2.90935 -2.39908,-5.84995 -3.72308,-8.722179 -1.22066,-3.08781 -2.52876,-6.139772 -3.82232,-9.197352 -1.29525,-3.029258 -2.50848,-6.1069 -3.4323,-9.271527 -0.97673,-3.281969 -1.94802,-6.566366 -3.0038,-9.823957 -0.92131,-2.767791 -1.89765,-5.518516 -2.99866,-8.220592 -0.9061,-2.197524 -1.83261,-4.390431 -2.99593,-6.467669 -1.14301,-2.126391 -2.23922,-4.275492 -3.334,-6.427003 -1.29792,-2.413285 -2.66824,-4.799458 -4.44443,-6.900537 -1.36344,-1.700331 -2.8291,-3.317902 -4.39028,-4.839572 -1.60422,-1.60895 -3.31789,-3.127122 -5.21242,-4.388398 0,0 6.27059,-3.966097 6.27059,-3.966097 z"
       inkscape:connector-curvature="0" />
    <path
       id="path3818"
       d="m 576.30545,29.413876 c 0.007,5.131009 -0.62513,10.227342 -1.21462,15.315511 -1.57241,11.978416 -2.75917,24.002792 -3.76859,36.040353 -0.45338,4.622326 -0.60881,9.252331 -0.59161,13.89237 0,0 -6.22412,3.165511 -6.22412,3.165511 v 0 c 0.0864,-4.704366 0.34036,-9.395473 0.83813,-14.077421 1.08773,-11.987664 2.2259,-23.971602 3.5325,-35.937614 0.48746,-4.992225 1.05654,-10.00635 0.81741,-15.030289 0,0 6.6109,-3.368421 6.6109,-3.368421 z"
       inkscape:connector-curvature="0" />
    <path
       id="path3820"
       d="m 578.89021,27.78071 c 0.50378,2.660183 1.27386,5.245639 2.10278,7.819448 1.6247,4.557472 2.96279,9.207383 4.37133,13.834018 1.50761,5.05657 2.91905,10.140084 4.3467,15.219265 0.36421,1.423029 0.7749,2.836293 1.24232,4.22914 0.15164,0.451881 0.35818,1.087273 0.50138,1.068987 0.12454,-0.0159 0.0837,-0.236741 0.12559,-0.355112 -2.00704,1.062975 -3.93064,2.301236 -6.02113,3.188926 -0.31746,0.134805 0.39462,-0.567385 0.5601,-0.869993 0.23818,-0.43556 0.445,-0.887873 0.64873,-1.340573 0.96603,-2.146555 1.80012,-4.358967 2.66966,-6.545132 2.50168,-6.283503 5.19979,-12.490573 7.98334,-18.654159 1.51559,-2.721529 2.40805,-5.806526 4.10538,-8.429508 2.22197,-1.224514 4.31895,-2.710048 6.66593,-3.673542 0.29979,-0.12307 0.41833,0.923858 0.39724,1.614464 -0.0505,1.654814 -0.30762,3.336566 -0.47727,4.979798 -1.06747,9.099568 -2.12443,18.19629 -2.97489,27.319386 -0.59154,8.530761 -1.48013,17.091165 -1.15779,25.652256 0.24181,2.102497 0.0541,1.166644 0.48074,2.822829 0,0 -6.46231,3.481307 -6.46231,3.481307 v 0 c -0.38242,-1.812835 -0.22461,-0.804294 -0.39903,-3.036334 -0.0385,-8.662138 0.95797,-17.296803 1.53664,-25.929917 0.79273,-9.036355 1.71703,-18.059414 2.52306,-27.093987 0.30747,-4.006817 0.0412,-0.402779 0.26296,-3.730832 0.0243,-0.36402 0.0617,-0.72719 0.0798,-1.091567 0.0106,-0.213647 -0.0581,-0.437761 0.006,-0.641703 0.0191,-0.06021 0.11374,0.05494 0.17061,0.08241 2.06462,-1.214473 4.12924,-2.428946 6.19386,-3.643419 -0.72635,0.616148 -1.11146,1.490499 -1.53565,2.333383 -1.00943,2.005785 -1.95126,4.046732 -2.97629,6.045003 -2.83901,6.115279 -5.53372,12.304903 -7.95838,18.596599 -0.82302,2.171202 -1.6262,4.353986 -2.4942,6.507891 -0.18431,0.457343 -0.3801,0.91 -0.57575,1.362605 -0.14356,0.332092 -0.14598,0.783141 -0.44183,0.991379 -2.17079,1.527915 -4.54447,2.745036 -6.81671,4.117554 -0.18182,-0.105987 -0.39542,-0.170375 -0.54545,-0.31796 -0.26357,-0.259276 -0.4381,-1.014997 -0.51784,-1.287765 -0.41676,-1.425756 -0.80797,-2.860004 -1.13965,-4.308138 -1.32483,-5.106511 -2.71754,-10.192768 -4.25805,-15.239486 -1.43043,-4.605807 -2.78702,-9.237559 -4.47977,-13.756721 -0.876,-2.571714 -1.6544,-5.163268 -2.28378,-7.805663 0,0 6.54119,-3.515135 6.54119,-3.515135 z"
       inkscape:connector-curvature="0" />
    <path
       id="path3822"
       d="m 645.33982,31.411749 c -3.31912,-0.824737 -6.7908,-0.800764 -10.04378,0.342179 -0.97038,0.340945 -1.88159,0.831359 -2.82238,1.247039 1.0754,-0.585528 2.13593,-2.313952 3.2262,-1.756586 0.99137,0.506814 -1.79828,1.319423 -2.62714,2.062841 -2.082,1.867374 -4.24962,4.305853 -5.20194,6.996027 -0.23268,0.657291 -0.25023,1.371886 -0.37535,2.057828 0.15018,0.595221 0.17014,1.239563 0.45052,1.785662 1.16267,2.264498 4.01716,3.401989 6.18622,4.305925 1.02412,0.426796 6.0743,2.272136 7.00976,2.616402 4.47464,1.762733 9.22511,3.814021 12.05835,7.936707 1.67024,2.430391 1.55267,3.248068 2.1531,6.070296 -0.0337,1.15487 0.0519,2.319408 -0.10102,3.464609 -0.67293,5.04083 -3.44909,9.740697 -7.10989,13.195311 -0.96755,0.913048 -2.072,1.669134 -3.108,2.503702 -5.92322,3.557865 -12.64943,8.508821 -20.10202,7.097156 -2.8915,-0.547705 -3.26311,-1.174287 -5.58165,-2.808439 -2.67095,-3.291175 -1.56745,-1.486764 -3.28964,-5.425937 0,0 6.1681,-3.468786 6.1681,-3.468786 v 0 c 1.60532,3.705126 0.56382,2.016884 3.10248,5.078235 0.80585,0.542258 1.53897,1.212587 2.41754,1.626775 3.04641,1.436188 6.57256,1.222291 9.72562,0.316732 1.22895,-0.352955 2.31942,-1.57034 3.58245,-1.371169 0.96459,0.15211 -1.65999,1.028962 -2.48999,1.543444 1.04861,-0.800173 2.16334,-1.520416 3.14582,-2.400517 3.65694,-3.275856 6.49674,-7.805556 7.25019,-12.711974 0.16724,-1.089058 0.10313,-2.201234 0.1547,-3.301851 -0.52255,-2.663633 -0.39677,-3.456904 -1.96084,-5.754297 -2.74814,-4.036628 -7.43511,-5.990864 -11.79854,-7.689483 -1.01418,-0.36596 -6.04164,-2.164925 -7.12114,-2.61227 -2.43107,-1.007439 -5.35529,-2.258307 -6.64863,-4.762278 -0.32802,-0.635065 -0.3771,-1.378917 -0.56565,-2.068376 0.11301,-0.758035 0.10594,-1.543995 0.33902,-2.274105 0.5433,-1.701837 1.84105,-3.571262 2.94399,-4.915971 3.69649,-4.506774 8.51454,-7.039295 13.72472,-9.722911 0.97566,-0.393725 1.92402,-0.863372 2.92699,-1.181175 3.41961,-1.083551 7.04406,-0.996118 10.50602,-0.203095 0,0 -6.12419,4.18235 -6.12419,4.18235 z"
       inkscape:connector-curvature="0" />
    <path
       id="path3824"
       d="m 671.29828,26.037144 c -0.17051,6.041819 -0.15841,12.086747 -0.26355,18.129812 -0.29188,7.826295 -0.58811,15.651706 -0.73581,23.482272 0.031,3.53298 -0.002,1.838849 0.0902,5.082551 0,0 -6.39576,3.273532 -6.39576,3.273532 v 0 c -0.0274,-3.296457 -0.0256,-1.575126 10e-4,-5.163995 0.24767,-7.845458 0.60298,-15.686709 0.85084,-23.532079 0.0678,-5.970288 0.0248,-11.942436 -0.14394,-17.910974 0,0 6.59656,-3.361119 6.59656,-3.361119 z"
       inkscape:connector-curvature="0" />
    <path
       id="path3826"
       d="m 664.27951,29.366801 c 5.90841,-3.797698 12.04725,-7.255986 19.11654,-8.054561 1.20137,-0.135711 2.41535,-0.113661 3.62303,-0.170491 1.16118,0.08589 2.33237,0.08293 3.48354,0.257664 3.55119,0.539036 7.69225,2.026007 9.62847,5.302609 0.39721,0.672176 0.56807,1.454536 0.8521,2.181805 0.0351,0.817434 0.19229,1.638738 0.10542,2.452304 -0.45952,4.30374 -3.61346,8.003316 -6.67898,10.787227 -0.97352,0.884092 -2.04056,1.659378 -3.06085,2.489067 -5.99197,4.054309 -12.27722,8.030732 -19.34875,9.860275 -2.34234,0.606008 -3.11124,0.59564 -5.41649,0.815541 -2.4937,-0.03103 -1.33191,0.07268 -3.4904,-0.248204 0,0 5.96756,-4.210107 5.96756,-4.210107 v 0 c 2.01871,0.263863 0.9266,0.181596 3.28033,0.185873 0.79918,-0.0857 1.60449,-0.126334 2.39755,-0.257103 2.19046,-0.361188 3.88192,-0.847059 5.97849,-1.634099 1.13131,-0.424688 2.18376,-1.752581 3.3414,-1.406054 0.96373,0.288482 -3.38127,2.181159 -2.52706,1.649817 1.12711,-0.701096 2.23062,-1.439449 3.34593,-2.159174 1.02075,-0.801909 2.08568,-1.550561 3.06225,-2.405725 2.98148,-2.610835 6.14245,-6.097259 6.75471,-10.190359 0.10998,-0.735268 -0.003,-1.486894 -0.004,-2.230341 -0.24158,-0.661368 -0.37362,-1.373787 -0.72473,-1.984105 -1.79684,-3.123336 -5.84305,-4.450695 -9.18127,-4.901784 -1.1305,-0.152762 -2.27769,-0.132436 -3.41653,-0.198655 -1.19034,0.08234 -2.38864,0.08675 -3.571,0.247023 -2.25074,0.305085 -4.58065,0.949983 -6.7149,1.719484 -0.91575,0.330176 -3.396,1.79947 -2.69572,1.123276 1.16109,-1.121149 2.76442,-1.66698 4.13746,-2.51542 0.44974,-0.277905 -0.91155,0.535785 -1.36732,0.803677 0,0 -6.87639,2.69054 -6.87639,2.69054 z"
       inkscape:connector-curvature="0" />
    <path
       id="path3828"
       d="m 572.26748,105.88906 c -0.69103,3.88653 -1.22887,7.79551 -1.78009,11.70369 -0.58086,4.00613 -0.88227,8.04295 -1.08792,12.08316 0,0 -6.46128,3.24527 -6.46128,3.24527 v 0 c 0.26342,-4.06672 0.58977,-8.13166 1.13677,-12.1715 0.52355,-3.85275 1.01108,-7.71044 1.53794,-11.56218 0,0 6.65458,-3.29844 6.65458,-3.29844 z"
       inkscape:connector-curvature="0" />
    <path
       id="path3830"
       d="m 569.19402,126.9961 c 3.69973,0.14057 7.20757,-1.34502 10.70798,-2.34768 3.49137,-0.99678 7.08965,-1.47865 10.70264,-1.72858 0,0 -5.88395,4.33941 -5.88395,4.33941 v 0 c -3.55642,0.26242 -7.09206,0.77133 -10.5212,1.78292 -3.60395,1.05366 -7.25718,2.52647 -11.07772,2.20096 0,0 6.07225,-4.24703 6.07225,-4.24703 z"
       inkscape:connector-curvature="0" />
    <path
       id="path3832"
       d="m 592.79112,105.16041 c -0.15798,5.86403 -0.16409,11.73121 -0.17714,17.59699 -9.6e-4,5.71718 0.0328,11.4343 0.11753,17.15084 0,0 -6.46302,3.29307 -6.46302,3.29307 v 0 c 0.0841,-5.75647 0.11858,-11.5135 0.11753,-17.2706 -0.0129,-5.8056 -0.0176,-11.61269 -0.17714,-17.41648 0,0 6.58224,-3.35382 6.58224,-3.35382 z"
       inkscape:connector-curvature="0" />
    <path
       id="path3834"
       d="m 597.03127,112.01205 c 4.43897,-3.13357 9.19695,-5.80206 14.41742,-7.31027 1.10736,-0.15901 3.25869,-0.92284 4.03305,0.40835 0.46132,0.79304 0.14391,1.23791 -0.0745,2.05197 -1.72588,2.98458 -4.41993,5.24482 -7.06614,7.39102 -0.19081,0.16049 -0.36386,0.34483 -0.57241,0.48145 -0.18095,0.11854 -0.12712,-0.53436 0.0579,-0.64637 0.3106,-0.18797 0.71808,-0.11094 1.0797,-0.14322 1.7765,-0.15858 1.54865,-0.0949 3.44553,0.0317 2.76542,0.39521 5.39007,1.4661 6.94635,3.9289 1.01249,1.60225 0.91135,2.23575 1.19002,4.06982 -0.0278,3.0995 -1.04909,6.02424 -3.16357,8.32938 -0.49467,0.53928 -1.01416,1.07593 -1.6313,1.4692 -2.61464,1.66617 -5.35513,3.12609 -8.0327,4.68913 -2.72543,1.07039 -5.88406,1.90525 -8.79622,1.04187 -0.36066,-0.10693 -0.69563,-0.2866 -1.04344,-0.42991 -0.22538,-0.18323 -0.45075,-0.36646 -0.67613,-0.54969 0,0 6.2601,-3.9415 6.2601,-3.9415 v 0 c 0.17453,0.12973 0.34906,0.25946 0.52359,0.38918 0.31247,0.11196 0.61496,0.25714 0.93741,0.33588 2.83789,0.69299 5.82757,-0.22223 8.39979,-1.37761 -1.41784,0.84859 -2.75695,1.84527 -4.2535,2.54577 -0.65264,0.3055 1.17337,-0.84543 1.6913,-1.34645 2.15236,-2.08207 3.26932,-4.82474 3.39679,-7.78967 -0.19972,-1.63842 -0.087,-2.27443 -0.99508,-3.70238 -1.47321,-2.31657 -4.05357,-3.1507 -6.63607,-3.42564 -2.151,-0.037 -1.44281,-0.0965 -3.45053,0.12712 -0.39222,0.0437 -0.78667,0.22336 -1.17441,0.14989 -0.11908,-0.0226 -1.28304,-0.43977 -0.93169,-0.98762 0.14998,-0.23386 0.42796,-0.35438 0.64194,-0.53156 2.65781,-2.0354 5.25882,-4.23344 7.17645,-7.00681 0.008,-0.0149 0.62134,-0.91526 0.47454,-1.20775 -0.37417,-0.74547 -3.01998,-0.005 -3.52847,0.10199 -1.34098,0.41889 -1.67497,0.49306 -2.99919,1.03352 -0.52044,0.21241 -2.00948,0.99388 -1.5431,0.68009 8.91466,-5.99801 4.92845,-2.80397 2.7909,-1.60155 0,0 -6.8944,2.7418 -6.8944,2.7418 z"
       inkscape:connector-curvature="0" />
    <path
       id="path3836"
       d="m 627.35476,131.72594 c -2.15692,-1.58881 -3.58415,-3.94494 -4.30444,-6.51271 -0.20791,-0.74122 -0.3056,-1.50901 -0.4584,-2.26352 -0.48403,-4.68301 0.75419,-9.35525 3.21699,-13.35664 0.5086,-0.82633 1.12677,-1.57999 1.69015,-2.36999 0.62322,-0.65388 1.20105,-1.35424 1.86966,-1.96163 0.61634,-0.55991 1.25773,-1.10639 1.97435,-1.53046 2.33699,-1.38292 6.69279,-4.825468 10.42547,-4.887096 1.88111,-0.03106 2.35973,0.413556 4.01044,1.173006 0.55558,0.48114 1.171,0.90083 1.66675,1.44341 2.3051,2.52286 3.4434,6.1093 3.56705,9.47248 0.0361,0.98216 -0.0771,1.96414 -0.11569,2.94621 -0.18444,0.99762 -0.29674,2.01132 -0.55334,2.99287 -0.9863,3.77282 -2.93906,7.45152 -5.67749,10.24391 -0.55752,0.5685 -1.19687,1.05052 -1.7953,1.57578 -3.70044,2.41547 -3.64135,2.43891 -9.63782,5.50723 -0.52403,0.26814 -2.02759,0.58888 -2.68414,0.58405 -0.32049,-0.002 -0.63131,-0.11098 -0.94697,-0.16648 0,0 6.02024,-4.27183 6.02024,-4.27183 v 0 c 0.90705,0.0338 0.90917,0.0942 1.89912,-0.18225 0.4713,-0.13159 1.78231,-0.76993 1.38656,-0.48213 -1.02589,0.74603 -7.74428,4.64356 -2.69305,1.70002 0.62329,-0.49823 1.28711,-0.94963 1.86989,-1.4947 2.81484,-2.63274 4.83285,-6.21723 5.87507,-9.91324 0.2671,-0.9472 0.39126,-1.92899 0.58689,-2.89349 0.0482,-0.94518 0.16802,-1.88942 0.14471,-2.83554 -0.0783,-3.17885 -1.11959,-6.61678 -3.36564,-8.95781 -0.46294,-0.48252 -1.04099,-0.83958 -1.56149,-1.25937 -1.59231,-0.62493 -1.97418,-0.98562 -3.74594,-0.82925 -0.69561,0.0614 -2.51841,0.98545 -2.03996,0.4768 1.09229,-1.16124 2.64336,-1.78768 4.02355,-2.58559 1.49353,-0.86343 -6.04707,3.90181 -3.97452,3.31491 -0.57869,0.76123 -1.21256,1.48352 -1.73608,2.2837 -2.00285,3.06125 -3.34985,6.79644 -3.47419,10.47215 -0.0271,0.79954 0.0811,1.59794 0.12171,2.39691 0.14258,0.71606 0.22882,1.44568 0.42773,2.14818 0.68099,2.40518 2.05159,4.64671 4.20205,5.97215 0,0 -6.21392,4.04996 -6.21392,4.04996 z"
       inkscape:connector-curvature="0" />
    <path
       id="path3884"
       d="m 300.49141,258.30583 c 2.03268,-3.77146 4.38431,-7.34966 6.82502,-10.86558 1.16334,-1.63189 2.34758,-3.2474 3.56158,-4.84179 0,0 6.67882,-2.8635 6.67882,-2.8635 v 0 c -1.26203,1.58287 -2.46902,3.20444 -3.65889,4.84251 -2.41448,3.43838 -4.76474,6.92827 -6.67165,10.68129 0,0 -6.73488,3.04707 -6.73488,3.04707 z"
       inkscape:connector-curvature="0" />
    <path
       id="path3884-5"
       d="m 308.46729,273.78543 c 2.03268,-3.77145 4.38431,-7.34966 6.82502,-10.86558 1.16334,-1.63189 2.34758,-3.24739 3.56158,-4.84179 0,0 6.67882,-2.8635 6.67882,-2.8635 v 0 c -1.26203,1.58287 -2.46902,3.20444 -3.65889,4.84251 -2.41448,3.43838 -4.76474,6.92827 -6.67165,10.68129 0,0 -6.73488,3.04707 -6.73488,3.04707 z"
       inkscape:connector-curvature="0" />
    <path
       id="path3884-50"
       d="m 312.46729,291.28543 c 2.03268,-3.77145 4.38431,-7.34966 6.82502,-10.86558 1.16334,-1.63189 2.34758,-3.24739 3.56158,-4.84179 0,0 6.67882,-2.8635 6.67882,-2.8635 v 0 c -1.26203,1.58287 -2.46902,3.20444 -3.65889,4.84251 -2.41448,3.43838 -4.76474,6.92827 -6.67165,10.68129 0,0 -6.73488,3.04707 -6.73488,3.04707 z"
       inkscape:connector-curvature="0" />
    <path
       id="path3884-4"
       d="m 323.46729,302.28543 c 2.03268,-3.77145 4.38431,-7.34966 6.82502,-10.86558 1.16334,-1.63189 2.34758,-3.24739 3.56158,-4.84179 0,0 6.67882,-2.8635 6.67882,-2.8635 v 0 c -1.26203,1.58287 -2.46902,3.20444 -3.65889,4.84251 -2.41448,3.43838 -4.76474,6.92827 -6.67165,10.68129 0,0 -6.73488,3.04707 -6.73488,3.04707 z"
       inkscape:connector-curvature="0" />
    <path
       id="path3884-7"
       d="m 331.31557,318.94573 c 2.03268,-3.77145 4.38431,-7.34966 6.82502,-10.86558 1.16334,-1.63189 2.34758,-3.24739 3.56158,-4.84179 0,0 6.67882,-2.8635 6.67882,-2.8635 v 0 c -1.26203,1.58287 -2.46902,3.20444 -3.65889,4.84251 -2.41448,3.43838 -4.76474,6.92827 -6.67165,10.68129 0,0 -6.73488,3.04707 -6.73488,3.04707 z"
       inkscape:connector-curvature="0" />
    <path
       id="path3884-8"
       d="m 338.96729,332.28543 c 2.03268,-3.77145 4.38431,-7.34966 6.82502,-10.86558 1.16334,-1.63189 2.34758,-3.24739 3.56158,-4.84179 0,0 6.67882,-2.8635 6.67882,-2.8635 v 0 c -1.26203,1.58287 -2.46902,3.20444 -3.65889,4.84251 -2.41448,3.43838 -4.76474,6.92827 -6.67165,10.68129 0,0 -6.73488,3.04707 -6.73488,3.04707 z"
       inkscape:connector-curvature="0" />
    <path
       id="path3884-40"
       d="m 313.17023,257.44233 c 2.03268,-3.77145 4.38431,-7.34966 6.82502,-10.86558 1.16334,-1.63189 2.34758,-3.2474 3.56158,-4.84179 0,0 6.67882,-2.8635 6.67882,-2.8635 v 0 c -1.26203,1.58287 -2.46902,3.20444 -3.65889,4.84251 -2.41448,3.43838 -4.76474,6.92827 -6.67165,10.68129 0,0 -6.73488,3.04707 -6.73488,3.04707 z"
       inkscape:connector-curvature="0" />
    <path
       id="path3884-5-4"
       d="m 321.14611,272.92193 c 2.03268,-3.77145 4.38431,-7.34966 6.82502,-10.86558 1.16334,-1.63189 2.34758,-3.24739 3.56158,-4.84179 0,0 6.67882,-2.8635 6.67882,-2.8635 v 0 c -1.26203,1.58287 -2.46902,3.20444 -3.65889,4.84251 -2.41448,3.43838 -4.76474,6.92827 -6.67165,10.68129 0,0 -6.73488,3.04707 -6.73488,3.04707 z"
       inkscape:connector-curvature="0" />
    <path
       id="path3884-50-6"
       d="m 325.14611,290.42193 c 2.03268,-3.77145 4.38431,-7.34966 6.82502,-10.86558 1.16334,-1.63189 2.34758,-3.24739 3.56158,-4.84179 0,0 6.67882,-2.8635 6.67882,-2.8635 v 0 c -1.26203,1.58287 -2.46902,3.20444 -3.65889,4.84251 -2.41448,3.43838 -4.76474,6.92827 -6.67165,10.68129 0,0 -6.73488,3.04707 -6.73488,3.04707 z"
       inkscape:connector-curvature="0" />
    <path
       id="path3884-4-1"
       d="m 336.14611,301.42193 c 2.03268,-3.77145 4.38431,-7.34966 6.82502,-10.86558 1.16334,-1.63189 2.34758,-3.24739 3.56158,-4.84179 0,0 6.67882,-2.8635 6.67882,-2.8635 v 0 c -1.26203,1.58287 -2.46902,3.20444 -3.65889,4.84251 -2.41448,3.43838 -4.76474,6.92827 -6.67165,10.68129 0,0 -6.73488,3.04707 -6.73488,3.04707 z"
       inkscape:connector-curvature="0" />
    <path
       id="path3884-7-0"
       d="m 343.99439,318.08223 c 2.03268,-3.77145 4.38431,-7.34966 6.82502,-10.86558 1.16334,-1.63189 2.34758,-3.24739 3.56158,-4.84179 0,0 6.67882,-2.8635 6.67882,-2.8635 v 0 c -1.26203,1.58288 -2.46902,3.20444 -3.65889,4.84251 -2.41448,3.43838 -4.76474,6.92827 -6.67165,10.68129 0,0 -6.73488,3.04708 -6.73488,3.04707 z"
       inkscape:connector-curvature="0" />
    <path
       id="path3884-8-2"
       d="m 351.64611,331.42193 c 2.03268,-3.77145 4.38431,-7.34966 6.82502,-10.86558 1.16334,-1.63189 2.34758,-3.24739 3.56158,-4.84179 0,0 6.67882,-2.8635 6.67882,-2.8635 v 0 c -1.26203,1.58287 -2.46902,3.20445 -3.65889,4.84251 -2.41448,3.43838 -4.76474,6.92827 -6.67165,10.68129 0,0 -6.73488,3.04707 -6.73488,3.04707 z"
       inkscape:connector-curvature="0" />
    <path
       id="path3884-73"
       d="m 488.6492,245.56254 c 2.03268,-3.77146 4.38431,-7.34966 6.82502,-10.86558 1.16334,-1.63189 2.34758,-3.2474 3.56158,-4.84179 0,0 6.67882,-2.8635 6.67882,-2.8635 v 0 c -1.26203,1.58287 -2.46902,3.20444 -3.65889,4.84251 -2.41448,3.43838 -4.76474,6.92827 -6.67165,10.68129 0,0 -6.73488,3.04707 -6.73488,3.04707 z"
       inkscape:connector-curvature="0" />
    <path
       id="path3884-5-6"
       d="m 496.62508,261.04214 c 2.03268,-3.77145 4.38431,-7.34966 6.82502,-10.86558 1.16334,-1.63189 2.34758,-3.24739 3.56158,-4.84179 0,0 6.67882,-2.8635 6.67882,-2.8635 v 0 c -1.26203,1.58287 -2.46902,3.20444 -3.65889,4.84251 -2.41448,3.43838 -4.76474,6.92827 -6.67165,10.68129 0,0 -6.73488,3.04707 -6.73488,3.04707 z"
       inkscape:connector-curvature="0" />
    <path
       id="path3884-50-9"
       d="m 500.62508,278.54214 c 2.03268,-3.77145 4.38431,-7.34966 6.82502,-10.86558 1.16334,-1.63189 2.34758,-3.24739 3.56158,-4.84179 0,0 6.67882,-2.8635 6.67882,-2.8635 v 0 c -1.26203,1.58287 -2.46902,3.20444 -3.65889,4.84251 -2.41448,3.43838 -4.76474,6.92827 -6.67165,10.68129 0,0 -6.73488,3.04707 -6.73488,3.04707 z"
       inkscape:connector-curvature="0" />
    <path
       id="path3884-4-2"
       d="m 511.62508,289.54214 c 2.03268,-3.77145 4.38431,-7.34966 6.82502,-10.86558 1.16334,-1.63189 2.34758,-3.24739 3.56158,-4.84179 0,0 6.67882,-2.8635 6.67882,-2.8635 v 0 c -1.26203,1.58287 -2.46902,3.20444 -3.65889,4.84251 -2.41448,3.43838 -4.76474,6.92827 -6.67165,10.68129 0,0 -6.73488,3.04707 -6.73488,3.04707 z"
       inkscape:connector-curvature="0" />
    <path
       id="path3884-7-5"
       d="m 519.47336,306.20244 c 2.03268,-3.77145 4.38431,-7.34966 6.82502,-10.86558 1.16334,-1.63189 2.34758,-3.24739 3.56158,-4.84179 0,0 6.67882,-2.8635 6.67882,-2.8635 v 0 c -1.26203,1.58287 -2.46902,3.20444 -3.65889,4.84251 -2.41448,3.43838 -4.76474,6.92827 -6.67165,10.68129 0,0 -6.73488,3.04707 -6.73488,3.04707 z"
       inkscape:connector-curvature="0" />
    <path
       id="path3884-8-6"
       d="m 527.12508,319.54214 c 2.03268,-3.77145 4.38431,-7.34966 6.82502,-10.86558 1.16334,-1.63189 2.34758,-3.24738 3.56158,-4.84179 0,0 6.67882,-2.8635 6.67882,-2.8635 v 0 c -1.26203,1.58287 -2.46902,3.20444 -3.65889,4.84251 -2.41448,3.43838 -4.76474,6.92827 -6.67165,10.68129 0,0 -6.73488,3.04707 -6.73488,3.04707 z"
       inkscape:connector-curvature="0" />
    <path
       id="path3884-40-6"
       d="m 501.32802,244.69904 c 2.03268,-3.77145 4.38431,-7.34966 6.82502,-10.86558 1.16334,-1.63189 2.34758,-3.2474 3.56158,-4.84179 0,0 6.67882,-2.8635 6.67882,-2.8635 v 0 c -1.26203,1.58287 -2.46902,3.20444 -3.65889,4.84251 -2.41448,3.43838 -4.76474,6.92827 -6.67165,10.68129 0,0 -6.73488,3.04707 -6.73488,3.04707 z"
       inkscape:connector-curvature="0" />
    <path
       id="path3884-5-4-9"
       d="m 509.3039,260.17864 c 2.03268,-3.77145 4.38431,-7.34966 6.82502,-10.86558 1.16334,-1.63189 2.34758,-3.24739 3.56158,-4.84179 0,0 6.67882,-2.8635 6.67882,-2.8635 v 0 c -1.26203,1.58287 -2.46902,3.20444 -3.65889,4.84251 -2.41448,3.43838 -4.76474,6.92827 -6.67165,10.68129 0,0 -6.73488,3.04707 -6.73488,3.04707 z"
       inkscape:connector-curvature="0" />
    <path
       id="path3884-50-6-3"
       d="m 513.3039,277.67864 c 2.03268,-3.77145 4.38431,-7.34966 6.82502,-10.86558 1.16334,-1.63189 2.34758,-3.24739 3.56158,-4.84179 0,0 6.67882,-2.8635 6.67882,-2.8635 v 0 c -1.26203,1.58287 -2.46902,3.20444 -3.65889,4.84251 -2.41448,3.43838 -4.76474,6.92827 -6.67165,10.68129 0,0 -6.73488,3.04707 -6.73488,3.04707 z"
       inkscape:connector-curvature="0" />
    <path
       id="path3884-4-1-4"
       d="m 524.3039,288.67864 c 2.03268,-3.77145 4.38431,-7.34966 6.82502,-10.86558 1.16334,-1.63189 2.34758,-3.24739 3.56158,-4.84179 0,0 6.67882,-2.8635 6.67882,-2.8635 v 0 c -1.26203,1.58287 -2.46902,3.20444 -3.65889,4.84251 -2.41448,3.43838 -4.76474,6.92827 -6.67165,10.68129 0,0 -6.73488,3.04707 -6.73488,3.04707 z"
       inkscape:connector-curvature="0" />
    <path
       id="path3884-7-0-8"
       d="m 532.15218,305.33894 c 2.03268,-3.77145 4.38431,-7.34966 6.82502,-10.86558 1.16334,-1.63189 2.34758,-3.24739 3.56158,-4.84179 0,0 6.67882,-2.8635 6.67882,-2.8635 v 0 c -1.26203,1.58288 -2.46902,3.20444 -3.65889,4.84251 -2.41448,3.43838 -4.76474,6.92827 -6.67165,10.68129 0,0 -6.73488,3.04708 -6.73488,3.04707 z"
       inkscape:connector-curvature="0" />
    <path
       id="path3884-8-2-9"
       d="m 539.8039,318.67864 c 2.03268,-3.77145 4.38431,-7.34966 6.82502,-10.86558 1.16334,-1.63189 2.34758,-3.24739 3.56158,-4.84179 0,0 6.67882,-2.8635 6.67882,-2.8635 v 0 c -1.26203,1.58287 -2.46902,3.20445 -3.65889,4.84251 -2.41448,3.43838 -4.76474,6.92827 -6.67165,10.68129 0,0 -6.73488,3.04707 -6.73488,3.04707 z"
       inkscape:connector-curvature="0" />
    <path
       id="path4005"
       d="m 385.46676,241.64077 c 1.16915,2.45472 2.09888,5.013 3.12734,7.52838 1.20455,3.09141 2.43704,6.17033 3.68131,9.24599 1.15151,2.69743 2.01795,5.49917 3.02615,8.25006 0.69866,2.18878 1.54413,4.32316 2.36406,6.46738 0.62331,1.77499 1.49964,3.44395 2.23277,5.17248 0.59878,1.33593 1.29558,2.62091 1.81541,3.99171 0.38821,1.16855 0.78836,2.33148 1.17532,3.50038 0.39299,0.99025 0.77767,1.97608 1.12166,2.98436 0.39075,1.10787 0.81925,2.19184 1.07069,3.34228 0.27838,0.85705 0.48399,1.7332 0.74003,2.59664 0.23521,0.97252 0.43126,1.95303 0.65151,2.92975 0.10927,0.92001 0.39613,1.79845 0.59612,2.69916 0.23468,0.6291 0.29692,1.37888 0.91737,1.74086 0.79615,-0.0843 1.60686,-0.078 2.38024,-0.29155 1.02112,-0.26914 2.0049,-0.70715 2.9375,-1.20191 0.98799,-0.40728 2.01127,-0.75981 3.04985,-1.01945 1.002,-0.36246 1.96047,-0.80237 3.00198,-1.04474 1.01373,-0.14747 2.01582,-0.20772 3.01889,-0.41499 0.99844,-0.20154 2.01642,-0.25507 3.03178,-0.28778 1.01545,0.0786 1.98083,-0.12648 2.97273,-0.29393 1.00233,-0.15871 2.01764,-0.19219 3.03037,-0.21372 1.00223,-0.0144 2.00462,-0.0109 3.00693,-0.01 1.11965,0.005 2.2393,0.006 3.35896,0.005 1.24231,-0.21916 2.49425,-0.34591 3.75212,-0.42804 1.1235,-0.0655 2.24914,-0.0731 3.37418,-0.0772 1.0066,-0.001 2.0132,8.1e-4 3.01981,0.002 1.0724,-7.3e-4 2.14479,0.004 3.21719,0.005 1.29627,0.003 2.59256,0.004 3.88884,0.003 1.24518,2.3e-4 2.49036,-5.6e-4 3.73554,-0.003 1.05243,-0.002 2.10487,-0.003 3.1573,-0.003 0.99823,0.20688 2.00273,0.35825 3.01884,0.43761 0.963,-0.045 1.867,0.15667 2.79932,0.35033 0.93386,0.13127 1.86642,0.33789 2.75805,0.64936 0.88871,0.14413 1.80862,0.88931 2.70739,0.57643 1.59178,-2.16822 0.1806,-0.17431 -5.95948,3.29369 -0.064,0.0362 0.12145,-0.094 0.15,-0.16176 0.0403,-0.0958 0.0477,-0.20417 0.0479,-0.30811 7e-4,-0.29099 -0.10033,-0.67599 -0.15864,-0.94854 -0.31813,-1.29619 -0.95317,-2.46968 -1.58785,-3.63118 -0.73089,-1.2034 -1.43049,-2.42305 -2.13308,-3.64293 -0.84606,-1.48965 -1.70297,-2.97205 -2.54215,-4.46558 -0.60129,-1.21515 -1.2974,-2.38118 -1.90819,-3.58997 -0.71487,-1.24519 -1.29826,-2.55008 -1.86178,-3.86851 -0.50831,-1.15786 -0.78343,-2.39537 -1.22089,-3.57875 -0.38745,-1.23636 -0.95504,-2.41068 -1.54885,-3.55962 -0.63243,-1.2444 -1.30453,-2.4677 -1.92104,-3.7204 -0.58054,-1.034 -0.97921,-2.15276 -1.46253,-3.23212 -0.53447,-1.47665 -1.12858,-2.93003 -1.70912,-4.38894 -0.55916,-1.39379 -1.10281,-2.7896 -1.56867,-4.2178 -0.44442,-1.26341 -0.94448,-2.50643 -1.39285,-3.76794 -0.45186,-1.19494 -0.90438,-2.3925 -1.28929,-3.61104 -0.29838,-0.95634 -0.67899,-1.87935 -1.02275,-2.81865 -0.34905,-0.92542 -0.78038,-1.81467 -1.19324,-2.71228 -0.3414,-0.83486 -0.72263,-1.65344 -1.12993,-2.45814 -0.37672,-0.55563 -0.91412,-0.92682 -1.55646,-1.10381 -0.77305,-0.21648 -1.51626,-0.467 -2.32203,-0.56766 -0.78254,-0.32531 -1.60628,-0.45802 -2.44428,-0.53034 -0.95942,-0.062 -1.92148,-0.059 -2.88244,-0.0602 -1.00764,-0.0468 -1.97887,0.002 -2.96488,0.19522 -1.00169,0.23909 -1.97387,0.54648 -3.00074,0.69041 -1.007,0.15423 -1.98952,0.41182 -3.00806,0.52469 -1.13426,0.021 -2.23563,0.2905 -3.35732,0.43778 -1.13472,0.0422 -2.23915,0.24953 -3.35802,0.42242 -1.1081,0.0749 -2.16649,0.40245 -3.26044,0.57319 -1.01165,0.13787 -2.03391,0.15302 -3.05313,0.16436 -0.88081,0.0346 -1.72907,0.30876 -2.61175,0.40617 -0.96002,0.085 -1.92469,0.0887 -2.8877,0.0943 -0.9998,0.003 -1.9996,-2e-5 -2.99939,-0.001 -1.0006,-0.001 -2.00119,-0.001 -3.00178,-0.002 -1.00004,-1.2e-4 -2.00008,-9e-5 -3.00012,-9e-5 -1,2e-5 -1.99999,2e-5 -2.99998,2e-5 -1,1e-5 -2,1e-5 -3,1e-5 -1,0 -2,0 -3,0 -1,0 -2,0 -3,0 -1,0 -2,0 -3,0 -0.4936,0.0195 -0.99382,-0.0679 -1.47359,0.0953 -0.14099,0.0479 -0.52852,0.27452 -0.3988,0.20138 6.22403,-3.50925 7.72391,-4.93548 5.71879,-3.08876 -0.0802,0.14171 -0.16036,0.28341 -0.24054,0.42511 0,0 -6.73892,3.12177 -6.73892,3.12177 v 0 c 0.0524,-0.19577 0.10474,-0.39154 0.15711,-0.58731 1.56941,-3.21952 5.61819,-4.64965 8.98919,-4.53637 1,0 2,0 3,0 1,0 2,0 3,0 1,0 2,0 3,0 1,0 2,0 3,0 0.99999,-1e-5 1.99998,-2e-5 2.99998,-2e-5 1.00007,0 2.00014,-1e-5 3.00021,2.4e-4 1.00072,3.3e-4 2.00143,9e-4 3.00214,0.002 0.99822,0.001 1.99648,0.004 2.99466,-0.007 0.94765,-0.0158 1.89851,-0.0348 2.83784,-0.17351 0.88269,-0.14633 1.75387,-0.38371 2.6577,-0.33106 0.99802,-0.0265 1.99879,-0.0699 2.98247,-0.25441 1.08337,-0.2096 2.15977,-0.4454 3.25964,-0.55768 1.11928,-0.18081 2.24184,-0.29248 3.36837,-0.41541 1.12018,-0.17068 2.23654,-0.35138 3.36731,-0.43842 1.00231,-0.1588 1.9844,-0.41778 2.99206,-0.54541 1.00825,-0.20334 1.98157,-0.54621 3.00246,-0.68805 1.00879,-0.13859 2.02444,-0.0934 3.04059,-0.0949 0.97904,0.007 1.96077,0.0121 2.93483,0.12259 0.84051,0.11806 1.64648,0.34572 2.46593,0.55726 0.82399,0.161 1.61044,0.43764 2.41109,0.68578 0.75435,0.34549 1.40748,0.86339 1.84811,1.57696 0.40714,0.81536 0.78998,1.64367 1.12762,2.49026 0.41935,0.91796 0.87055,1.82088 1.23541,2.76292 0.33168,0.95621 0.72153,1.88909 1.02418,2.85646 0.36016,1.21584 0.81101,2.40569 1.25858,3.59136 0.44799,1.26924 0.96024,2.51529 1.40507,3.78624 0.44803,1.41718 0.9792,2.80179 1.51932,4.18579 0.58258,1.44455 1.18568,2.88073 1.73231,4.33944 0.487,1.07076 0.86509,2.1905 1.43925,3.22085 0.60197,1.25294 1.28278,2.46366 1.90625,3.70546 0.61399,1.17064 1.20336,2.36804 1.6089,3.6284 0.44694,1.17141 0.70038,2.40283 1.18346,3.5612 0.55965,1.30289 1.13543,2.59339 1.8498,3.82111 0.60804,1.19953 1.29643,2.35869 1.8735,3.57568 0.82742,1.49607 1.68189,2.97499 2.54554,4.45066 0.70888,1.22404 1.418,2.44583 2.15389,3.65393 0.65841,1.22388 1.31383,2.45467 1.69697,3.79956 0.89561,3.62396 -0.0911,5.73228 -6.61719,6.06502 -0.98038,-0.14119 -1.8917,-0.56539 -2.84882,-0.81037 -0.90032,-0.24037 -1.80712,-0.43966 -2.72758,-0.58566 -0.90749,-0.19139 -1.818,-0.23383 -2.74282,-0.28791 -0.9957,-0.10959 -1.97785,-0.32313 -2.97767,-0.38117 -1.04972,-3.7e-4 -2.09943,-10e-4 -3.14915,-0.003 -1.24274,-0.002 -2.48547,-0.003 -3.72821,-0.003 -1.2986,-0.002 -2.5972,-2.3e-4 -3.89579,0.002 -1.07561,-7e-5 -2.15121,0.005 -3.22682,0.002 -1.00491,-10e-4 -2.00982,-0.004 -3.01473,7.7e-4 -1.11106,0.009 -2.22284,0.025 -3.3313,0.10828 -1.268,0.10469 -2.5232,0.31767 -3.79304,0.38978 -1.1219,-0.002 -2.2438,-0.002 -3.36571,-4.1e-4 -0.99772,-5e-5 -1.99571,-0.002 -2.99307,0.0285 -0.99483,0.0405 -1.98922,0.11104 -2.96963,0.29408 -1.005,0.16806 -2.0085,0.21688 -3.02727,0.22197 -0.99709,0.0578 -1.99005,0.16196 -2.9682,0.37133 -0.99199,0.16926 -2.01067,0.17029 -2.98094,0.46264 -1.00936,0.32242 -1.97385,0.77129 -2.99886,1.0485 -1.00753,0.31758 -2.02205,0.63475 -2.96385,1.12067 -0.98822,0.44098 -1.98768,0.881 -3.06498,1.05194 -0.91881,0.10559 -1.91704,0.27637 -2.75227,-0.21375 -0.67012,-0.60015 -0.91099,-1.36039 -1.17357,-2.20174 -0.18122,-0.90457 -0.49899,-1.77455 -0.58434,-2.6981 -0.20756,-0.96201 -0.43538,-1.91608 -0.63005,-2.8801 -0.26502,-0.88434 -0.47991,-1.77881 -0.76391,-2.65806 -0.21382,-1.12871 -0.6284,-2.18187 -1.01527,-3.25951 -0.35874,-1.00858 -0.73357,-2.00402 -1.14245,-2.99405 -0.36182,-1.16701 -0.75551,-2.32359 -1.13989,-3.48303 -0.49261,-1.37104 -1.20142,-2.64056 -1.78169,-3.97425 -0.7215,-1.74427 -1.58999,-3.42777 -2.21542,-5.21208 -0.80455,-2.15458 -1.67678,-4.28508 -2.344,-6.4892 -0.99146,-2.75072 -1.82538,-5.55703 -2.97237,-8.2506 -1.23971,-3.07597 -2.47555,-6.15195 -3.67758,-9.2428 -1.02885,-2.48838 -1.95407,-5.03273 -3.23191,-7.40725 0,0 6.45505,-3.6754 6.45505,-3.6754 z"
       inkscape:connector-curvature="0" />
    <path
       id="path4007"
       d="m 414.06044,364.47149 c -1.10111,1.27844 -2.37778,2.36221 -3.77363,3.30115 -2.36577,1.19699 -6.19481,4.787 -9.71293,4.32891 -1.06484,-0.30285 -1.86784,-0.94228 -2.60716,-1.73772 -0.91032,-0.92936 -1.49955,-2.03438 -1.86897,-3.27011 -0.3382,-1.31625 -0.38163,-2.67624 -0.40403,-4.02719 0.0185,-1.73876 0.69136,-3.34864 1.49555,-4.85838 0.84255,-1.4481 1.94242,-2.71632 3.33245,-3.65286 4.24286,-2.67806 6.18742,-4.36341 10.47742,-4.6802 1.38374,0.0379 2.69858,0.52535 3.93297,1.11888 1.12628,0.61747 2.22671,1.24482 3.09405,2.20424 1.03192,1.21555 1.55797,2.73368 1.90557,4.26556 0.40587,2.24511 -0.56267,4.09401 -1.78639,5.8916 -0.91218,1.20159 -1.98486,2.26321 -3.0954,3.27827 0,0 -6.82728,2.77232 -6.82728,2.77232 v 0 c 1.15065,-0.9513 2.21857,-1.99544 3.19172,-3.12978 1.18747,-1.59655 2.29504,-3.22895 2.00786,-5.31684 -0.29681,-1.40928 -0.75739,-2.80863 -1.72914,-3.90705 -0.83752,-0.84954 -1.89101,-1.41233 -2.94301,-1.95859 -1.1749,-0.50375 -2.39481,-0.9314 -3.69524,-0.80929 -0.70784,0.0888 -1.39995,0.1844 -2.08292,0.40094 -2.40692,0.7631 -6.05576,3.67551 4.45999,-2.78733 -1.47652,0.74154 -2.61251,1.92392 -3.5107,3.30672 -0.8302,1.37282 -1.51094,2.86778 -1.63368,4.4888 0.0198,1.28857 0.0319,2.58812 0.3156,3.85195 0.31351,1.13301 0.86148,2.11965 1.70584,2.95137 0.63768,0.64645 1.35611,1.18826 2.29541,1.26198 2.94652,-0.17616 7.56525,-3.55356 -3.21917,2.69039 1.43409,-0.82867 2.72729,-1.84787 3.83664,-3.0834 0,0 6.83858,-2.89434 6.83858,-2.89434 z"
       inkscape:connector-curvature="0" />
    <path
       id="path4009"
       d="m 501.53051,364.45667 c -1.75126,0.5964 -3.53989,0.9006 -5.38441,0.74449 -1.62843,-0.25139 -2.72696,-1.22277 -3.63906,-2.52522 -0.84322,-1.41064 -1.24929,-3.02711 -1.52318,-4.63311 -0.31491,-1.74569 -0.19901,-3.49521 0.18263,-5.21593 0.19434,-0.61145 0.30855,-1.05984 0.60061,-1.6328 1.51821,-2.9785 6.45041,-4.68966 8.46002,-5.85646 1.53994,-0.4715 3.17601,-0.58142 4.77472,-0.45294 1.53727,0.11855 2.99041,0.55589 4.32801,1.31139 1.35477,0.94715 2.26152,2.27917 3.015,3.72122 0.62836,1.4181 1.05295,2.88915 1.27617,4.42101 0.30521,1.74413 0.0316,3.40507 -0.55638,5.05193 -2.19694,4.62046 -6.37907,5.87698 -10.84816,8.42382 -1.1361,0.53614 -2.3377,0.88034 -3.56016,1.14709 0,0 5.87787,-4.48666 5.87787,-4.48666 v 0 c 1.17838,-0.31217 2.33576,-0.69396 3.42045,-1.26095 -1.77616,1.04798 -3.5513,2.09768 -5.32848,3.14393 -0.32586,0.19183 0.66751,-0.35993 0.9745,-0.58071 1.17623,-0.84586 2.10288,-2.02136 2.77886,-3.28896 0.65134,-1.51461 0.96003,-3.05121 0.69363,-4.69994 -0.1866,-1.45602 -0.56188,-2.85301 -1.14918,-4.20259 -0.67617,-1.31874 -1.5062,-2.53986 -2.793,-3.33482 -1.28984,-0.64803 -2.6841,-0.98544 -4.12902,-1.05018 -1.54367,-0.0206 -3.1342,0.0818 -4.53828,0.78265 1.89408,-1.11392 3.78444,-2.2342 5.68225,-3.34177 0.21409,-0.12494 -0.4356,0.24106 -0.63086,0.39377 -0.85431,0.66808 -1.36868,1.5813 -1.69281,2.60008 -0.43955,1.62272 -0.59084,3.27824 -0.31233,4.94786 0.2356,1.49924 0.59356,3.01144 1.37067,4.33118 0.82489,1.1322 1.8106,1.88143 3.26089,1.97481 1.80996,0.0156 3.55411,-0.35655 5.25146,-0.98668 0,0 -5.86243,4.55449 -5.86243,4.55449 z"
       inkscape:connector-curvature="0" />
    <path
       id="path4013"
       d="m 388.93284,354.81911 c 0.62869,2.79728 1.24659,5.59734 1.83959,8.40246 0.49054,2.49212 1.27506,4.9091 1.92594,7.35961 0.35596,1.31353 0.60374,2.66113 0.98185,3.96774 0.30101,0.90073 1.01981,1.11222 1.87967,1.21556 1.72637,0.17879 3.4449,-0.1607 5.15107,-0.3861 2.55561,-0.40483 5.08908,-0.92808 7.63276,-1.39712 2.26327,-0.49272 4.50679,-1.04871 6.80301,-1.36653 0,0 -5.88602,4.41051 -5.88602,4.41051 v 0 c -2.27395,0.36129 -4.50391,0.92824 -6.76247,1.37145 -2.55022,0.48974 -5.10088,0.97881 -7.66764,1.37607 -1.77457,0.24581 -3.57842,0.55652 -5.36564,0.24199 -1.07347,-0.28161 -1.91129,-0.81374 -2.30729,-1.90449 -0.39039,-1.31555 -0.59135,-2.69183 -0.93933,-4.01997 -0.61103,-2.47838 -1.36993,-4.92084 -1.86603,-7.4279 -0.58153,-2.77455 -1.18718,-5.54829 -1.9263,-8.28533 0,0 6.50683,-3.55795 6.50683,-3.55795 z"
       inkscape:connector-curvature="0" />
    <path
       id="path4015"
       d="m 481.84613,348.44573 c 0.25717,3.23809 0.76966,6.44056 1.43163,9.61808 0.48354,2.54736 1.14321,5.0535 2.14717,7.44507 0.46009,0.86906 0.8094,1.90528 1.6234,2.5129 1.0561,0.4424 2.25564,0.15675 3.35864,0.0684 2.35296,-0.28377 4.6824,-0.71548 7.01611,-1.12226 2.2091,-0.38517 4.44764,-0.53405 6.68563,-0.61142 1.17817,-0.0289 0.59387,-0.0183 1.75288,-0.0323 0,0 -5.96786,4.34936 -5.96786,4.34936 v 0 c -1.14679,0.0199 -0.56972,0.007 -1.7312,0.038 -2.20819,0.0931 -4.4142,0.26374 -6.59089,0.66493 -2.36017,0.4167 -4.72101,0.84413 -7.10524,1.10156 -1.27645,0.099 -2.64393,0.3009 -3.73816,-0.5191 -0.82154,-0.78457 -1.2908,-1.82153 -1.75409,-2.84454 -0.96009,-2.46355 -1.60568,-5.02759 -2.08608,-7.6269 -0.67097,-3.18478 -1.18314,-6.39222 -1.61458,-9.61747 0,0 6.57264,-3.42433 6.57264,-3.42433 z"
       inkscape:connector-curvature="0" />
    <path
       id="path4017"
       d="m 291.75701,188.50559 c -0.24613,3.73311 0.3681,7.46086 0.97931,11.13153 0.60568,3.50365 1.49398,6.94668 2.37646,10.38783 0.28103,0.72602 0.22503,2.00029 0.944,2.52533 0.16585,0.12111 0.47636,0.0628 0.64394,0.0528 1.43122,-0.40078 2.91052,-0.52522 4.38657,-0.62788 2.74695,-0.0267 5.46506,-0.18413 8.18377,-0.58413 3.41207,-0.57244 6.72183,-1.62755 10.03753,-2.59558 1.01049,-0.30739 2.03944,-0.53871 3.07377,-0.74704 0,0 -5.88267,4.46244 -5.88267,4.46244 v 0 c -1.00031,0.21788 -1.99645,0.45309 -2.97886,0.74328 -3.32624,0.94805 -6.6501,1.97037 -10.07557,2.49552 -2.75337,0.37137 -5.51191,0.48516 -8.28503,0.6063 -1.52395,0.14403 -3.031,0.51225 -4.55709,0.50821 -1.56938,-0.56574 -1.63774,-1.87994 -1.94738,-3.35405 -0.79243,-3.49217 -1.6487,-6.97151 -2.27656,-10.49886 -0.63367,-3.70298 -1.23912,-7.43422 -1.25583,-11.20112 0,0 6.63364,-3.30461 6.63364,-3.30461 z"
       inkscape:connector-curvature="0" />
    <path
       id="path4019"
       d="m 309.62122,201.05921 c -1.5736,0.70061 -3.15914,1.34245 -4.82996,1.76944 -1.62457,0.25801 -2.91904,-0.50587 -4.1242,-1.49715 -1.44656,-1.34751 -2.25634,-3.11765 -2.80679,-4.98143 -0.66771,-2.79656 -0.34028,-4.92499 0.8183,-7.51981 0.91482,-1.53614 2.10999,-2.97154 3.67958,-3.88093 7.10163,-4.11456 4.88425,-3.22696 8.65265,-4.61332 1.89977,-0.5519 3.94533,-1.03782 5.87368,-0.29731 0.35245,0.13534 0.66866,0.35077 1.00299,0.52616 2.44809,1.68682 3.21117,4.08083 3.73714,6.87762 0.19979,2.41044 -0.28415,4.83984 -1.97133,6.6626 -0.29007,0.31338 -0.63677,0.56914 -0.95515,0.85371 -3.67841,2.42607 -6.59619,4.58819 -10.75415,5.01189 0,0 5.90332,-4.41048 5.90332,-4.41048 v 0 c 0.9101,-0.15377 1.10849,-0.15198 2.03109,-0.472 2.29632,-0.79651 4.87676,-2.69282 -3.98353,2.60049 0.33793,-0.24007 0.70318,-0.44572 1.01381,-0.72021 1.7696,-1.56375 2.39506,-3.80302 2.27204,-6.09788 -0.41884,-2.48307 -1.15884,-4.86761 -3.43247,-6.25045 -0.30242,-0.12876 -0.59223,-0.29248 -0.90725,-0.38627 -1.86843,-0.55628 -3.8183,0.0462 -5.59479,0.62682 -2.98477,1.22966 -1.6467,0.74645 3.93369,-2.57852 0.37193,-0.22161 -0.75376,0.42894 -1.10733,0.67879 -0.75402,0.53282 -1.34941,1.08609 -1.94296,1.79192 -0.28069,0.33379 -0.52068,0.69977 -0.78101,1.04965 -1.26093,2.39829 -1.63821,4.3473 -1.0275,7.02165 0.49374,1.72385 1.22628,3.36781 2.60752,4.56986 1.12789,0.85589 2.29914,1.33864 3.72432,0.92964 1.6438,-0.48925 3.22802,-1.15282 4.76891,-1.90443 0,0 -5.80062,4.63995 -5.80062,4.63995 z"
       inkscape:connector-curvature="0" />
    <path
       id="path4025"
       d="m 337.30903,183.85224 c 0.091,2.78777 0.4309,5.55944 0.62862,8.34139 0.28095,2.96211 0.48541,5.9302 0.85965,8.88229 0.29956,1.41996 0.43256,3.00584 1.294,4.22223 0.78945,0.66938 2.35325,0.30137 3.29934,0.15367 2.41142,-0.2476 4.79362,-0.68384 7.16687,-1.17087 2.16632,-0.60063 4.3801,-1.0579 6.47274,-1.89087 1.21596,-0.37398 2.29658,-1.06048 3.52542,-1.38655 0.15693,-0.0279 0.31386,-0.0557 0.47079,-0.0836 0,0 -5.91444,4.50958 -5.91444,4.50958 v 0 c -0.14453,0.0431 -0.28906,0.0862 -0.4336,0.12929 -1.1583,0.44107 -2.27207,0.99665 -3.45653,1.37355 -2.12513,0.72451 -4.31608,1.24223 -6.4976,1.76593 -2.40448,0.47262 -4.81702,0.89076 -7.25263,1.16913 -1.35502,0.13453 -2.81564,0.34976 -3.78954,-0.81044 -0.8777,-1.36046 -1.10719,-3.00134 -1.38502,-4.56952 -0.34558,-2.97589 -0.50904,-5.96658 -0.81362,-8.94706 -0.19978,-2.77922 -0.5261,-5.54327 -0.79251,-8.31611 0,0 6.61806,-3.37207 6.61806,-3.37207 z"
       inkscape:connector-curvature="0" />
    <path
       id="path4027"
       d="m 359.52245,192.46435 c -3.13128,2.62896 -6.66925,5.07032 -10.54314,6.39392 -1.16023,0.37825 -2.24594,0.023 -3.17062,-0.70625 -0.86123,-0.76391 -1.46963,-1.74876 -2.17106,-2.65073 -0.64556,-0.88971 -1.35763,-1.7188 -1.8642,-2.69993 -0.47146,-1.02011 -0.52468,-2.1383 -0.57151,-3.24181 -0.0355,-1.26226 0.0991,-2.53982 0.48335,-3.7443 0.40564,-1.18832 1.06007,-2.19247 1.94403,-3.0719 3.03178,-2.77917 6.26432,-4.25183 10.01838,-5.05759 1.29446,-0.29941 2.57358,-0.5985 3.89738,-0.75026 1.25278,-0.10212 2.51014,-0.11741 3.76633,-0.12476 1.15599,-0.0572 2.18043,0.2952 3.09519,0.97845 0.99827,0.89992 1.43859,2.13204 1.83739,3.3751 0.43077,1.53425 0.49889,3.11487 0.40391,4.69505 -0.14264,1.62016 -0.67661,3.09789 -1.62735,4.40846 -0.64138,0.72497 -1.37619,1.41035 -2.22197,1.89508 -7.00598,4.01524 -4.44844,3.24084 -7.75167,4.15869 -0.97889,0.31617 -1.98599,0.51699 -2.99949,0.68053 0,0 5.91355,-4.4583 5.91355,-4.4583 v 0 c 0.99062,-0.19477 1.97391,-0.42517 2.92716,-0.7633 2.74885,-1.10099 0.67378,-0.30914 -4.99133,3.04559 -0.21594,0.12787 0.45293,-0.21864 0.66544,-0.35213 0.58872,-0.36981 1.13372,-0.8381 1.64237,-1.30819 1.06463,-1.11903 1.63653,-2.46304 1.83334,-3.99827 0.12642,-1.49197 0.10547,-2.98042 -0.29274,-4.43749 -0.33678,-1.08488 -0.68001,-2.20641 -1.60305,-2.94273 -0.86306,-0.5356 -1.82612,-0.65823 -2.83351,-0.6077 -1.23643,0.0132 -2.47641,0.0328 -3.70438,0.19226 -1.29889,0.19412 -2.56348,0.53133 -3.84665,0.80604 -0.63298,0.16399 -1.2953,0.29956 -1.90556,0.53937 -0.20091,0.0789 -0.77186,0.38511 -0.58664,0.27427 10.88008,-6.51107 7.20686,-4.25909 5.22913,-3.04365 -0.93945,0.73609 -1.68256,1.60251 -2.06614,2.75476 -0.54336,1.0482 -0.61655,2.30029 -0.62537,3.46374 0.0287,0.99609 0.0397,2.01691 0.42728,2.95211 0.47272,0.94265 1.17848,1.72446 1.77868,2.58563 0.65984,0.84436 1.23194,1.77897 2.07594,2.45649 0.88245,0.5442 1.76878,0.53691 2.72031,0.12486 2.63174,-1.16142 0.69108,-0.33312 -5.01601,3.02032 -0.24511,0.14402 0.50166,-0.26845 0.7433,-0.41822 0.52108,-0.32297 1.01829,-0.6922 1.48938,-1.08385 0.21218,-0.17639 0.41222,-0.3669 0.61833,-0.55036 0,0 6.88222,-2.789 6.88222,-2.789 z"
       inkscape:connector-curvature="0" />
    <path
       id="path4029"
       d="m 395.58114,105.69779 c 2.22416,1.15698 4.3435,2.48554 6.40859,3.90406 2.48475,1.81859 4.82942,3.80979 7.33506,5.60061 2.52515,1.77997 5.083,3.51326 7.69438,5.16468 1.61927,1.10368 3.32034,2.07185 4.99205,3.09115 0.87142,0.47139 1.73116,1.00096 2.45158,1.68584 0.15777,0.60786 0.45684,-0.24674 0.34969,-0.1903 -2.08739,1.09961 -4.07636,2.3781 -6.14911,3.50505 -0.11535,0.0627 0.18124,-0.19159 0.25481,-0.30034 0.10248,-0.15148 0.18073,-0.31802 0.27109,-0.47704 0.86307,-1.71979 1.64865,-3.47647 2.40955,-5.24333 1.05455,-2.56525 2.28955,-5.04993 3.61703,-7.48343 1.1671,-2.14384 2.31651,-4.29773 3.59668,-6.377 0.5708,-0.91384 1.12148,-1.83987 1.68457,-2.75868 0.41437,-0.79953 0.81439,-1.62112 0.95534,-2.51705 -0.0896,-0.76294 -0.91147,-1.20495 -1.51352,-1.55676 -0.90927,-0.60806 -1.9283,-0.99296 -2.9207,-1.43294 -1.02475,-0.327472 -2.01364,-0.742455 -3.01261,-1.139081 -0.97636,-0.511316 -2.00137,-0.907858 -3.00611,-1.354193 -1.03924,-0.4764 -2.11375,-0.841487 -3.20342,-1.185954 -1.08274,-0.447332 -2.20966,-0.762959 -3.27843,-1.244817 -1.02548,-0.356042 -2.01596,-0.794506 -3.01945,-1.206225 -1.01286,-0.464112 -1.99517,-0.991094 -3.00638,-1.458223 -0.97828,-0.475922 -1.93043,-0.988691 -2.87694,-1.522309 -0.8501,-0.326731 -1.59543,-0.85857 -2.43269,-1.206881 -0.75858,-0.448598 -1.51173,-0.909524 -2.30313,-1.299229 -0.21442,-0.09763 -0.71783,-0.588713 -1.02272,-0.493874 -0.0841,0.02617 -0.23806,0.251639 -0.16033,0.21015 5.7002,-3.042542 8.09958,-4.853966 5.82433,-3.159336 -1.66391,2.113739 -2.89706,4.532273 -4.20261,6.874207 -1.92927,3.443596 -3.69511,6.971948 -5.72654,10.358235 -1.18624,2.0826 -2.5807,3.99263 -4.47283,5.47347 -0.11616,0.0858 -0.23232,0.17163 -0.34848,0.25744 0,0 -6.9339,2.69717 -6.9339,2.69717 v 0 c 0.1346,-0.0743 0.2692,-0.14851 0.4038,-0.22277 0.26653,-0.18808 1.19913,-0.84078 1.39273,-1.00399 1.38452,-1.16724 2.34217,-2.75749 3.31012,-4.26137 2.09207,-3.35497 3.87357,-6.875886 5.77033,-10.341424 1.27132,-2.339061 2.49573,-4.70888 3.95506,-6.938917 1.7502,-2.941408 5.61748,-5.600847 8.42572,-3.528391 0.77058,0.411344 1.52372,0.853296 2.29223,1.268156 0.82529,0.414019 1.63027,0.868007 2.46391,1.266684 0.92151,0.540024 1.88139,1.003945 2.83736,1.479578 0.9912,0.485952 1.97822,0.981146 2.98808,1.42782 0.99806,0.426702 2.01384,0.805632 3.02005,1.211719 1.06727,0.428539 2.15964,0.788341 3.2356,1.194025 1.1016,0.367919 2.19242,0.751853 3.24913,1.237059 1.01201,0.419817 1.99707,0.894132 2.99751,1.340444 0.99821,0.41034 2.0187,0.757185 3.02152,1.154586 1.03185,0.434485 2.04198,0.918032 2.98586,1.524836 0.84718,0.563131 1.70423,1.198065 1.92412,2.25209 -0.0141,1.011775 -0.42289,1.899235 -0.82001,2.812985 -0.50618,0.97919 -1.17478,1.86526 -1.71554,2.82511 -1.39149,2.02029 -2.50952,4.21504 -3.69017,6.3614 -1.34984,2.39238 -2.57073,4.85738 -3.61801,7.39787 -0.73166,1.76787 -1.50545,3.51659 -2.31075,5.2521 -0.0771,0.17405 -0.15488,0.34781 -0.2313,0.52217 -0.0626,0.14284 -0.0552,0.34416 -0.18575,0.4294 -2.9876,1.95006 -4.99564,5.62124 -7.40706,3.49164 -0.71689,-0.61808 -1.52035,-1.12344 -2.34173,-1.5907 -1.65634,-1.0259 -3.306,-2.06034 -4.91841,-3.15443 -2.60129,-1.68321 -5.1617,-3.42805 -7.69734,-5.2083 -2.49755,-1.79328 -4.83363,-3.79111 -7.33484,-5.57922 -2.07004,-1.39072 -4.19197,-2.70919 -6.46241,-3.75234 0,0 6.20534,-4.08289 6.20534,-4.08289 z"
       inkscape:connector-curvature="0" />
    <path
       id="path4031"
       d="m 229.73792,34.053007 c 0.17031,-1.941347 0.55808,-3.847654 0.96763,-5.749141 0.25731,-1.110264 0.66624,-2.176666 1.23477,-3.163528 0.45723,-0.836213 1.22252,-1.412014 1.93398,-2.016753 0.7839,-0.590219 1.55458,-1.200092 2.35928,-1.761567 2.54387,-1.463486 5.02328,-3.062699 7.65996,-4.347728 0.4684,-0.228284 0.96757,-0.368848 1.44364,-0.580762 1.0222,-0.366624 1.96274,-0.912076 2.99236,-1.260077 0.99936,-0.294532 2.04328,-0.334859 3.07733,-0.361309 1.1206,-0.07813 2.20737,0.04647 3.283,0.360929 1.3147,0.324777 2.45688,1.083858 3.54989,1.854657 0.99237,0.825201 1.96311,1.672422 2.90184,2.5583 0.75634,0.909504 1.6233,1.709481 2.39687,2.603034 0.85095,0.966392 1.53958,2.063403 2.23214,3.145435 0.9133,1.341325 1.61066,2.814027 2.34302,4.258065 0.74741,1.278973 1.30716,2.653832 1.95495,3.982939 0.59315,1.203309 1.17958,2.40608 1.72731,3.630525 0.47782,1.103111 0.8471,2.247758 1.25161,3.378305 0.36629,1.087387 0.7159,2.179509 1.0906,3.264317 0.49836,1.149221 0.76096,2.381464 1.26188,3.528687 0.39551,0.927143 0.80644,1.847013 1.21735,2.767502 0.3624,1.002552 0.82376,1.964841 1.19101,2.964989 0.44775,0.836706 0.72625,1.720079 0.87994,2.652575 0.21815,0.817135 0.40151,1.641933 0.63586,2.454713 0.21189,0.778309 0.43824,1.614865 0.13033,2.391877 -7.62125,4.206936 -4.63531,4.076539 -8.92327,2.888513 -0.92175,-0.480489 -1.97405,-0.527077 -2.94001,-0.848643 -0.82921,-0.308802 -1.70666,-0.388557 -2.58229,-0.437675 -0.96497,-0.254828 -1.94957,-0.393828 -2.94282,-0.470196 -0.99297,-0.06032 -1.98827,-0.05952 -2.98266,-0.06122 -0.99992,2.49e-4 -1.99984,0.0024 -2.99976,0.0035 -1.00009,9.58e-4 -2.00018,0.0011 -3.00026,0.0012 -1.01886,-6.4e-4 -2.03773,0.002 -3.05658,-0.0023 -1.12844,-0.0022 -2.25688,-6.7e-5 -3.38532,9.88e-4 -1.0101,-0.04586 -2.0398,0.109148 -3.03377,-0.09702 -1.04393,-0.459077 -1.50785,-1.523548 -1.90571,-2.525833 -0.49478,-1.131647 -0.70574,-2.354017 -1.01439,-3.543116 -0.2441,-0.933984 -0.55483,-1.850925 -0.84448,-2.772795 -0.24724,-0.887474 -0.51073,-1.765345 -0.78276,-2.645547 -0.26906,-0.909149 -0.49026,-1.830281 -0.73553,-2.74568 -0.19784,-0.921667 -0.58919,-1.778892 -0.84289,-2.683381 -0.30235,-0.784693 -0.57335,-1.580039 -0.91407,-2.349405 -0.40745,-0.95373 -0.71089,-1.95307 -0.99169,-2.951071 -0.23314,-1.007892 -0.51435,-2.004295 -0.82891,-2.989634 -0.2071,-0.924464 -0.55974,-1.804308 -0.79393,-2.720784 -0.25788,-0.668244 -0.3744,-1.267355 -0.28162,-1.976188 0,0 6.74937,-3.130388 6.74937,-3.130388 v 0 c -0.0821,0.08281 -0.21062,0.137404 -0.24613,0.248434 -0.13364,0.417889 0.27435,0.929073 0.32615,1.32296 0.20778,0.90765 0.57528,1.765826 0.75848,2.680401 0.31695,0.994884 0.6221,1.995766 0.84493,3.016227 0.25573,0.964332 0.56015,1.92328 0.93786,2.845836 0.37128,0.800775 0.656,1.632671 0.97871,2.453372 0.23043,0.909022 0.6385,1.757442 0.8305,2.678289 0.26745,0.902944 0.45569,1.830619 0.73833,2.72951 0.2579,0.879092 0.54078,1.74516 0.76942,2.632606 0.31583,0.928839 0.59244,1.878898 0.85282,2.823081 0.29655,1.162566 0.49409,2.358992 0.97659,3.463966 0.28403,0.752936 0.6052,1.694409 1.49647,1.847409 0.98734,0.05154 1.97745,0.0061 2.96575,0.0226 1.12752,0.0011 2.25504,0.0032 3.38256,0.001 1.021,-0.0043 2.04201,-0.0017 3.06301,-0.0025 0.99994,-2.05e-4 1.99987,-5.33e-4 2.99981,-0.0018 1.00078,-0.0013 2.00157,-0.0041 3.00235,1.65e-4 1.00791,0.008 2.01748,0.01799 3.02157,0.115466 0.98775,0.111147 1.95625,0.320356 2.93932,0.457573 0.91014,0.09069 1.80364,0.256743 2.66935,0.560748 0.99432,0.237708 1.98254,0.479341 2.93746,0.853546 3.72892,1.144466 3.86576,-0.430728 -4.18394,3.990184 0.0619,0.0161 0.35193,0.137675 0.44257,0.02315 0.30417,-0.384325 -0.0854,-1.14186 -0.12897,-1.534657 -0.24827,-0.843885 -0.44481,-1.696262 -0.68485,-2.542955 -0.11734,-0.894133 -0.36993,-1.730946 -0.80188,-2.528279 -0.34658,-0.988963 -0.82148,-1.926022 -1.16592,-2.916333 -0.4092,-0.923935 -0.83741,-1.838539 -1.21487,-2.776239 -0.50494,-1.167719 -0.77377,-2.416905 -1.28393,-3.583149 -0.37034,-1.081666 -0.74831,-2.159163 -1.09171,-3.249425 -0.40818,-1.110449 -0.745,-2.248065 -1.21136,-3.337436 -0.54925,-1.214868 -1.12547,-2.414352 -1.70696,-3.614354 -0.65102,-1.324689 -1.20458,-2.698717 -1.94623,-3.977843 -0.71354,-1.423492 -1.39737,-2.873412 -2.30536,-4.186676 -0.68841,-1.044226 -1.36912,-2.105246 -2.20177,-3.042036 -0.76206,-0.868211 -1.598,-1.665511 -2.3482,-2.544875 -0.9178,-0.85348 -1.8588,-1.681509 -2.83298,-2.470424 -1.05592,-0.708593 -2.1553,-1.363512 -3.41702,-1.623766 -1.0492,-0.21267 -2.10231,-0.256925 -3.17077,-0.179656 -0.99704,0.0595 -1.99657,0.164351 -2.92961,0.548409 -0.99445,0.422102 -1.96646,0.897015 -2.97715,1.281511 -0.48214,0.19175 -0.94375,0.39704 -1.40661,0.631392 -0.1518,0.07685 -0.60265,0.315672 -0.45579,0.229762 2.68726,-1.572001 8.16375,-4.714122 5.53383,-3.204891 -0.88391,0.42333 -1.59352,1.115521 -2.39394,1.673837 -0.73688,0.510152 -1.42668,1.099107 -2.04565,1.750234 -0.55728,0.949333 -1.09453,1.896419 -1.37789,2.976848 -0.4216,1.867998 -0.9007,3.733376 -0.97777,5.657308 0,0 -6.64378,3.302186 -6.64378,3.302186 z"
       inkscape:connector-curvature="0" />
    <path
       id="path4033"
       d="m 249.71132,57.035481 c -0.60122,3.04827 -0.68655,6.162858 -0.90654,9.253129 0.0243,2.128186 -0.76656,4.429251 -0.077,6.510335 0.83897,0.816523 2.62161,0.58769 3.71097,0.60287 3.05921,0.256554 6.11781,0.32858 9.18469,0.237643 2.69119,-0.136672 5.35027,-0.505548 8.0032,-0.95482 0.72024,-0.07484 1.44196,-0.274869 2.16972,-0.28569 0.59159,-0.0088 0.83118,0.188939 1.41081,-0.0049 2.05935,-1.914674 -0.74135,0.740906 -5.4756,2.910783 -0.30783,0.141088 0.41271,-0.539208 0.5832,-0.831778 0.23789,-0.408222 0.43578,-0.838691 0.63885,-1.265303 0.30344,-0.637481 1.2255,-2.733121 1.48634,-3.322262 1.2382,-2.600101 2.36565,-5.25072 3.58622,-7.858655 0,0 6.66251,-3.025407 6.66251,-3.025407 v 0 c -1.28905,2.589545 -2.4173,5.255012 -3.6656,7.864358 -2.21084,5.134943 -2.54206,8.325177 -9.78026,9.978061 -1.18301,-0.04283 -2.34366,0.02172 -3.50957,0.269138 -2.64627,0.410465 -5.30712,0.698981 -7.98404,0.817508 -3.09485,0.06803 -6.17972,-0.05833 -9.27058,-0.214366 -1.5473,-0.03246 -3.28953,0.10396 -4.24991,-1.338498 -0.73498,-2.203777 0.0157,-4.579899 0.0719,-6.836911 0.24945,-3.086605 0.31553,-6.189888 0.74884,-9.260446 0,0 6.66187,-3.244827 6.66187,-3.244827 z"
       inkscape:connector-curvature="0" />
    <path
       id="path4035"
       d="m 239.56921,80.252391 c -0.78948,-2.530602 -1.78423,-4.991333 -2.91295,-7.38778 -1.96437,-3.983093 -4.35673,-7.734413 -6.74773,-11.470126 -2.03126,-3.152206 -4.26792,-6.176951 -6.14022,-9.430554 -1.08793,-1.890557 -1.23344,-2.303996 -2.12268,-4.213243 -0.67837,-1.58355 -1.29452,-3.243918 -1.09764,-5.003253 0.0569,-0.508501 0.23818,-0.995247 0.35727,-1.49287 0,0 6.59587,-3.134837 6.59587,-3.134837 v 0 c -0.14689,0.44264 -0.35306,0.869848 -0.44068,1.32792 -0.31785,1.661621 0.25399,3.244188 0.86034,4.761388 0.83439,1.890329 0.9674,2.308339 2.01838,4.174316 1.83951,3.265999 4.08586,6.278686 6.13656,9.409755 2.43511,3.744042 4.89167,7.491549 6.91044,11.482208 1.16698,2.406648 2.16584,4.884584 3.08577,7.395739 0,0 -6.50273,3.581337 -6.50273,3.581337 z"
       inkscape:connector-curvature="0" />
    <path
       id="path4037"
       d="m 243.43956,94.02851 c 1.49962,-1.707784 3.03636,-3.379336 4.6785,-4.950993 2.37806,-2.090627 7.01112,-6.710948 9.52036,-5.305296 0.22703,0.127177 0.4091,0.321703 0.61366,0.482555 1.57413,1.722219 2.57694,3.897751 3.60203,5.973706 1.06334,2.234588 2.01663,4.517629 3.03042,6.774023 0.72061,1.524707 1.64111,2.93964 2.46905,4.405335 0.51689,0.79992 0.74595,1.82428 1.38376,2.53864 1.05093,0.41284 2.2583,0.39955 3.36757,0.30985 1.77967,-0.11066 3.52368,-0.47804 5.29092,-0.69968 1.44356,-0.22909 2.92742,-0.0817 4.36374,-0.32868 2.7045,-0.86777 8.68304,-4.675168 -3.23859,2.18004 0.81192,-0.35584 -0.0663,-1.27392 -0.36867,-1.72208 -1.20249,-1.76311 -2.31565,-3.59457 -3.32817,-5.473457 -0.98901,-1.838801 -1.74841,-3.782195 -2.55064,-5.70513 -0.48646,-1.152635 -0.94256,-2.317323 -1.46466,-3.454012 -0.34706,-1.133111 -1.00955,-1.196708 -2.07884,-1.462514 -2.07426,-0.667123 -4.16204,-0.691124 -6.29283,-0.363234 -1.13026,0.258577 -2.25252,0.550972 -3.38308,0.808255 -0.50741,0.115471 -1.23138,0.333397 -1.77758,0.209874 -0.25189,-0.05697 -0.46252,-0.229912 -0.69378,-0.344867 -0.16097,-0.203362 -0.32195,-0.406723 -0.48292,-0.610084 0,0 6.36132,-3.821405 6.36132,-3.821405 v 0 c 0.0909,0.09737 0.18171,0.194737 0.27256,0.292105 1.66853,0.348446 3.86491,-0.80692 5.58325,-0.922196 2.21253,-0.232622 4.38,-0.09396 6.51925,0.56483 1.13139,0.349069 2.11243,0.758076 2.44832,1.996019 0.51127,1.152946 0.95902,2.331525 1.43246,3.500806 0.77423,1.908974 1.49391,3.843409 2.47585,5.660708 0.994,1.857909 2.11581,3.654985 3.34196,5.368496 0.57077,0.802446 1.34381,1.740266 0.92108,2.770286 -2.5153,1.4673 -6.2465,4.3254 -9.64612,4.95986 -1.44338,0.10238 -2.89517,0.10463 -4.3304,0.31338 -1.77588,0.24089 -3.53975,0.58841 -5.33555,0.65317 -1.29983,0.0104 -2.74561,0.0238 -3.79545,-0.85198 -0.61674,-0.80074 -0.92814,-1.79267 -1.41455,-2.67423 -0.81883,-1.49624 -1.74344,-2.93571 -2.46056,-4.48653 -0.98975,-2.257478 -1.90905,-4.545497 -2.98087,-6.767043 -0.96542,-1.949585 -1.90966,-4.044878 -3.47924,-5.585195 -0.14967,-0.0682 -0.28727,-0.174761 -0.44903,-0.204598 -0.13162,-0.02428 -0.26574,0.03216 -0.39861,0.04824 1.95583,-1.157109 3.91166,-2.314218 5.8675,-3.471326 0.89941,-0.531461 -3.02122,1.837759 -2.11721,1.651734 -1.64404,1.521786 -3.19608,3.131353 -4.63763,4.848278 0,0 -6.83858,2.89434 -6.83858,2.89434 z"
       inkscape:connector-curvature="0" />
    <path
       id="path4041"
       d="m 249.43284,91.319114 c 0.71512,2.721916 1.826,5.319887 2.88258,7.922378 1.00236,2.579078 2.10475,5.116368 3.27138,7.624818 0.73649,1.44982 1.5983,2.85807 2.57688,4.15935 0.5277,0.67794 1.04223,1.35706 1.50623,2.08181 0.51834,0.55456 0.8169,1.26996 1.39208,1.76871 1.05194,0.52178 2.34871,0.44186 3.48952,0.37524 2.67623,-0.26262 5.30315,-0.76703 7.85295,-1.61994 2.60723,-0.95783 5.02311,-2.35178 7.43104,-3.71897 1.36689,-0.66052 0.68115,-0.36771 2.05452,-0.88473 0,0 -5.78076,4.54968 -5.78076,4.54968 v 0 c -1.31478,0.57135 -0.65546,0.25835 -1.97557,0.94403 -2.41384,1.36058 -4.86465,2.70168 -7.5022,3.58104 -2.61785,0.78343 -5.30434,1.29615 -8.03229,1.50233 -1.32837,0.008 -2.78562,0.0544 -3.87658,-0.82339 -0.5692,-0.58314 -0.96599,-1.29355 -1.48727,-1.91892 -0.45627,-0.71026 -0.95844,-1.37989 -1.45949,-2.05809 -0.96852,-1.36952 -1.83932,-2.82137 -2.57412,-4.32865 -1.15957,-2.52653 -2.24365,-5.08568 -3.24931,-7.67764 -1.05766,-2.621 -2.16508,-5.227064 -3.02642,-7.921112 0,0 6.50683,-3.557944 6.50683,-3.557944 z"
       inkscape:connector-curvature="0" />
    <path
       id="path4045"
       d="m 293.93079,62.247609 c 0.74434,2.17209 1.56569,4.319278 2.38193,6.465954 0.86836,2.005771 1.59534,4.066398 2.38336,6.103597 0.54482,1.38165 0.93395,2.826982 1.54233,4.182349 0.47513,0.981376 0.93315,1.96951 1.42173,2.944103 0.40987,0.879033 0.73835,1.789493 1.0719,2.699233 0.28973,0.779495 0.33003,1.718157 0.93514,2.336324 0.76089,0.456214 1.62875,0.187095 2.45122,0.08291 1.4131,-0.147894 2.83446,-0.185731 4.25392,-0.220069 1.25049,-0.02901 2.50132,-0.02411 3.75203,-0.02494 1.20019,-0.205262 2.40941,-0.345684 3.62353,-0.432706 1.05541,-0.06517 2.11319,-0.06925 3.1702,-0.07245 0.84011,-0.248994 1.70047,-0.372311 2.57155,-0.43981 0.9807,-0.0076 1.92723,-0.06152 2.88716,-0.251781 0.99788,-0.196555 2.01392,-0.253402 3.02797,-0.287911 0.62113,-0.09529 1.32994,0.140478 1.9236,-0.123473 0.11435,-0.05085 0.41553,-0.278291 0.3065,-0.216844 -2.05779,1.159753 -4.10294,2.341785 -6.1544,3.512678 0.5609,-0.564599 0.1352,-1.604921 -0.0323,-2.273246 -0.31424,-1.35633 -0.67743,-2.701113 -0.95033,-4.066696 -0.24038,-1.115925 -0.58594,-2.202041 -0.89656,-3.298792 -0.36687,-1.116291 -0.71848,-2.23826 -1.10761,-3.347135 -0.36527,-0.923871 -0.76668,-1.825757 -1.11006,-2.75999 -0.28169,-0.88498 -0.54982,-1.771925 -0.82551,-2.659332 -0.23491,-0.763887 -0.45371,-1.541107 -0.72563,-2.293218 -0.22438,-0.704099 -0.37143,-1.252573 -1.11579,-1.484863 -0.86207,-0.168666 -1.74735,-0.152482 -2.62203,-0.155022 -1.12144,3.86e-4 -2.24286,0.0066 -3.36429,0.0115 -1.12248,0.0068 -2.24497,0.0024 -3.36745,0.0029 -1.08813,0.0012 -2.17625,0.0024 -3.26438,0.003 -1.00619,4.97e-4 -2.01239,5.29e-4 -3.01858,5.59e-4 -1.11894,0.0033 -2.23785,-0.005 -3.35677,-0.0066 -1.19626,3.45e-4 -2.39252,0.0034 -3.58877,0.005 -1.01927,0.0013 -2.03855,0.0014 -3.05782,0.0016 -0.99815,7.1e-5 -1.9963,3.6e-5 -2.99446,2.1e-5 -0.96605,0.06157 -1.96736,-0.131736 -2.91216,0.102435 -0.13499,0.03374 -0.26929,0.07035 -0.40497,0.101217 -0.69109,0.157221 -0.15487,-0.0238 -0.74754,0.266585 -0.1142,0.05595 -0.45976,0.216332 -0.34953,0.152902 7.36115,-4.236128 8.01806,-4.647119 5.78314,-3.266768 -17.68195,10.139282 -0.8479,0.479425 -0.63631,0.358894 0.1063,-0.06055 -0.20364,0.13569 -0.30738,0.200531 -0.33537,0.209625 -0.54823,0.371891 -0.80422,0.67834 -0.57986,0.7259 -0.71016,1.651333 -0.94317,2.522879 -0.30107,1.072413 -0.37158,2.186423 -0.42244,3.293328 -0.0365,1.041786 -0.0328,2.084407 -0.0317,3.126666 -0.0833,1.138528 0.0845,2.232971 0.39555,3.32273 0.19334,0.958837 0.54576,1.85274 0.94257,2.741105 0.52239,0.900567 0.83293,1.873084 1.01625,2.891772 0.1007,0.890228 0.36449,1.746819 0.50159,2.631804 0.13929,0.7557 0.46018,1.446175 0.73108,2.157778 0.21327,0.837298 0.54852,1.620532 0.96665,2.373591 0.43675,0.818886 0.84129,1.662677 1.41887,2.393644 0.49666,0.747107 1.09506,1.41202 1.76929,2.001178 0.74259,0.591554 1.6265,0.795429 2.50949,1.067898 1.13367,0.315708 2.24706,0.699846 3.36324,1.073051 1.0207,0.242473 2.00822,0.588264 3.0422,0.776542 0.97883,0.14964 1.97109,0.158934 2.959,0.168494 0.99817,0.0042 1.99635,-4.39e-4 2.99452,-0.0026 1.00011,-0.0021 2.00021,-0.0025 3.00032,-0.0028 1.0278,0.01702 2.0139,-0.333488 2.99992,-0.576515 1.13407,-0.290343 2.24055,-0.635013 3.40449,-0.801286 1.04148,-0.01602 2.03943,-0.228174 3.0595,-0.405833 1.19291,-0.280486 2.22579,-0.868151 3.26865,-1.485615 -10.30626,6.166434 -6.45545,3.735639 -4.23358,2.354102 0,0 6.88377,-2.664384 6.88377,-2.664384 v 0 c -2.78205,1.691868 -5.4368,3.560691 -8.40417,4.966228 -1.08495,0.600412 -2.21673,1.095693 -3.44887,1.303288 -1.01572,0.18555 -2.03785,0.25767 -3.05964,0.39829 -1.13632,0.22517 -2.23519,0.58695 -3.36339,0.84743 -1.01819,0.2718 -2.06012,0.47659 -3.11974,0.43342 -0.99986,5.4e-4 -1.99972,10e-4 -2.99958,0.004 -1.00108,0.002 -2.00228,0.007 -3.00327,-0.009 -1.01744,-0.0264 -2.0395,-0.0684 -3.03807,-0.28288 -1.04001,-0.24197 -2.06312,-0.55647 -3.08764,-0.85527 -1.10647,-0.38049 -2.22376,-0.732437 -3.3495,-1.05115 -0.98143,-0.287608 -1.91714,-0.661138 -2.70267,-1.33939 -0.67971,-0.645519 -1.32271,-1.329025 -1.84159,-2.113695 -0.57358,-0.776465 -1.01857,-1.633067 -1.46823,-2.48521 -0.44155,-0.779875 -0.8133,-1.596141 -1.03097,-2.468709 -0.27965,-0.764983 -0.63217,-1.497536 -0.80047,-2.301731 -0.11727,-0.886095 -0.38977,-1.735838 -0.48842,-2.621958 -0.14256,-0.96605 -0.41708,-1.880474 -0.92784,-2.722424 -0.4108,-0.920575 -0.79898,-1.838614 -0.98089,-2.837901 -0.33464,-1.147304 -0.58448,-2.296906 -0.49998,-3.502682 -10e-4,-1.052705 -0.005,-2.10564 0.0245,-3.158053 0.0416,-1.149012 0.0899,-2.3091 0.3446,-3.434024 0.24127,-0.932331 0.38438,-1.903439 0.81439,-2.772175 0.14612,-0.225369 0.26181,-0.471344 0.4257,-0.684137 0.22226,-0.288583 0.27602,-0.263933 0.57947,-0.439857 0.21147,-0.122591 16.58739,-9.633895 0.6306,-0.374226 2.74505,-1.717511 5.36503,-3.989343 8.62615,-4.401033 0.98805,-0.03631 1.97722,-0.0085 2.96577,-0.01718 0.99814,-1.5e-5 1.99627,-5e-5 2.9944,2.1e-5 1.01783,1.25e-4 2.03566,3.12e-4 3.05349,0.0016 1.19166,0.0016 2.38332,0.0047 3.57499,0.005 1.12498,-0.0016 2.24994,-0.0099 3.37492,-0.0066 1.00563,5e-5 2.01126,1.14e-4 3.01689,6.94e-4 1.08535,7.11e-4 2.1707,0.0021 3.25605,0.0027 1.12298,-3.73e-4 2.24594,-0.0058 3.36891,-0.007 1.12633,-0.0034 2.25271,-0.01394 3.37901,-0.0071 0.94931,0.02114 1.92738,0.02581 2.81506,0.405815 0.79459,0.466457 1.16936,1.101182 1.41348,1.978241 0.29426,0.759357 0.49516,1.564768 0.7446,2.338602 0.25784,0.87681 0.54078,1.742557 0.79635,2.619459 0.35805,0.932112 0.72381,1.856317 1.10246,2.779392 0.40426,1.12153 0.74048,2.267264 1.14078,3.390451 0.30086,1.121282 0.66575,2.222955 0.91,3.35997 0.24415,1.353185 0.61045,2.677215 0.93276,4.012864 0.27258,0.950628 0.56958,1.949298 0.39297,2.94127 -6.1758,3.721014 -4.65034,4.008441 -8.9505,4.098407 -0.99803,0.05945 -1.99102,0.167137 -2.97281,0.36143 -0.96967,0.142229 -1.94912,0.106583 -2.9227,0.2154 -0.87271,0.112617 -1.72758,0.350224 -2.60864,0.377884 -1.0438,0.0091 -2.08853,0.02433 -3.12931,0.111786 -1.22076,0.11123 -2.43152,0.318043 -3.65551,0.381867 -1.24323,1.18e-4 -2.48659,0.0048 -3.72956,0.03248 -1.41416,0.04064 -2.8287,0.105362 -4.23361,0.280917 -1.04688,0.09656 -2.06502,0.121387 -2.87186,-0.6641 -0.60517,-0.752657 -0.81682,-1.65993 -1.05596,-2.580389 -0.32147,-0.885575 -0.64958,-1.766335 -1.03674,-2.625448 -0.4826,-0.988233 -0.93721,-1.987828 -1.41501,-2.978527 -0.62031,-1.369595 -0.98939,-2.837848 -1.5287,-4.240481 -0.76856,-2.046856 -1.47569,-4.116592 -2.35175,-6.122129 -0.81692,-2.153483 -1.60247,-4.317631 -2.47186,-6.45095 0,0 6.50273,-3.581337 6.50273,-3.581337 z"
       inkscape:connector-curvature="0" />
    <path
       id="path4047"
       d="m 382.84613,159.94573 c 0.12522,2.79946 0.58463,5.56397 1.04732,8.32255 0.55889,3.14717 1.09731,6.29812 1.63549,9.44895 0.30853,1.95448 0.56133,3.92137 1.06198,5.8389 0.29469,0.55587 0.26104,2.05608 0.82149,2.37143 0.27014,-0.0163 0.11932,0.0146 0.4398,-0.14101 0,0 -6.02104,4.38913 -6.02104,4.38913 v 0 c -0.5846,-0.15159 -0.32926,-0.0293 -0.77861,-0.33934 -0.65344,-0.77387 -0.67203,-1.81393 -0.97538,-2.74822 -0.51209,-1.94838 -0.69276,-3.96359 -0.99313,-5.95086 -0.52037,-3.15462 -1.05438,-6.30748 -1.62774,-9.45286 -0.46545,-2.76158 -0.93484,-5.52225 -1.18282,-8.31434 0,0 6.57264,-3.42433 6.57264,-3.42433 z"
       inkscape:connector-curvature="0" />
    <path
       id="path4049"
       d="m 388.09937,184.31944 c 2.36624,-0.09 4.70515,-0.47064 7.05687,-0.72129 1.96551,-0.16153 3.91772,-0.45185 5.85381,-0.82222 1.65905,-0.21238 3.2515,-0.73741 4.88489,-1.07212 1.84115,-0.40506 3.68408,-0.7938 5.52671,-1.19732 2.20094,-0.50097 4.35134,-1.19879 6.55273,-1.69649 1.73251,-0.2947 3.45921,-0.6297 5.20891,-0.80944 1.9309,-0.11611 3.82306,-0.53425 5.73653,-0.79484 2.16099,-0.42523 4.35169,-0.64874 6.53245,-0.94313 2.22156,-0.43375 4.46732,-0.68875 6.72457,-0.8296 1.83236,-0.0689 3.65451,-0.0907 5.47845,-0.28158 1.88719,-0.11223 3.75858,-0.34708 5.63763,-0.54527 2.23775,-0.20798 4.46315,-0.56009 6.67751,-0.94326 2.89314,-0.59031 5.75653,-1.31652 8.64207,-1.94106 2.88396,-0.64343 5.83935,-0.67856 8.76951,-0.91097 2.63909,-0.20863 5.26161,-0.57744 7.89827,-0.8185 1.36299,-0.1526 2.71624,-0.64707 4.09629,-0.5268 0.60005,0.0499 0.82442,0.72523 1.32568,0.93733 0.0957,0.0405 0.48149,0.0253 0.56018,0.0246 0.0899,-0.0416 0.19206,-0.0632 0.26962,-0.12477 0.0831,-0.066 0.29254,-0.29905 0.19965,-0.24782 -2.05442,1.13298 -4.06802,2.33847 -6.10413,3.50403 -0.093,0.0532 0.18981,-0.10171 0.27478,-0.16705 0.1835,-0.14109 0.33916,-0.31513 0.51171,-0.46941 0.28106,-0.27559 0.45712,-0.63009 0.64929,-0.96793 0,0 6.77811,-3.06986 6.77811,-3.06986 v 0 c -0.16969,0.39403 -0.37496,0.76005 -0.55867,1.14723 -0.59117,0.81497 0.15438,-0.16198 -0.4851,0.528 -1.96444,2.11956 -4.69206,4.45686 -7.63511,4.14844 -0.79026,-0.23772 -1.06101,-0.79131 -1.80765,-0.88066 -1.34034,0.0955 -2.65043,0.43041 -3.98966,0.54361 -2.62287,0.23114 -5.23254,0.58965 -7.85932,0.77538 -2.91348,0.19994 -5.84266,0.32873 -8.70005,0.98993 -2.8931,0.65253 -5.7741,1.36509 -8.68626,1.92925 -2.23724,0.3724 -4.47895,0.73717 -6.73966,0.93523 -1.88276,0.21233 -3.76611,0.39487 -5.65471,0.54727 -1.82052,0.16414 -3.64656,0.13386 -5.4704,0.24936 -2.24556,0.16766 -4.47244,0.47137 -6.68983,0.86439 -2.18128,0.29605 -4.36839,0.5481 -6.53366,0.95175 -1.92057,0.29137 -3.83117,0.66019 -5.77236,0.79609 -1.72276,0.22215 -3.43723,0.52302 -5.13975,0.86499 -2.18964,0.53922 -4.35106,1.18985 -6.55179,1.68507 -1.84922,0.42309 -3.71035,0.78198 -5.55672,1.21663 -1.62433,0.38201 -3.23937,0.81025 -4.89425,1.0471 -1.93954,0.34206 -3.89624,0.58154 -5.85776,0.75696 -2.3844,0.26135 -4.76215,0.61007 -7.16195,0.69984 0,0 6.00257,-4.36112 6.00257,-4.36112 z"
       inkscape:connector-curvature="0" />
    <path
       id="path4053"
       d="m 384.47755,185.03565 c 1.62326,-1.31725 3.15396,-2.73998 4.72596,-4.11648 1.6387,-1.39679 3.24875,-2.82413 4.83117,-4.28428 1.4303,-1.24091 2.67081,-2.6736 4.04156,-3.97629 1.03572,-1.01453 2.08265,-2.0161 3.10174,-3.04743 0.66395,-0.76698 1.47759,-1.35571 2.34376,-1.8705 2.822,-2.57428 5.87746,-3.35792 8.99591,-4.8526 0.94065,-0.34145 1.93303,-0.52167 2.91045,-0.72686 1.32577,-0.18271 2.62001,-0.50156 3.95167,-0.65187 1.40841,-0.15065 2.82578,-0.17279 4.24077,-0.19086 1.09976,-0.01 2.19958,-0.007 3.29936,-0.005 1.00052,0.001 2.00105,0.002 3.00157,0.002 0.98909,-0.0423 1.99492,0.10106 2.96898,-0.0951 1.15431,-0.24449 2.33569,-0.30813 3.51129,-0.3587 1.29783,-0.0416 2.59675,-0.0457 3.89518,-0.0439 1.47092,0.0439 2.92432,0.0142 4.38352,-0.16845 1.33741,-0.0994 2.64348,-0.34426 3.96165,-0.57498 1.15342,-0.20361 2.32478,-0.22698 3.49235,-0.25009 1.44665,-0.26106 2.91085,-0.35912 4.37706,-0.4235 1.78452,-0.0889 3.55734,-0.33271 5.34184,-0.4567 1.46608,-0.22176 2.9306,-0.44449 4.4094,-0.56032 1.19328,-0.0822 2.38992,-0.068 3.58513,-0.0642 1.74026,-0.19848 3.48682,-0.32341 5.23541,-0.41783 1.46428,-0.22237 2.92618,-0.42869 4.40561,-0.50905 1.84206,-0.24239 3.68557,-0.45107 5.51017,-0.80738 2.05692,-0.41561 4.11566,-0.82104 6.17116,-1.24602 1.61868,-0.30525 3.25772,-0.3928 4.87768,-0.68231 1.23047,-0.22296 2.48263,-0.28515 3.73023,-0.32523 1.24111,-0.24028 2.49562,-0.36524 3.75567,-0.44634 1.12717,-0.0232 2.22697,-0.0506 3.33332,-0.26245 0.49551,-0.14216 1.02901,-0.10292 1.52862,-0.20863 0.40879,-0.0865 0.73019,-0.26462 1.15519,-0.29021 1.32479,1.02011 -0.61631,2.20584 -1.33415,2.86524 -2.13162,1.9884 -4.21288,4.0284 -6.3531,6.00775 -2.05656,1.88476 -4.08356,3.8012 -6.08308,5.74628 -2.93665,3.05094 -4.41966,3.70575 -9.16562,6.04402 -0.13166,0.0649 -0.24544,-0.16103 -0.36816,-0.24154 -0.10084,-0.16898 -0.20169,-0.33795 -0.30253,-0.50692 0,0 6.45681,-3.73362 6.45681,-3.73362 v 0 c 0.003,0.008 0.006,0.0165 0.009,0.0247 1.69291,-1.81858 0.17232,-0.16468 -5.97387,3.42722 -0.15848,0.0926 0.33249,-0.15972 0.48223,-0.26589 0.77726,-0.55112 1.36246,-1.32513 2.0752,-1.94825 2.01802,-1.95887 4.0598,-3.89276 6.13709,-5.78887 2.12308,-1.95475 4.18985,-3.96514 6.26574,-5.96966 0.19765,-0.18541 2.12021,-2.38211 2.18999,-1.1799 -0.86993,0.24967 -1.76879,0.32473 -2.65812,0.48251 -1.11478,0.15411 -2.24037,0.10687 -3.36096,0.20024 -1.26488,0.10505 -2.51461,0.31467 -3.77756,0.43143 -1.22775,0.0586 -2.45295,0.16266 -3.6626,0.39001 -1.60758,0.24601 -3.23865,0.32358 -4.82974,0.68098 -2.05523,0.41687 -4.11166,0.82846 -6.17035,1.22678 -1.85617,0.32046 -3.72304,0.57636 -5.59697,0.76806 -1.47165,0.12309 -2.92833,0.36258 -4.3992,0.49184 -1.75996,0.0994 -3.51182,0.28607 -5.27048,0.39583 -1.18798,0.0112 -2.37761,0.0211 -3.562,0.12422 -1.46664,0.14101 -2.92013,0.38111 -4.38579,0.52994 -1.78538,0.1366 -3.56086,0.38777 -5.35164,0.44636 -1.47916,0.0941 -2.94391,0.29062 -4.41815,0.42918 -1.14762,0.0396 -2.29447,0.11618 -3.42405,0.33572 -1.31856,0.2345 -2.64371,0.39571 -3.97666,0.52631 -1.47805,0.1415 -2.958,0.11147 -4.44151,0.11182 -1.29133,0.007 -2.58343,0.005 -3.87333,0.0752 -1.1736,0.075 -2.33732,0.21761 -3.49753,0.40925 -1.00662,0.0465 -2.01468,0.0157 -3.02215,0.0239 -1.0003,-5.3e-4 -2.0006,-0.001 -3.0009,-0.004 -1.09266,-0.003 -2.18538,-0.008 -3.278,0.005 -1.39529,0.0233 -2.79294,0.0649 -4.17762,0.25273 -1.31604,0.20289 -2.62129,0.47639 -3.92976,0.72115 -0.95858,0.23764 -1.94425,0.39175 -2.83339,0.84822 -2.64579,1.08391 -7.23496,3.82391 3.76601,-2.43882 -0.84747,0.50688 -1.73676,0.94793 -2.42672,1.67632 -0.97002,1.10644 -2.11624,2.03799 -3.12092,3.11265 -1.40467,1.28482 -2.6532,2.71579 -4.06345,3.99345 -1.59809,1.44452 -3.16187,2.92465 -4.82177,4.29971 -1.56615,1.35321 -3.07469,2.7682 -4.66159,4.09615 0,0 -6.88222,2.789 -6.88222,2.789 z"
       inkscape:connector-curvature="0" />
    <path
       id="path4055"
       d="m 501.56921,158.25239 c -0.40521,-1.59925 -1.10089,-3.09108 -1.84689,-4.55344 -0.50478,-1.03365 -1.17106,-1.97059 -1.75266,-2.95929 -0.46701,-0.85735 -1.02913,-1.6562 -1.51749,-2.50099 -0.50816,-0.73277 -0.99512,-1.47813 -1.48814,-2.22056 -0.53203,-0.79629 -1.00308,-1.62974 -1.50488,-2.44508 -0.48504,-0.78985 -0.98741,-1.56806 -1.54026,-2.31324 -0.65475,-0.77133 -1.21985,-1.60348 -1.81002,-2.42144 -0.38368,-0.67725 -0.61049,-1.27745 -1.39229,-1.51741 -0.90887,-0.17351 -1.84178,-0.15222 -2.76321,-0.15666 -1.39289,-0.0446 -2.76723,0.003 -4.1476,0.18267 -1.31813,0.14897 -2.6276,0.39877 -3.91368,0.72616 -1.56772,0.28648 -3.11691,0.6518 -4.69397,0.89078 -1.41456,0.0921 -2.79992,0.38265 -4.20575,0.5539 -1.33,0.29285 -2.66895,0.59235 -3.96576,1.01225 -1.22155,0.35062 -2.43325,0.72513 -3.68509,0.95372 -1.19316,0.45191 -2.47104,0.49017 -3.71223,0.70918 -1.50563,0.19486 -2.99632,0.45974 -4.49374,0.70875 -1.21905,0.16091 -2.43389,0.24721 -3.64505,0.45756 -1.15259,0.0899 -2.26114,0.38956 -3.39678,0.57428 -1.19202,0.13713 -2.37604,0.22238 -3.55899,0.42298 -1.75889,0.21553 -3.53281,0.25349 -5.30254,0.28753 -1.92591,0.19058 -3.85249,0.36376 -5.78598,0.45228 -1.65541,0.2496 -3.31779,0.41263 -4.98858,0.50666 -1.72526,0.0693 -3.4525,0.0683 -5.17888,0.0712 -1.76897,0.0151 -3.52556,0.27129 -5.29198,0.37817 -1.75758,0.22895 -3.51545,0.39972 -5.25813,0.72312 -1.19798,0.24236 -2.41404,0.34823 -3.6333,0.39484 -1.00694,0.027 -2.01438,0.0212 -3.02158,0.0192 -0.87726,0.0273 -1.72271,0.30345 -2.60136,0.40153 -0.95991,0.0862 -1.92459,0.0904 -2.88759,0.0962 -1.01749,-0.0232 -1.82798,-0.0429 -2.81806,0.20248 -2.20092,1.3021 -5.16196,2.89433 5.43981,-3.10424 0.0433,-0.0245 -0.39809,0.16268 -0.495,0.61761 0.39894,1.51014 1.37391,2.84121 2.22089,4.13609 1.41427,2.03358 2.97827,3.95424 4.53815,5.87622 1.39452,1.64195 2.81958,3.26334 4.29543,4.83259 0.41099,0.4806 0.91862,0.85526 1.4128,1.24273 0,0 -6.28349,3.94521 -6.28349,3.94521 v 0 c -0.51189,-0.42051 -1.02362,-0.84304 -1.45165,-1.35304 -1.4364,-1.61958 -2.86083,-3.25113 -4.25886,-4.90435 -1.57677,-1.9404 -3.15575,-3.8804 -4.59878,-5.92394 -0.93987,-1.40772 -1.95093,-2.83067 -2.49932,-4.44369 -0.0537,-0.33594 -0.21259,-1.05319 0.18532,-1.29774 1.03446,-0.63577 4.79067,-3.52663 7.43016,-4.11393 0.95737,-0.14099 1.9267,-0.0573 2.8914,-0.0883 0.94759,-0.0162 1.89838,-0.036 2.83751,-0.17575 0.88196,-0.14672 1.75315,-0.38434 2.65658,-0.31422 0.99886,-1.9e-4 1.99836,0.002 2.99627,-0.0477 1.19238,-0.0746 2.3767,-0.22264 3.55074,-0.44698 1.75425,-0.28802 3.52605,-0.4537 5.2922,-0.6508 1.77323,-0.13093 3.54244,-0.37171 5.32358,-0.34249 1.72047,-0.007 3.44219,-0.01 5.16029,-0.11165 1.6661,-0.11237 3.31838,-0.33865 4.98059,-0.49092 1.93353,-0.10887 3.85916,-0.30754 5.79141,-0.4313 1.76503,-0.0497 3.53641,-0.10823 5.282,-0.39594 1.18104,-0.17643 2.37756,-0.21311 3.55181,-0.43987 1.1284,-0.2324 2.26305,-0.39769 3.40346,-0.56065 1.20655,-0.18498 2.42872,-0.23226 3.63102,-0.45168 1.49588,-0.2557 2.99664,-0.46845 4.49576,-0.70324 1.25145,-0.18231 2.48909,-0.39788 3.70732,-0.74487 1.22722,-0.27926 2.4296,-0.6533 3.63978,-0.99735 1.33447,-0.3533 2.66621,-0.73671 4.03751,-0.92073 1.39416,-0.1916 2.78264,-0.41749 4.18254,-0.56486 1.56462,-0.26653 3.11557,-0.60986 4.66845,-0.93594 1.31031,-0.27808 2.62326,-0.54409 3.96044,-0.65611 1.40368,-0.14259 2.81039,-0.13146 4.22024,-0.12013 0.99588,0.0164 2.02141,0.006 2.95817,0.39186 0.78783,0.4387 1.19817,1.07018 1.59785,1.85937 0.57064,0.82405 1.1431,1.64282 1.79276,2.40959 0.5695,0.76122 1.08021,1.5607 1.57939,2.36867 0.4933,0.80987 0.95847,1.63718 1.49428,2.41999 0.50072,0.75554 0.99721,1.51249 1.50592,2.26306 0.48776,0.84292 1.04518,1.64393 1.51259,2.49897 0.58581,1.00413 1.24513,1.96455 1.74886,3.01601 0.74526,1.50146 1.43717,3.02487 1.91901,4.63578 0,0 -6.50273,3.58134 -6.50273,3.58134 z"
       inkscape:connector-curvature="0" />
    <path
       id="path4057"
       d="m 442.97795,141.36277 c 1.13678,2.96553 3.15675,5.48281 5.08255,7.97058 1.78534,2.18348 3.56449,4.37637 5.24376,6.64308 0.62599,0.96325 0.32862,0.49467 0.89408,1.40448 0,0 -6.3969,3.71376 -6.3969,3.71376 v 0 c -0.53504,-0.89463 -0.25729,-0.43735 -0.83428,-1.37122 -1.62585,-2.29164 -3.37434,-4.49556 -5.14463,-6.67658 -1.96715,-2.55699 -3.99678,-5.13074 -5.32201,-8.09385 0,0 6.47743,-3.59025 6.47743,-3.59025 z"
       inkscape:connector-curvature="0" />
    <path
       id="path4059"
       d="m 465.06947,138.8946 c 2.13491,2.01533 3.45061,4.62555 4.61419,7.27563 1.1227,2.79081 2.08852,5.64392 3.4248,8.34296 0.64485,1.0492 0.32796,0.54787 0.94799,1.5057 0,0 -6.38461,3.71819 -6.38461,3.71819 v 0 c -0.61415,-1.00604 -0.29699,-0.47381 -0.94777,-1.5989 -1.29776,-2.73014 -2.24553,-5.60043 -3.3735,-8.40195 -1.13139,-2.54676 -2.39177,-5.10007 -4.58272,-6.91313 0,0 6.30162,-3.9285 6.30162,-3.9285 z"
       inkscape:connector-curvature="0" />
    <path
       id="path4061"
       d="m 453.03685,158.05254 c -2.35459,3.39091 -4.7679,6.73876 -7.07694,10.16162 -1.37209,2.06884 -2.69726,4.16884 -3.97721,6.29578 0,0 -6.67798,2.95597 -6.67798,2.95597 v 0 c 1.31634,-2.1539 2.69251,-4.27111 4.08106,-6.37909 2.26583,-3.36871 4.6365,-6.66792 6.85966,-10.06281 0,0 6.79141,-2.97147 6.79141,-2.97147 z"
       inkscape:connector-curvature="0" />
    <path
       id="path4063"
       d="m 474.3898,158.08205 c -3.3082,2.77396 -6.57769,5.59362 -9.78458,8.48423 -1.42536,1.2869 -2.83508,2.59643 -3.98744,4.13771 0,0 -6.77068,2.93835 -6.77068,2.93835 v 0 c 1.12843,-1.66382 2.61018,-3.02017 4.1012,-4.3582 3.15133,-2.85238 6.37217,-5.62702 9.58534,-8.40925 0,0 6.85616,-2.79284 6.85616,-2.79284 z"
       inkscape:connector-curvature="0" />
    <path
       id="path4065"
       d="m 377.00312,162.96301 c 1.65954,-1.86683 3.39648,-3.66243 5.07964,-5.50736 1.45182,-1.48453 2.797,-3.05914 4.08053,-4.68916 0.85693,-1.10604 1.80777,-2.13287 2.71547,-3.19629 0.56042,-0.68367 1.17701,-1.31688 1.76577,-1.97476 0.63177,-0.59573 1.23277,-1.21445 1.92656,-1.73979 0.44305,-0.36214 0.22301,-0.18901 0.6593,-0.52042 0,0 6.8954,-2.80611 6.8954,-2.80611 v 0 c -0.39912,0.40507 -0.18077,0.22436 -0.6555,0.54157 -0.78992,0.72183 0.13475,-0.086 -0.71606,0.54389 -0.35451,0.26245 -0.61102,0.57923 -0.91349,0.88873 -0.0933,0.0954 -0.20478,0.17123 -0.30717,0.25685 -0.68433,0.55372 -1.22506,1.28551 -1.81434,1.93669 -0.96742,1.00748 -1.84195,2.11099 -2.76202,3.16327 -1.30846,1.64114 -2.61231,3.28656 -4.11864,4.75579 -1.64137,1.84561 -3.39815,3.58616 -5.00437,5.46415 0,0 -6.83108,2.88295 -6.83108,2.88295 z"
       inkscape:connector-curvature="0" />
    <path
       style="fill:#aa0000"
       id="path4091"
       d="m 464.45596,241.02279 c -2.24557,2.0504 -4.19061,4.40554 -6.06103,6.79511 -2.66924,3.68708 -5.18434,7.48313 -7.64747,11.31005 -2.30588,3.74305 -4.99216,7.20605 -7.79268,10.58477 -2.0456,2.45728 -4.01749,4.97363 -6.05717,7.43546 -0.0618,0.0897 -0.53157,0.67776 -0.54177,0.93282 -0.0124,0.31017 2.70368,1.01895 2.85488,1.06013 5.57417,1.31458 11.28682,1.86138 16.96481,2.51874 6.45543,0.73437 12.88153,1.77474 19.23032,3.15519 3.98702,1.03812 8.01803,1.9181 11.98701,3.0246 0.92927,0.28012 1.86919,0.51745 2.81556,0.73075 0,0 -6.08451,4.2005 -6.08451,4.2005 v 0 c -0.92683,-0.24664 -1.84815,-0.51154 -2.76326,-0.7992 -3.90517,-1.13529 -7.86433,-2.08151 -11.80129,-3.0977 -6.31007,-1.37854 -12.69215,-2.44534 -19.11349,-3.15014 -5.77181,-0.65152 -11.57721,-1.18861 -17.25696,-2.44854 -0.96974,-0.26601 -4.08609,-0.82135 -3.46749,-2.55584 0.0902,-0.2529 0.27104,-0.46358 0.40656,-0.69538 2.08075,-2.47898 4.13925,-4.97519 6.18138,-7.48725 2.81002,-3.36561 5.5555,-6.779 7.86422,-10.51861 2.44738,-3.83177 4.96772,-7.61647 7.57183,-11.34371 1.80806,-2.4013 3.72924,-4.71816 5.84169,-6.86 0,0 6.86886,-2.79175 6.86886,-2.79175 z"
       inkscape:connector-curvature="0" />
    <path
       style="fill:#aa0000"
       id="path4095"
       d="m 443.15711,273.57294 c 7.32049,-1.81227 14.67101,-3.50137 22.03347,-5.1352 12.42954,-2.66163 24.94627,-4.88791 37.39834,-7.43783 11.06019,-2.2649 13.97823,-2.96438 25.20271,-5.4588 24.36578,-5.61217 48.50375,-12.23232 72.33681,-19.79476 4.87864,-1.54804 9.72742,-3.18865 14.59112,-4.78297 17.71484,-6.10445 35.37324,-12.67058 51.92135,-21.54522 10.18691,-5.46316 8.3007,-4.30631 14.89858,-9.54747 9.43806,-7.09021 18.21229,-15.32308 23.8304,-25.85218 2.94061,-5.5111 2.94285,-6.71151 4.58869,-12.587 0.22018,-2.09385 0.62373,-4.17647 0.66055,-6.28155 0.11187,-6.39653 -1.56622,-12.70203 -4.72242,-18.25894 -2.83442,-4.99039 -4.4564,-6.211 -8.36461,-10.35948 -1.73751,-1.42159 -3.39598,-2.94567 -5.21253,-4.26476 -6.2573,-4.54375 -13.53286,-7.92713 -20.9816,-9.98084 -1.30756,-0.36051 -2.64854,-0.58649 -3.97282,-0.87974 -1.09195,-0.11271 -2.1839,-0.22543 -3.27586,-0.33814 0,0 5.76113,-4.07908 5.76113,-4.07908 v 0 c 1.07835,0.15383 2.1567,0.30766 3.23505,0.46149 1.30575,0.331 2.62853,0.60095 3.91727,0.99302 7.41572,2.25603 14.64947,5.72913 20.90109,10.32581 1.83008,1.34561 3.50433,2.89122 5.25649,4.33682 3.95337,4.20774 5.61587,5.47846 8.50241,10.52655 3.22755,5.64447 4.98185,12.05078 4.90613,18.56175 -0.0249,2.14188 -0.42402,4.26301 -0.63602,6.39451 -1.65686,5.9965 -1.64165,7.18789 -4.63612,12.81152 -5.69845,10.70173 -14.61211,19.0719 -24.19029,26.28685 -9.71429,6.25492 -15.2,10.13939 -24.95641,15.32053 -16.50106,8.76288 -34.08944,15.24215 -51.72544,21.28851 -4.86047,1.58757 -9.70662,3.21969 -14.58142,4.76271 -23.92474,7.57293 -48.14403,14.23164 -72.58282,19.92938 -11.47646,2.59343 -14.12517,3.23947 -25.42751,5.6136 -12.63197,2.65342 -25.32706,5.00533 -37.91831,7.85265 -7.56989,1.7697 -15.13343,3.57496 -22.63622,5.61353 0,0 5.87881,-4.49527 5.87881,-4.49527 z"
       inkscape:connector-curvature="0" />
    <path
       style="fill:#000000"
       id="path4132"
       d="m 277.56661,27.410393 c 1.80135,0.223487 3.61573,0.314894 5.42881,0.375175 1.64658,0.04712 3.29397,0.04372 4.94104,0.04544 1.5661,0.0431 3.11577,-0.0083 4.67197,-0.172189 2.03421,-0.176538 4.06995,-0.262443 6.10306,-0.455016 2.41622,-0.142693 4.81552,-0.459994 7.227,-0.659733 2.2335,-0.17048 4.47464,-0.190934 6.71347,-0.203085 2.56661,-0.02915 5.13459,0.06397 7.6986,-0.06588 2.7191,-0.200593 5.4418,-0.321403 8.16748,-0.373613 2.93662,-0.04449 5.87361,-0.0506 8.81051,-0.05199 3.04608,-2.93e-4 6.09216,0.0043 9.13824,0.01 3.47111,0.0024 6.94223,0.0052 10.41334,0.009 3.89218,0.0351 7.77968,0.01883 11.66834,-0.148372 3.8806,-0.193674 7.76479,-0.275242 11.64952,-0.318818 3.90995,-0.03098 7.82008,-0.0318 11.73013,-0.03346 3.74452,0.003 7.48904,-0.0012 11.23356,-7.54e-4 3.44009,-5.3e-5 6.88018,-0.0037 10.32027,-0.0073 3.07891,-0.08568 6.14907,0.162792 9.22178,0.311446 3.00384,0.05191 5.99798,0.236 8.99554,0.422258 2.66473,0.164017 5.33429,0.215126 8.00334,0.240965 2.17477,0.01245 4.34963,0.01126 6.52441,0.003 1.5681,-0.0048 3.13618,-0.01134 4.70428,-0.01424 1.29237,0.0023 2.58474,-0.0023 3.87711,-0.0049 1.03892,-0.002 2.07784,-0.0024 3.11676,-0.0027 0.98644,-0.03488 1.93687,-0.02505 2.89759,0.198669 0.33032,0.02798 0.59393,0.230361 0.90444,0.0944 0,0 -6.04718,4.38769 -6.04718,4.38769 v 0 c -0.31682,-0.0938 -0.63664,-0.171993 -0.96316,-0.225927 -0.92762,-0.14957 -1.8686,-0.06594 -2.80476,-0.08608 -1.03644,-2.74e-4 -2.07287,-7.46e-4 -3.1093,-0.0027 -1.28819,-0.0025 -2.57637,-0.007 -3.86456,-0.0039 -1.55779,-0.0017 -3.11556,-0.0057 -4.67335,-0.0081 -2.16701,-0.0061 -4.3341,-0.0029 -6.50098,-0.03169 -2.66697,-0.04023 -5.33391,-0.112225 -7.9957,-0.29178 -2.99504,-0.189451 -5.9895,-0.330633 -8.98949,-0.414949 -3.06108,-0.15611 -6.12099,-0.367161 -9.18842,-0.290918 -3.43281,-0.0037 -6.86562,-0.0075 -10.29843,-0.0088 -3.74112,-0.001 -7.48223,-0.0081 -11.22335,-0.0064 -3.90728,-7.46e-4 -7.81468,-0.0046 -11.72179,0.03832 -3.87869,0.05207 -7.75669,0.144956 -11.63153,0.33179 -3.89996,0.155894 -7.80004,0.14915 -11.70277,0.136297 -3.47846,0.0036 -6.95692,0.0061 -10.43538,0.0068 -3.05274,0.0039 -6.10548,0.0048 -9.15823,0.0056 -2.93408,0.0036 -5.86853,0.0018 -8.80206,0.06658 -2.72398,0.07746 -5.44453,0.215755 -8.16416,0.387953 -2.579,0.08811 -5.15967,0.03247 -7.73979,0.06527 -2.22776,0.02576 -4.45734,0.05865 -6.67859,0.247409 -2.40934,0.212216 -4.81161,0.49742 -7.22493,0.665042 -2.0431,0.186479 -4.09286,0.266583 -6.13341,0.482441 -1.57144,0.143956 -3.14416,0.132412 -4.72125,0.117008 -1.65024,-0.0034 -3.30091,-0.01256 -4.95019,-0.07371 -1.83458,-0.08523 -3.6665,-0.213816 -5.49449,-0.392702 0,0 6.05666,-4.298831 6.05666,-4.298831 z"
       inkscape:connector-curvature="0" />
    <path
       style="fill:#e6e6e6"
       id="path4156"
       d="m 554.76681,366.12278 c -0.27607,-2.32715 -0.94489,-0.99568 4.29431,-2.96416 0.14408,-0.0541 0.009,0.30773 0.0114,0.46163 0.004,0.26184 0.007,0.52372 0.01,0.78557 0.0208,2.7581 0.0325,5.51625 0.0526,8.27436 0.005,0.41804 0.009,0.83608 0.0139,1.25412 0,0 -4.30356,2.19436 -4.30356,2.19436 v 0 c 0.002,-0.4213 0.004,-0.8426 0.006,-1.2639 -0.002,-2.74057 -0.007,-5.48231 -0.12421,-8.22087 -0.0147,-0.25225 -0.0266,-0.50466 -0.044,-0.75674 -0.01,-0.14413 -0.15827,-0.3518 -0.0379,-0.43177 4.8076,-3.19538 4.15429,-3.96875 4.50785,-1.6292 0,0 -4.38663,2.2966 -4.38663,2.2966 z"
       inkscape:connector-curvature="0" />
    <path
       style="fill:#e6e6e6"
       id="path4158"
       d="m 553.15501,365.40729 c 0.34406,-1.71051 1.43253,-3.20655 2.69644,-4.37664 0.36014,-0.3334 0.7604,-0.62066 1.1406,-0.93099 2.45034,-1.52889 3.15663,-2.00594 6.70892,-3.72848 0.91126,-0.44188 2.56336,-0.58431 3.49774,-0.10282 0.29966,0.15441 0.52392,0.42432 0.78588,0.63648 0.15651,0.33141 0.38173,0.63839 0.46952,0.99423 0.58444,2.36893 -1.25332,5.06906 -2.45584,6.94266 -0.73403,1.04894 -1.56723,2.02451 -2.30411,3.07121 -0.25299,0.35935 -0.65237,0.92507 -0.78808,1.37475 -0.0515,0.17053 -0.038,0.35423 -0.0571,0.53134 0.0598,0.15393 0.0894,0.3234 0.17954,0.46177 0.66055,1.01373 2.3573,1.48433 3.42728,1.85343 1.14461,0.44774 0.57652,0.2342 1.70384,0.64172 0,0 -4.0468,2.72795 -4.0468,2.72795 v 0 c -1.12282,-0.4186 -0.55754,-0.20551 -1.69575,-0.63946 -1.2785,-0.45976 -2.90628,-0.95532 -3.68126,-2.18121 -0.12578,-0.19897 -0.18474,-0.43304 -0.27711,-0.64955 -0.002,-0.23304 -0.0517,-0.47034 -0.007,-0.69913 0.0983,-0.50669 0.50816,-1.10219 0.78584,-1.4997 0.74177,-1.06186 1.60596,-2.03394 2.37897,-3.07201 1.096,-1.63387 3.01747,-4.36829 2.6004,-6.46762 -0.0561,-0.28228 -0.23726,-0.52442 -0.35588,-0.78663 -0.22281,-0.15744 -0.41647,-0.3677 -0.66843,-0.47231 -0.61615,-0.2558 -1.37395,-0.19293 -1.9991,-0.0627 -0.42884,0.0893 -1.58291,0.67458 -1.25764,0.38117 0.61178,-0.55187 4.89974,-2.9634 1.51661,-1.03999 -0.38433,0.28938 -0.78797,0.55475 -1.15298,0.86815 -1.22184,1.04909 -2.32696,2.43803 -2.7078,4.02546 0,0 -4.43639,2.19895 -4.43639,2.19895 z"
       inkscape:connector-curvature="0" />
    <path
       style="fill:#e6e6e6"
       id="path4160"
       d="m 577.99792,357.69133 c -2.14181,2.73014 -3.15418,6.1268 -4.03474,9.42847 -0.22477,1.40819 -1.03688,5.13145 1.07553,5.68707 0.26727,0.0703 0.55262,0.0109 0.82894,0.0163 0.31044,-0.0758 0.62842,-0.12558 0.93133,-0.22739 0.32776,-0.11016 0.64175,-0.25874 0.95442,-0.40639 0.31775,-0.15004 1.23799,-0.66478 0.93547,-0.486 -3.56163,2.03286 -4.39833,2.54445 -2.56516,1.44082 0,0 4.55387,-1.75953 4.55387,-1.75953 v 0 c -2.14801,1.31419 -2.17923,1.34287 -5.78385,3.35071 -0.49418,0.27527 -1.42759,0.66513 -1.98107,0.78914 -0.33621,0.0753 -0.68454,0.079 -1.02681,0.11853 -0.31833,-0.067 -0.65847,-0.0671 -0.95499,-0.20084 -2.25903,-1.01897 -1.52226,-4.45026 -1.22761,-6.28906 0.86946,-3.30594 1.84273,-6.65519 3.74062,-9.5399 0,0 4.55405,-1.92197 4.55405,-1.92197 z"
       inkscape:connector-curvature="0" />
    <path
       style="fill:#e6e6e6"
       id="path4162"
       d="m 580.46542,372.68299 c 0.078,-2.56193 0.0843,-5.12243 -0.0585,-7.68169 -0.0499,-0.51233 -0.0947,-1.02519 -0.14974,-1.53699 -0.1242,-1.1545 -0.17007,-1.50502 -0.36045,-2.61072 -0.15652,-0.90903 -0.29281,-1.60399 -0.24272,-2.52488 0.07,-0.19462 0.10689,-0.40451 0.2099,-0.58384 0.1018,-0.17725 0.22171,-0.36055 0.39489,-0.46912 3.62409,-2.27204 4.0041,-2.8576 7.24526,-3.23801 1.67014,-0.1615 3.34263,-0.25116 4.97898,0.16587 0,0 -4.03902,2.79483 -4.03902,2.79483 v 0 c -1.59954,-0.33942 -3.23284,-0.22148 -4.84807,-0.0388 -0.6508,0.103 -1.0574,0.14124 -1.6828,0.33918 -0.23849,0.0755 -0.90821,0.4111 -0.69814,0.27528 1.17507,-0.75975 2.40008,-1.43934 3.60332,-2.15362 0.15857,-0.0941 -0.33557,0.166 -0.46918,0.29309 -0.12615,0.11998 -0.19554,0.28811 -0.29331,0.43216 -0.16792,0.98671 -0.0381,1.45475 0.11443,2.44798 0.21465,1.39745 0.36186,2.80218 0.48657,4.21038 0.15952,2.54379 0.16923,5.08808 0.21107,7.63573 0,0 -4.40249,2.24318 -4.40249,2.24318 z"
       inkscape:connector-curvature="0" />
    <path
       style="fill:#e6e6e6"
       id="path4164"
       d="m 582.70341,364.76099 c 2.08414,-0.4037 4.14604,-0.90916 6.18547,-1.4967 0.95004,-0.25784 1.85573,-0.63271 2.75153,-1.03386 0,0 -3.83312,3.0283 -3.83312,3.0283 v 0 c -0.90243,0.36581 -1.81297,0.70864 -2.75607,0.95832 -2.08079,0.57447 -4.17996,1.07592 -6.29051,1.52914 0,0 3.9427,-2.9852 3.9427,-2.9852 z"
       inkscape:connector-curvature="0" />
  </g>
</svg>
