<?xml version="1.0" encoding="UTF-8" standalone="no"?>
<!-- Created with Inkscape (http://www.inkscape.org/) -->

<svg
   xmlns:dc="http://purl.org/dc/elements/1.1/"
   xmlns:cc="http://creativecommons.org/ns#"
   xmlns:rdf="http://www.w3.org/1999/02/22-rdf-syntax-ns#"
   xmlns:svg="http://www.w3.org/2000/svg"
   xmlns="http://www.w3.org/2000/svg"
   xmlns:sodipodi="http://sodipodi.sourceforge.net/DTD/sodipodi-0.dtd"
   xmlns:inkscape="http://www.inkscape.org/namespaces/inkscape"
   width="800px"
   height="400px"
   viewBox="0 0 800 400"
   version="1.1"
   id="SVGRoot"
   sodipodi:docname="timer.svg"
   inkscape:version="0.92.1 r15371">
  <sodipodi:namedview
     id="base"
     pagecolor="#ffffff"
     bordercolor="#666666"
     borderopacity="1.0"
     inkscape:pageopacity="0.0"
     inkscape:pageshadow="2"
     inkscape:zoom="2"
     inkscape:cx="387.28882"
     inkscape:cy="177.79816"
     inkscape:document-units="px"
     inkscape:current-layer="layer1"
     showgrid="false"
     inkscape:window-width="1920"
     inkscape:window-height="1027"
     inkscape:window-x="-8"
     inkscape:window-y="-8"
     inkscape:window-maximized="1" />
  <defs
     id="defs44" />
  <metadata
     id="metadata47">
    <rdf:RDF>
      <cc:Work
         rdf:about="">
        <dc:format>image/svg+xml</dc:format>
        <dc:type
           rdf:resource="http://purl.org/dc/dcmitype/StillImage" />
        <dc:title></dc:title>
      </cc:Work>
    </rdf:RDF>
  </metadata>
  <g
     id="layer1"
     inkscape:groupmode="layer"
     inkscape:label="Layer 1">
    <path
       style="fill:#000000;stroke-width:0.96909952"
       id="path4194"
       d="m 318.56221,322.55164 c -9.10223,-2.36536 -17.85943,-6.65726 -26.14889,-11.94952 -2.66594,-1.70203 -5.25234,-3.59873 -7.87851,-5.39809 -2.64192,-2.10049 -5.34471,-4.08185 -7.92575,-6.30149 -10.39453,-8.93903 -20.04197,-19.73448 -27.44249,-32.70294 -1.81518,-3.18086 -3.3496,-6.60636 -5.0244,-9.90954 -1.34633,-3.54913 -2.86793,-6.99901 -4.039,-10.64737 -3.61109,-11.25004 -5.5263,-23.32419 -5.39992,-35.49329 0.1165,-11.21668 1.12655,-14.44571 2.99602,-25.41409 1.17551,-4.25963 2.15504,-8.6152 3.52654,-12.77888 6.12063,-18.58139 15.74949,-35.22461 27.22504,-49.02387 3.20019,-3.84823 6.69024,-7.28643 10.03537,-10.92965 16.58917,-15.962129 35.25646,-28.079772 55.06273,-36.10382 12.80289,-5.186796 16.73559,-5.70274 29.91062,-9.056573 20.24741,-3.999163 40.57669,-4.188097 60.74379,0.733737 12.58998,3.072614 15.37601,4.885684 27.34829,10.126751 4.06781,2.359025 8.23002,4.470504 12.20341,7.077074 10.78614,7.075785 20.90755,16.100891 29.61467,26.874051 7.20323,8.91241 7.83226,10.9242 13.62486,21.10529 1.61138,3.77728 3.42156,7.42786 4.83415,11.33186 4.12959,11.41311 6.4039,23.77746 6.44538,36.35812 0.037,11.19117 -0.95661,14.38626 -2.73642,25.34333 -1.14995,4.24779 -2.09719,8.59337 -3.44983,12.74337 -4.40523,13.51569 -10.79467,25.85902 -18.31219,36.88541 -7.20476,10.56766 -10.07313,13.1793 -18.3472,22.52048 -3.57359,3.46079 -7.0536,7.08391 -10.72079,10.38237 -3.75111,3.37394 -7.59109,6.59533 -11.52062,9.62273 -5.26327,4.05498 -10.61108,7.93913 -16.04409,11.61388 -7.61327,5.1494 -17.37162,10.63249 -25.4419,14.49477 -4.28381,2.05015 -8.66543,3.7528 -12.99815,5.62921 -16.81089,6.30374 -34.21997,10.30696 -51.80056,9.92469 -11.27456,-0.24516 -13.9164,-1.27902 -24.99039,-3.50763 -4.03165,-1.43826 -8.13491,-2.58411 -12.09494,-4.3148 -15.38803,-6.72519 -29.86366,-17.84026 -41.07282,-32.94806 -2.44418,-3.2943 -4.50568,-7.01642 -6.75854,-10.52465 0,0 4.30153,-3.27531 4.30153,-3.27531 v 0 c 6.23069,9.89958 7.05556,12.21819 14.9651,20.50952 9.61828,10.08254 20.70233,17.71613 32.4879,22.81503 3.95195,1.70978 8.04537,2.83548 12.06806,4.25323 11.06215,2.20305 13.64977,3.21917 24.90988,3.44342 17.52079,0.34892 34.868,-3.65492 51.615,-9.96921 4.32034,-1.87966 8.68989,-3.58527 12.96101,-5.63899 9.15508,-4.40208 16.70349,-8.84679 25.40329,-14.54685 2.7867,-1.82584 5.5394,-3.7455 8.21033,-5.83276 11.03767,-8.62566 11.93967,-9.99638 22.16831,-19.87567 8.24002,-9.28013 11.07606,-11.85022 18.25035,-22.35192 7.47205,-10.93756 13.82668,-23.18446 18.21119,-36.59722 1.34576,-4.11684 2.28918,-8.4284 3.43377,-12.64261 1.77081,-10.84801 2.7621,-14.06479 2.74831,-25.14807 -0.0155,-12.50119 -2.23954,-24.78286 -6.30227,-36.14678 -1.38984,-3.88755 -3.17144,-7.52846 -4.75716,-11.29269 -5.70209,-10.14137 -6.3409,-12.1832 -13.44795,-21.07656 -8.60604,-10.76913 -18.62988,-19.810832 -29.32937,-26.894964 -3.94206,-2.610041 -8.07498,-4.724176 -12.11247,-7.086264 -11.92225,-5.255764 -14.64916,-7.056804 -27.19912,-10.126266 -20.12241,-4.921531 -40.39691,-4.685887 -60.59213,-0.637273 -5.04865,1.300867 -10.13794,2.368382 -15.14596,3.9026 -9.95643,3.050172 -19.458,6.900187 -28.93263,11.847693 -6.46779,3.377377 -15.61987,8.794502 -21.8551,13.865583 -3.84407,3.126361 -7.48544,6.638931 -11.22817,9.958401 -3.32865,3.61284 -6.80175,7.02071 -9.98596,10.83851 -11.4107,13.68122 -20.97269,30.19909 -27.06047,48.64287 -1.36372,4.1316 -2.33961,8.45354 -3.50941,12.6803 -1.86121,10.88193 -2.86484,14.08213 -2.98672,25.21124 -0.13232,12.08475 1.76378,24.06231 5.34943,35.23443 1.16289,3.62332 2.67298,7.0501 4.00948,10.57515 1.66226,3.28446 3.18454,6.69075 4.9868,9.85342 7.35997,12.91542 16.96431,23.68401 27.34804,32.51862 2.58702,2.20108 5.30006,4.15231 7.9501,6.22846 2.64702,1.76493 5.25155,3.63707 7.94105,5.29477 8.46538,5.21775 17.48578,9.43561 26.83968,11.05303 0,0 -5.13719,4.65027 -5.13719,4.65027 z"
       inkscape:connector-curvature="0" />
    <path
       style="fill:#000000"
       id="path4237"
       d="m 364.82242,210.32385 c -2.68874,-1.37326 -3.86096,-2.79032 -5.02399,-5.54283 -0.66454,-2.00668 -0.79166,-4.18692 0.35213,-6.06416 0.78702,-1.29169 1.35087,-1.5632 2.52009,-2.48418 2.65094,-1.44417 5.22066,-3.04862 7.95283,-4.3325 0.56244,-0.2643 1.22332,-0.25248 1.84448,-0.2714 1.73665,-0.0529 3.5028,0.51515 4.72077,1.79928 0.37793,0.39846 0.61849,0.90766 0.92774,1.36149 0.16285,0.53766 0.4018,1.05794 0.48857,1.61298 0.44,2.81466 -1.00672,5.29911 -2.69109,7.39161 -1.00248,1.09269 -0.53664,0.57148 -1.40193,1.55971 0,0 -6.78969,2.87424 -6.78969,2.87424 v 0 c 0.87488,-1.04473 0.39443,-0.51244 1.45463,-1.58475 1.68666,-1.8274 3.31907,-4.10397 3.02883,-6.7514 -0.0529,-0.48275 -0.25264,-0.93784 -0.37897,-1.40676 -0.26459,-0.38506 -0.4633,-0.82492 -0.79378,-1.15517 -1.13363,-1.13287 -2.8092,-1.49555 -4.3552,-1.3297 -0.59059,0.0634 -2.18176,0.78887 -1.73777,0.39431 1.3209,-1.17385 2.98752,-1.88826 4.48127,-2.83239 -0.49117,0.32341 -1.01766,0.59868 -1.47352,0.97021 -2.20503,1.79707 -2.60343,4.05481 -1.76699,6.67099 1.07784,2.59883 2.17787,3.87068 4.80058,4.99425 0,0 -6.15899,4.12617 -6.15899,4.12617 z"
       inkscape:connector-curvature="0" />
    <path
       style="fill:#000000"
       id="path4239"
       d="m 302.0183,105.72429 c 3.84009,0.0214 7.03883,2.62454 9.9508,4.83122 5.18105,4.27748 9.75974,9.22464 14.33525,14.12886 0.67026,0.72252 1.34052,1.44504 2.01079,2.16756 0,0 -6.0719,3.68582 -6.0719,3.68582 v 0 c -0.66173,-0.72655 -1.32346,-1.4531 -1.98519,-2.17964 -4.51688,-4.90481 -9.04981,-9.85705 -14.30215,-13.99325 -2.90179,-2.08912 -6.11084,-4.57498 -9.89764,-4.20876 0,0 5.96004,-4.43181 5.96004,-4.43181 z"
       inkscape:connector-curvature="0" />
    <path
       style="fill:#000000"
       id="path4241"
       d="m 323.58893,99.309186 c -1.80275,6.134614 -3.62423,12.262304 -5.32082,18.427494 -1.26874,4.82386 -2.21652,9.72663 -2.93752,14.6601 0,0 -6.45259,3.16641 -6.45259,3.16641 v 0 c 0.78291,-4.98934 1.81427,-9.93991 3.09048,-14.8271 1.675,-6.07755 3.46469,-12.12765 4.96412,-18.25102 0,0 6.65633,-3.175884 6.65633,-3.175884 z"
       inkscape:connector-curvature="0" />
    <path
       style="fill:#000000"
       id="path4243"
       d="m 335.30187,94.97551 c 0.0875,4.921218 1.07832,9.78152 2.10004,14.57923 0.65759,3.04295 1.59033,6.0126 2.52112,8.97941 0,0 -6.23458,3.41504 -6.23458,3.41504 v 0 c -0.90678,-2.99829 -1.8224,-5.99677 -2.50548,-9.05647 -1.06208,-4.80437 -2.06124,-9.64321 -2.48484,-14.55244 0,0 6.60374,-3.36477 6.60374,-3.36477 z"
       inkscape:connector-curvature="0" />
    <path
       style="fill:#000000"
       id="path4245"
       d="m 346.48044,94.070559 c 1.2936,4.782172 2.51409,9.581051 3.6333,14.406991 0.79383,3.3381 1.46504,6.70408 2.12524,10.07067 0,0 -6.35602,3.38783 -6.35602,3.38783 v 0 c -0.5996,-3.37745 -1.2345,-6.75093 -2.02259,-10.09026 -1.11544,-4.79127 -2.30847,-9.57083 -3.86234,-14.241708 0,0 6.48241,-3.533523 6.48241,-3.533523 z"
       inkscape:connector-curvature="0" />
    <path
       style="fill:#000000"
       id="path4247"
       d="m 299.03868,108.81988 c 7.00644,-3.16733 14.16942,-5.96543 21.33775,-8.74014 7.5049,-2.823227 15.062,-5.529253 22.77412,-7.738024 4.1367,-1.184765 4.92267,-1.314928 8.9556,-2.246566 1.17184,-0.18962 2.34367,-0.37924 3.51551,-0.56886 0,0 -5.61954,4.221472 -5.61954,4.221472 v 0 c -1.13624,0.181875 -2.27248,0.363751 -3.40871,0.545627 -3.9605,0.900772 -4.72526,1.022927 -8.79165,2.179362 -7.69393,2.188065 -15.22612,4.897429 -22.69673,7.745049 -7.35125,2.89238 -14.72722,5.76975 -21.82792,9.24462 0,0 5.76157,-4.64254 5.76157,-4.64254 z"
       inkscape:connector-curvature="0" />
    <path
       style="fill:#000000"
       id="path4249"
       d="m 309.55511,137.64149 c -0.0572,0.33782 3.82655,-1.90887 2.92243,-1.33486 -1.1259,0.71481 -3.67637,3.2997 -3.47596,1.9812 0.2081,-1.36904 2.35331,-1.46073 3.51209,-2.21891 0.84265,-0.55134 8.41644,-5.6785 8.963,-6.04814 8.24322,-5.24319 16.4916,-10.7035 25.54217,-14.47677 3.87755,-1.61658 4.45352,-1.65765 8.3519,-2.75158 1.18524,-0.22162 2.37048,-0.44324 3.55573,-0.66486 0,0 -5.60041,4.23221 -5.60041,4.23221 v 0 c -1.1542,0.2239 -2.30841,0.4478 -3.46261,0.6717 -3.80642,1.09517 -4.38692,1.14566 -8.1754,2.74807 -1.56728,0.66291 -3.04656,1.52869 -4.63334,2.14347 -0.31917,0.12366 1.08962,-0.82212 0.791,-0.65481 -3.43045,1.92207 -6.79861,4.16563 -10.10036,6.29375 -1.55753,1.06138 -3.11671,2.12036 -4.6726,3.18416 -1.67189,1.1431 -5.5592,3.86677 -7.45524,4.99984 -0.71652,0.42819 -7.56703,4.6871 -10.72825,5.98119 -0.40361,0.16523 -0.83213,0.26142 -1.2482,0.39213 0,0 5.91405,-4.47779 5.91405,-4.47779 z"
       inkscape:connector-curvature="0" />
    <path
       style="fill:#000000"
       id="path4257"
       d="m 376.06947,289.8946 c 3.37119,3.1089 6.26498,6.67756 9.16426,10.21676 3.51523,4.41427 7.10681,8.76207 10.84448,12.98905 0.98661,0.98876 1.86997,2.10272 2.97631,2.96838 0.29705,0.23243 0.81128,0.54184 0.89768,0.45587 0.0948,-0.0943 -0.006,-0.26734 -0.008,-0.40101 -2.06194,1.21654 -4.07686,2.51655 -6.18582,3.64961 -0.10291,0.0553 0.0486,-0.23153 0.0407,-0.34809 -0.0269,-0.39711 -0.23522,-1.1702 -0.33093,-1.50477 -0.29271,-1.02329 -0.51227,-1.61775 -0.86748,-2.65929 -1.81587,-5.27553 -2.69588,-10.77813 -3.37833,-16.29474 -0.48558,-5.12336 -0.89697,-10.27106 -0.91416,-15.42069 0.11057,-1.55451 0.009,-0.83693 0.26651,-2.15783 0,0 6.65557,-3.18574 6.65557,-3.18574 v 0 c -0.38844,1.22561 -0.22541,0.54655 -0.43113,2.05025 -0.19354,5.14821 0.20743,10.30967 0.66998,15.43356 0.67532,5.44746 1.57514,10.88038 3.50779,16.04516 0.52544,1.40069 1.10487,2.80853 1.42704,4.27536 0.0424,0.19299 0.25709,0.46382 0.10041,0.58419 -2.02104,1.5526 -4.24554,2.82063 -6.36831,4.23094 -1.78876,-0.83058 -2.89567,-2.63104 -4.23574,-3.99591 -3.64616,-4.30235 -7.17851,-8.6964 -10.73166,-13.07585 -2.91859,-3.49828 -5.84153,-7.04963 -9.40043,-9.92671 0,0 6.30162,-3.9285 6.30162,-3.9285 z"
       inkscape:connector-curvature="0" />
    <path
       style="fill:#000000"
       id="path4259"
       d="m 402.55678,277.16439 c 2.58594,4.17719 4.49101,8.72179 6.40125,13.23348 1.98772,4.69933 3.67896,9.54115 6.17391,14.00586 0,0 -6.31772,3.62118 -6.31772,3.62118 v 0 c -2.35226,-4.56987 -4.00039,-9.44937 -6.01073,-14.17144 -1.91758,-4.44969 -3.82623,-8.9688 -6.64257,-12.9413 0,0 6.39586,-3.74778 6.39586,-3.74778 z"
       inkscape:connector-curvature="0" />
    <path
       style="fill:#000000"
       id="path4261"
       d="m 368.87492,296.95786 c 2.0746,-3.85385 5.26017,-7.05761 8.62895,-9.80505 1.07077,-0.87329 2.20328,-1.66802 3.30492,-2.50204 6.35458,-4.25784 12.99066,-8.20376 20.19131,-10.84774 2.44955,-0.89944 3.42399,-1.11738 5.86202,-1.78846 0,0 -5.64725,4.34121 -5.64725,4.34121 v 0 c -3.10397,0.86804 -6.11107,1.83844 -9.06592,3.14517 -1.20604,0.53335 -2.2907,1.39302 -3.57413,1.69604 -0.85558,0.20201 2.9741,-1.87501 2.24594,-1.38245 -1.16487,0.78795 -2.37121,1.51278 -3.55682,2.26918 -1.09265,0.81142 -2.2152,1.58406 -3.27795,2.43426 -3.26273,2.61017 -6.32197,5.66416 -8.38244,9.32799 0,0 -6.72863,3.11189 -6.72863,3.11189 z"
       inkscape:connector-curvature="0" />
    <path
       style="fill:#000000"
       id="path4263"
       d="m 389.55689,318.89958 c 4.71293,-1.87624 9.58637,-3.30209 14.3686,-4.98791 5.04339,-1.68795 9.75567,-4.10918 14.33946,-6.77095 0,0 -5.54904,4.49103 -5.54904,4.49103 v 0 c -4.59216,2.60244 -9.32494,4.92939 -14.34345,6.60874 -4.8839,1.71421 -9.86818,3.18028 -14.61356,5.26184 0,0 5.79799,-4.60275 5.79799,-4.60275 z"
       inkscape:connector-curvature="0" />
    <path
       style="fill:#000000"
       id="path4271"
       d="m 465.10751,144.21977 c 2.82513,4.10322 5.19579,8.46742 7.37097,12.94237 2.47647,5.21947 4.4906,10.63455 6.69298,15.96974 0.23393,0.49908 0.46786,0.99817 0.7018,1.49725 0,0 -6.33723,3.57342 -6.33723,3.57342 v 0 c -0.2224,-0.51741 -0.4448,-1.03481 -0.6672,-1.55222 -2.06679,-5.37748 -4.01685,-10.8059 -6.52077,-16.00337 -2.19621,-4.4248 -4.57844,-8.75757 -7.61825,-12.67056 0,0 6.3777,-3.75663 6.3777,-3.75663 z"
       inkscape:connector-curvature="0" />
    <path
       style="fill:#000000"
       id="path4273"
       d="m 475.54916,140.58518 c 2.2986,2.92985 4.00484,6.25149 5.64428,9.57739 2.12156,4.27057 3.74185,8.76613 5.39825,13.23123 0.55354,1.59394 1.21259,3.14431 1.90938,4.67934 0,0 -6.36634,3.58425 -6.36634,3.58425 v 0 c -0.67149,-1.5675 -1.30486,-3.14941 -1.85003,-4.76638 -1.60569,-4.45701 -3.19821,-8.9389 -5.32839,-13.17849 -1.64622,-3.27304 -3.34775,-6.57412 -5.78776,-9.34077 0,0 6.38061,-3.78657 6.38061,-3.78657 z"
       inkscape:connector-curvature="0" />
    <path
       style="fill:#000000"
       id="path4275"
       d="m 484.1008,136.64228 c 2.28076,3.18575 3.8029,6.81303 5.27712,10.41969 1.70468,4.06618 3.03056,8.27405 4.57358,12.40082 0.7354,1.84794 0.35522,0.97975 1.12478,2.61139 0,0 -6.37775,3.60156 -6.37775,3.60156 v 0 c -0.75007,-1.69683 -0.37986,-0.80107 -1.09825,-2.69235 -1.46985,-4.14788 -2.76738,-8.36031 -4.4817,-12.41821 -1.46147,-3.53463 -2.96545,-7.1245 -5.38206,-10.13091 0,0 6.36428,-3.79199 6.36428,-3.79199 z"
       inkscape:connector-curvature="0" />
    <path
       style="fill:#000000"
       id="path4277"
       d="m 459.05689,147.39958 c -1.70119,0.9676 -3.38343,1.9693 -5.10357,2.90279 -0.59902,0.32508 1.16019,-0.71554 1.7383,-1.0765 0.73158,-0.4568 1.46277,-0.91425 2.19074,-1.37677 2.76671,-1.75785 5.52203,-3.50926 8.34105,-5.1831 6.27335,-3.6156 12.75689,-7.55138 20.01929,-8.84641 0.68001,-0.12126 1.37088,-0.17086 2.05632,-0.25629 0.57076,-0.0316 1.14152,-0.0632 1.71228,-0.0949 0,0 -5.85882,4.31111 -5.85882,4.31111 v 0 c -0.54765,0.0362 -1.0953,0.0723 -1.64296,0.1085 -3.52121,0.50176 -6.44355,1.3694 -9.73287,2.76705 -1.00874,0.42862 -3.02249,2.47029 -2.98685,1.37484 0.0385,-1.18288 2.00247,-1.26207 3.0037,-1.8931 -6.57643,3.85576 -12.76708,8.32596 -19.5346,11.86548 0,0 5.79799,-4.60275 5.79799,-4.60275 z"
       inkscape:connector-curvature="0" />
    <path
       style="fill:#000000"
       id="path4287"
       d="m 468.26952,180.40675 c 4.15357,-2.42351 8.02516,-5.26158 11.76938,-8.26845 3.29308,-2.66667 6.27161,-5.6906 9.57344,-8.34502 1.26097,-0.96004 0.6495,-0.51503 1.8294,-1.34193 0,0 6.85389,-2.68375 6.85389,-2.68375 v 0 c -1.23782,0.79383 -0.59993,0.35929 -1.90598,1.31486 -3.41876,2.59799 -6.42182,5.67831 -9.74041,8.39905 -3.66545,2.98417 -7.44422,5.80936 -11.48335,8.27442 0,0 -6.89637,2.65082 -6.89637,2.65082 z"
       inkscape:connector-curvature="0" />
    <path
       style="fill:#000000"
       id="path4289"
       d="m 260.15316,235.20063 c 2.77091,3.75457 5.27204,7.68645 7.64457,11.7015 2.2593,3.77869 4.171,7.74074 5.93216,11.77003 0.35772,0.9684 0.78688,1.89515 1.31054,2.78228 0,0 -6.40563,3.68962 -6.40563,3.68962 v 0 c -0.50412,-0.93308 -0.92457,-1.89733 -1.26248,-2.90521 -1.6548,-4.04459 -3.49576,-8.011 -5.74076,-11.76826 -2.3592,-3.99016 -4.84706,-7.912 -7.82778,-11.47505 0,0 6.34938,-3.79491 6.34938,-3.79491 z"
       inkscape:connector-curvature="0" />
    <path
       style="fill:#000000"
       id="path4291"
       d="m 270.08212,229.98009 c 3.22883,3.22273 6.62,6.27721 9.98778,9.35274 3.64377,3.39178 7.3566,6.70727 11.05488,10.03914 1.50346,1.27764 0.78094,0.67176 2.16554,1.82006 0,0 -6.2174,3.87769 -6.2174,3.87769 v 0 c -1.35084,-1.1871 -0.64599,-0.55979 -2.11211,-1.88468 -3.61966,-3.39479 -7.28903,-6.73632 -10.92284,-10.11586 -3.41486,-3.08475 -6.83914,-6.15941 -10.28277,-9.21195 0,0 6.32692,-3.87714 6.32692,-3.87714 z"
       inkscape:connector-curvature="0" />
    <path
       style="fill:#000000"
       id="path4293"
       d="m 284.30903,222.35224 c -0.11708,4.52781 -0.13873,9.05769 -0.17081,13.58674 -0.12327,6.39921 0.0853,12.79375 0.35728,19.18591 0.10943,2.40087 0.0317,1.27864 0.21408,3.36796 0,0 -6.48078,3.3612 -6.48078,3.3612 v 0 c -0.12422,-2.15272 -0.0778,-1.00343 -0.12194,-3.44853 -0.13332,-6.42228 -0.28267,-12.84427 -0.24508,-19.26854 -0.0319,-4.47102 -0.0527,-8.94293 -0.17081,-13.41267 0,0 6.61806,-3.37207 6.61806,-3.37207 z"
       inkscape:connector-curvature="0" />
    <path
       style="fill:#000000"
       id="path4295"
       d="m 246.62101,244.3772 c 4.31847,-3.92687 9.26766,-7.05984 14.23994,-10.07842 7.13907,-4.28906 14.33302,-8.5305 22.20606,-11.30572 0.5687,-0.16463 1.13741,-0.32926 1.70611,-0.49389 0,0 -5.75241,4.43741 -5.75241,4.43741 v 0 c -0.54853,0.16558 -1.09707,0.33116 -1.6456,0.49675 -2.32641,0.83509 -4.57638,1.75578 -6.80435,2.83265 -0.95888,0.46347 -2.93849,2.49099 -2.85766,1.42904 0.0115,-0.15119 8.16239,-4.85442 -0.32641,0.084 -4.8648,2.9218 -9.70588,5.94802 -13.93114,9.76718 0,0 -6.83454,2.83096 -6.83454,2.83096 z"
       inkscape:connector-curvature="0" />
    <path
       style="fill:#000000"
       id="path4301"
       d="m 268.44624,265.95625 c 0.31372,-0.16847 1.24929,-0.68388 0.94116,-0.50541 -1.62069,0.93872 -3.22177,1.91418 -4.8792,2.78638 -0.63928,0.33641 1.22184,-0.77152 1.82002,-1.17653 2.43119,-1.6461 4.78309,-3.41444 7.14637,-5.15513 4.58394,-3.4208 9.24882,-6.72516 14.08228,-9.78373 0.58676,-0.35919 1.17352,-0.71838 1.76029,-1.07757 0,0 6.73517,-2.60207 6.73517,-2.60207 v 0 c -0.59887,0.35988 -1.19773,0.71976 -1.79659,1.07964 -4.88266,3.04235 -9.60648,6.31814 -14.20667,9.77417 -5.56208,4.13255 -11.07682,8.34036 -17.41876,11.26928 0,0 5.81593,-4.60903 5.81593,-4.60903 z"
       inkscape:connector-curvature="0" />
    <path
       style="fill:#000000"
       id="path4303"
       d="m 371.58644,208.02426 c -2.24149,3.88665 -3.85134,8.09979 -5.53394,12.24757 -2.36408,6.08683 -4.55519,12.24485 -6.37732,18.5165 -0.42575,1.64152 -1.05235,3.29716 -0.71799,5.00331 0,0 -6.52378,3.49029 -6.52378,3.49029 v 0 c -0.0575,-0.27601 -0.15477,-0.54666 -0.17259,-0.82805 -0.10033,-1.58429 0.56965,-3.09788 0.93881,-4.59999 1.93437,-6.27786 4.14179,-12.46814 6.44719,-18.61853 1.60653,-4.10535 3.14136,-8.26198 5.16865,-12.18307 0,0 6.77097,-3.02803 6.77097,-3.02803 z"
       inkscape:connector-curvature="0" />
    <path
       style="fill:#000000"
       id="path4305"
       d="m 349.16018,234.08825 c 2.929,1.51286 4.58919,4.55194 5.95612,7.41679 1.27151,2.72581 1.83765,5.70183 2.92693,8.49166 0.0816,0.14603 0.26266,0.6398 0.54078,0.6848 0.2198,0.0356 0.76922,-0.4487 0.57387,-0.34185 -5.81584,3.18111 -7.79017,4.63859 -5.30767,2.85131 1.9595,-1.8193 3.73866,-3.82461 5.62256,-5.7228 2.26181,-2.22434 4.50374,-4.46693 6.71914,-6.73721 1.188,-1.24951 0.59807,-0.63678 1.7692,-1.83876 0,0 6.77339,-2.80943 6.77339,-2.80943 v 0 c -1.19674,1.18862 -0.59923,0.57397 -1.79035,1.84606 -2.24794,2.25286 -4.45904,4.54262 -6.75039,6.75296 -1.86772,1.87692 -3.66277,3.81955 -5.48365,5.73952 -2.38922,2.30055 -1.04151,1.09142 -7.46329,4.43481 -0.71251,0.37096 -1.47969,-0.78993 -1.66123,-1.27971 -0.95824,-2.82193 -1.52851,-5.77427 -2.76603,-8.50102 -1.28226,-2.67979 -2.8669,-5.65723 -5.78357,-6.80478 0,0 6.12419,-4.18235 6.12419,-4.18235 z"
       inkscape:connector-curvature="0" />
    <path
       style="fill:#000000"
       id="path4307"
       d="m 366.73792,192.55301 c 0.65999,-4.24396 1.42054,-8.47154 2.23167,-12.68902 1.80055,-9.39799 4.24903,-18.65461 6.61911,-27.92033 3.6206,-14.02523 6.50222,-28.21768 8.98256,-42.4838 0.8381,-4.773 1.40218,-9.586155 2.06828,-14.384151 0.33034,-2.379552 0.68676,-4.695301 1.2969,-7.016723 0.19983,-0.460031 0.39966,-0.920063 0.59949,-1.380095 0,0 6.64735,-3.01913 6.64735,-3.01913 v 0 c -0.22888,0.429523 -0.45776,0.859045 -0.68665,1.288568 -0.7497,2.322221 -1.19461,4.644581 -1.60114,7.053911 -0.8187,4.852002 -1.47584,9.73074 -2.39294,14.56643 -2.61221,14.23413 -5.46864,28.42335 -8.88832,42.48836 -2.24312,9.20231 -4.60615,18.3881 -6.28897,27.71418 -0.74129,4.14429 -1.43558,8.29956 -1.94356,12.47961 0,0 -6.64378,3.30219 -6.64378,3.30219 z"
       inkscape:connector-curvature="0" />
    <path
       style="fill:#000000"
       id="path4309"
       d="m 393.45596,85.022785 c -2.55714,2.222196 -4.32779,5.142173 -6.05932,8.011714 -0.81608,1.376404 -1.47528,2.834587 -2.14862,4.283193 0,0 -6.65602,3.030128 -6.65602,3.030128 v 0 c 0.70338,-1.473352 1.37726,-2.962939 2.19013,-4.380954 1.70384,-2.867712 3.40561,-5.796965 5.80497,-8.15233 0,0 6.86886,-2.791751 6.86886,-2.791751 z"
       inkscape:connector-curvature="0" />
    <path
       style="fill:#000000"
       id="path4311"
       d="m 396.05678,84.164388 c 1.73609,2.671499 3.19681,5.502442 4.47842,8.415364 0.6807,1.562626 1.29734,3.151851 1.92869,4.734713 0,0 -6.36013,3.547415 -6.36013,3.547415 v 0 c -0.61523,-1.580176 -1.21985,-3.165059 -1.88986,-4.723191 -1.26885,-2.870264 -2.69196,-5.687482 -4.55298,-8.226522 0,0 6.39586,-3.747779 6.39586,-3.747779 z"
       inkscape:connector-curvature="0" />
    <path
       style="fill:#000000"
       id="path4313"
       d="m 371.51436,199.42169 c 5.11414,-5.70339 10.63354,-11.02677 16.06972,-16.41869 9.256,-9.13514 18.61976,-18.17266 28.49021,-26.64755 2.04774,-1.75821 4.13508,-3.46978 6.20262,-5.20467 7.66621,-6.37266 15.654,-12.34062 23.64904,-18.28985 0,0 6.12366,-2.43124 6.12366,-2.43124 v 0 c -8.06071,5.95007 -16.11309,11.92144 -23.8277,18.31974 -2.06922,1.73027 -4.15868,3.43662 -6.20765,5.19082 -9.82324,8.41008 -19.14805,17.37751 -28.28851,26.51888 -5.22121,5.26205 -10.50765,10.47081 -15.40279,16.04263 0,0 -6.8086,2.91993 -6.8086,2.91993 z"
       inkscape:connector-curvature="0" />
    <path
       style="fill:#000000"
       id="path4315"
       d="m 239.96873,169.98795 c -2.84147,2.00432 -1.86699,1.34889 -7.90379,4.68769 -0.53221,0.29435 -1.46183,0.48623 -2.06468,0.44745 -1.02014,-0.0656 -1.21884,-0.34118 -2.07942,-0.87072 -0.30071,-0.37793 -0.66033,-0.71571 -0.90213,-1.13379 -1.7664,-3.05423 -1.45692,-7.23268 -0.87357,-10.53811 0.25712,-1.45697 0.67717,-2.88043 1.01576,-4.32065 2.93921,-9.71848 7.825,-18.7529 13.77642,-26.95233 1.18528,-1.633 2.47687,-3.18615 3.7153,-4.77923 2.52682,-2.79523 4.0675,-4.75288 6.98255,-7.07195 0.9747,-0.77542 2.07293,-1.38137 3.1094,-2.07206 0,0 6.51538,-2.53605 6.51538,-2.53605 v 0 c -1.08553,0.67053 -2.23679,1.2448 -3.2566,2.0116 -2.974,2.23618 -4.64793,4.29533 -7.20631,7.03715 -1.26173,1.58716 -2.58041,3.13067 -3.78518,4.76149 -5.94806,8.05148 -10.77707,16.98591 -13.62225,26.60483 -0.32139,1.39946 -0.72359,2.78279 -0.96417,4.19837 -0.50033,2.94388 -0.78654,7.18085 0.87191,9.88707 0.20515,0.33476 0.51957,0.58877 0.77935,0.88315 1.08423,0.49903 1.59733,0.64853 2.77539,0.24019 0.32454,-0.1125 1.22956,-0.60923 0.93619,-0.43058 -8.079,4.91995 -6.83384,4.10752 -4.71395,2.68828 0,0 6.8944,-2.7418 6.8944,-2.7418 z"
       inkscape:connector-curvature="0" />
    <path
       style="fill:#000000"
       id="path4317"
       d="m 226.22123,174.33767 c -4.23654,-1.34668 -8.32597,-3.08357 -12.2805,-5.10443 -3.79214,-2.14973 -7.42416,-4.69924 -10.03334,-8.25695 -1.92773,-2.62852 -2.00188,-3.3606 -3.24642,-6.4062 -0.28421,-1.34019 -0.69195,-2.66003 -0.85261,-4.02057 -0.87728,-7.42889 1.24186,-15.12606 4.53763,-21.73032 1.03155,-2.06709 2.32756,-3.99129 3.49134,-5.98694 3.66814,-4.68731 4.59186,-6.43978 9.24671,-10.16097 4.26134,-3.40662 12.16868,-7.35668 16.50247,-8.95965 3.58584,-1.32631 6.88436,-0.54301 10.48049,-0.13903 4.60626,1.61779 4.65716,1.34026 8.76257,3.93418 1.26259,0.79774 2.42938,1.73788 3.64407,2.60682 0,0 -5.82603,3.70324 -5.82603,3.70324 v 0 c -1.19113,-0.85249 -2.3321,-1.77981 -3.57338,-2.55745 -3.97534,-2.49048 -4.10705,-2.23887 -8.56683,-3.73411 -6.71327,-0.62827 -3.31368,-0.71163 -10.19651,0.32963 -0.38353,-0.0255 0.60083,-1.28386 0.25055,-1.12559 -1.93983,0.87652 -3.69301,2.14264 -5.37855,3.4427 -4.72605,3.64518 -5.62198,5.34438 -9.33763,9.99083 -1.16164,1.96188 -2.45772,3.85013 -3.48491,5.88562 -3.24568,6.43162 -5.29364,13.96677 -4.42156,21.21318 0.15832,1.3156 0.55732,2.59092 0.83598,3.88638 1.20056,2.89618 1.31416,3.6906 3.16807,6.18792 2.57976,3.47508 6.18776,5.9333 9.93029,7.99478 4.0112,1.97094 8.15241,3.66944 12.47023,4.85312 0,0 -6.12213,4.15381 -6.12213,4.15381 z"
       inkscape:connector-curvature="0" />
    <path
       style="fill:#000000"
       id="path4319"
       d="m 367.39021,47.78071 c 1.24169,4.113763 5.15798,5.014726 8.86463,5.989746 9.40513,1.531611 18.86626,-0.352756 28.03308,-2.422463 4.4473,-1.135231 8.88771,-2.387995 13.11508,-4.200827 1.17457,-0.50369 2.19094,-1.827439 3.45752,-1.656898 1.15591,0.15564 -1.90856,1.942147 -3.05188,1.711516 -1.00743,-0.203221 1.65619,-1.217342 2.48429,-1.826013 0,0 6.57958,-2.617749 6.57958,-2.617749 v 0 c -0.83124,0.639734 -1.60106,1.368407 -2.49372,1.919202 -2.94,1.814051 -5.9491,3.516712 -8.98573,5.163905 -5.13433,2.785071 -10.94067,4.116899 -16.52605,5.629732 -9.30905,2.042093 -18.91165,3.891869 -28.44224,2.309355 -1.03763,-0.275665 -2.09635,-0.481579 -3.11289,-0.826993 -2.85961,-0.971681 -5.42226,-2.732063 -6.46286,-5.657378 0,0 6.54119,-3.515135 6.54119,-3.515135 z"
       inkscape:connector-curvature="0" />
    <path
       style="fill:#000000"
       id="path4321"
       d="m 359.23792,49.053007 c 1.21522,-5.087267 4.18339,-9.561237 6.891,-13.959615 4.80726,-7.129308 9.70766,-14.439885 16.21658,-20.165547 1.3098,-1.15218 2.75511,-2.140506 4.13266,-3.21076 3.40331,-1.9405719 6.69366,-4.0942358 10.20994,-5.8217163 4.00089,-1.9655658 9.05376,-2.2922897 13.29604,-0.997337 3.52412,1.0757352 4.39082,2.1321635 7.26357,4.309537 0.9365,1.0733793 1.97087,2.0686683 2.80949,3.2201383 4.0992,5.628414 5.31147,12.502281 6.18991,19.231596 0.395,3.928051 0.50048,7.874709 0.79772,11.809925 0,0 -6.37533,3.301797 -6.37533,3.301797 v 0 c -0.22677,-3.95315 -0.25988,-7.914993 -0.61146,-11.860779 -0.7888,-6.621567 -1.88395,-13.364828 -5.93725,-18.897452 -0.81388,-1.110919 -1.824,-2.063778 -2.736,-3.095668 -1.10193,-0.811913 -2.11727,-1.756885 -3.3058,-2.435741 -3.75336,-2.1438022 -8.08184,-2.7138666 -12.29318,-1.7931336 -1.51615,0.3314773 -2.88075,1.2299805 -4.41051,1.4915186 -0.56562,0.0967 0.94378,-0.6530021 1.41567,-0.979503 -1.39671,1.048053 -2.86368,2.008497 -4.19013,3.144158 -6.52678,5.587967 -11.37578,12.850657 -16.10272,19.93197 -2.58066,4.26138 -5.41691,8.577342 -6.61642,13.474426 0,0 -6.64378,3.302186 -6.64378,3.302186 z"
       inkscape:connector-curvature="0" />
    <path
       style="fill:#000000"
       id="path4323"
       d="m 509.23502,252.66187 c 0.5503,0.009 1.10225,-0.0167 1.65089,0.0269 6.27451,0.49844 12.53927,2.3943 18.52439,4.22576 6.45709,2.08283 12.71708,4.73591 18.50031,8.29294 0,0 -6.05202,3.89937 -6.05202,3.89937 v 0 c -5.6367,-3.59635 -11.76998,-6.27793 -18.13756,-8.30891 -4.19393,-1.25418 -8.37725,-2.42343 -12.69709,-3.17387 -1.78564,-0.3102 -4.14629,-0.62232 -6.01213,-0.64303 -0.56527,-0.006 -1.12787,0.0786 -1.69181,0.11789 0,0 5.91502,-4.43703 5.91502,-4.43703 z"
       inkscape:connector-curvature="0" />
    <path
       style="fill:#000000"
       id="path4325"
       d="m 336.76748,343.38906 c -0.7959,4.95254 -1.80295,9.86838 -2.78181,14.78725 -0.81147,4.35852 -1.91576,8.69706 -2.04834,13.14465 0,0 -6.48256,3.27228 -6.48256,3.27228 v 0 c 0.20469,-4.5195 1.38419,-8.91316 2.2068,-13.34708 0.92925,-4.83172 1.90229,-9.66567 2.45133,-14.55866 0,0 6.65458,-3.29844 6.65458,-3.29844 z"
       inkscape:connector-curvature="0" />
    <path
       style="fill:#000000"
       id="path4327"
       d="m 633.93391,101.38897 c 1.38532,4.66478 1.86656,9.49782 2.15675,14.3341 0.21309,4.38904 0.0608,8.78386 -0.0514,13.17321 0,0 -6.32096,3.19698 -6.32096,3.19698 v 0 c 0.14909,-4.37173 0.33007,-8.75091 0.0961,-13.12344 -0.30086,-4.74928 -0.76224,-9.53385 -2.38948,-14.04301 0,0 6.50897,-3.53784 6.50897,-3.53784 z"
       inkscape:connector-curvature="0" />
    <path
       style="fill:#000000"
       id="path4329"
       d="m 610.28918,116.82519 c 7.15845,-5.1109 14.36283,-10.15788 21.58901,-15.17261 4.19366,-2.986946 8.50612,-5.793235 12.86138,-8.535794 0,0 6.41512,-2.488061 6.41512,-2.488061 v 0 c -4.42113,2.738375 -8.79791,5.543797 -13.03234,8.567184 -7.04554,4.891171 -14.06381,9.824211 -20.97613,14.902341 0,0 -6.85704,2.72694 -6.85704,2.72694 z"
       inkscape:connector-curvature="0" />
    <path
       style="fill:#000000"
       id="path4331"
       d="m 648.84813,109.88111 c 0.37748,3.58296 0.56393,7.1812 0.71845,10.77944 0.0613,1.69758 0.11232,3.3955 0.16116,5.09347 0,0 -6.50178,3.32726 -6.50178,3.32726 v 0 c -0.0112,-1.70471 -0.0245,-3.40958 -0.0863,-5.11341 -0.13379,-3.55946 -0.27579,-7.13429 -0.8682,-10.65281 0,0 6.57664,-3.43395 6.57664,-3.43395 z"
       inkscape:connector-curvature="0" />
    <path
       style="fill:#000000"
       id="path4333"
       d="m 647.30903,99.352242 c -0.0809,1.561498 -0.0737,3.107228 0.36349,4.615558 0,0 -6.48783,3.54024 -6.48783,3.54024 v 0 c -0.45558,-1.56475 -0.51539,-3.15958 -0.49372,-4.78373 0,0 6.61806,-3.372068 6.61806,-3.372068 z"
       inkscape:connector-curvature="0" />
    <path
       style="fill:#000000"
       id="path4335"
       d="m 664.9109,101.49659 c -0.29843,0.0485 -0.60757,0.0526 -0.89529,0.14556 -0.41159,0.13292 -1.56107,0.74183 -1.18594,0.52653 1.5888,-0.91189 3.10213,-2.01477 4.83153,-2.61891 0.64609,-0.225702 -1.02825,0.91216 -1.46177,1.44173 -1.26957,1.55086 -1.56869,2.4633 -2.43607,4.27236 -1.22229,3.342 -2.33465,7.65201 -0.91325,11.12793 0.18232,0.44585 0.4861,0.83175 0.72915,1.24762 0.33042,0.26692 0.61677,0.60031 0.99127,0.80076 1.24318,0.6654 2.7604,0.40353 4.01706,-0.0343 0.54679,-0.19052 2.08594,-0.99546 1.59448,-0.68929 -1.49469,0.93116 -3.07678,1.71408 -4.61517,2.57111 0.53996,-0.40806 1.07991,-0.81613 1.61986,-1.2242 0,0 6.70779,-2.68846 6.70779,-2.68846 v 0 c -0.52272,0.43444 -1.04544,0.86888 -1.56816,1.30333 -2.45216,1.41226 -9.77051,7.41549 -13.96523,4.62575 -0.41712,-0.27742 -0.73408,-0.68185 -1.10113,-1.02277 -0.26187,-0.47451 -0.58714,-0.9192 -0.78561,-1.42352 -1.43248,-3.64002 -0.41856,-8.08596 0.78101,-11.62284 0.81474,-1.8616 1.1097,-2.80604 2.28124,-4.45638 2.26895,-3.19626 5.17272,-3.997636 9.06021,-6.115927 0.41077,-0.223831 0.88486,-0.319662 1.34643,-0.395797 0.35166,-0.05801 0.71282,-0.0018 1.06924,-0.0027 0,0 -6.10165,4.232414 -6.10165,4.232414 z"
       inkscape:connector-curvature="0" />
    <path
       style="fill:#000000"
       id="path4337"
       d="m 680.80903,86.352242 c -0.13926,4.420257 0.0579,8.843804 0.14574,13.263755 0.1085,5.715533 0.17056,11.431773 0.2405,17.147863 0.0309,2.52874 -0.009,1.33298 0.10474,3.58775 0,0 -6.47624,3.3316 -6.47624,3.3316 v 0 c -0.0638,-2.30864 -0.0487,-1.09102 -0.0323,-3.65301 0.0208,-5.72732 -1.6e-4,-11.4553 -0.14388,-17.18115 -0.12651,-4.376227 -0.33924,-8.74863 -0.45662,-13.124737 0,0 6.61806,-3.372071 6.61806,-3.372071 z"
       inkscape:connector-curvature="0" />
    <path
       style="fill:#000000"
       id="path4339"
       d="m 678.52471,108.3777 c 2.42061,-3.19136 5.14629,-6.13697 8.04179,-8.899428 1.72289,-1.538903 0.88258,-0.821836 2.5128,-2.160677 0,0 6.77114,-2.715821 6.77114,-2.715821 v 0 c -1.69803,1.313494 -0.82688,0.605501 -2.60351,2.136135 -2.89882,2.649448 -5.58605,5.535351 -7.93432,8.688221 0,0 -6.7879,2.95157 -6.7879,2.95157 z"
       inkscape:connector-curvature="0" />
    <path
       style="fill:#000000"
       id="path4341"
       d="m 689.43391,102.38897 c 0.72447,3.12246 1.24266,6.2841 2.28654,9.32172 0.51484,0.98165 1.12358,2.23449 2.36495,2.44978 0.78953,0.13693 1.39242,-0.24336 2.08568,-0.52848 0,0 -5.80429,4.48222 -5.80429,4.48222 v 0 c -0.42353,0.0872 -0.83835,0.24927 -1.27058,0.26149 -1.92529,0.0544 -3.02831,-1.61316 -3.75623,-3.14595 -1.0257,-3.04648 -1.52703,-6.21856 -2.41504,-9.30294 0,0 6.50897,-3.53784 6.50897,-3.53784 z"
       inkscape:connector-curvature="0" />
    <path
       style="fill:#000000"
       id="path4343"
       d="m 649.79828,142.03714 c 0.12312,4.22879 0.65637,8.43399 0.94813,12.65491 0.37493,4.72659 0.28176,9.46527 0.175,14.19943 0,0 -6.45607,3.26636 -6.45607,3.26636 v 0 c 0.16299,-4.72456 0.32055,-9.4558 -0.0659,-14.17552 -0.30059,-4.20614 -0.80282,-8.38727 -1.19768,-12.58406 0,0 6.59656,-3.36112 6.59656,-3.36112 z"
       inkscape:connector-curvature="0" />
    <path
       style="fill:#000000"
       id="path4345"
       d="m 630.93956,158.02851 c 2.98502,-3.65488 5.88783,-7.37249 9.13539,-10.80436 1.01084,-1.06821 2.06312,-2.09642 3.09468,-3.14462 3.0216,-2.86702 6.13121,-5.71201 9.72767,-7.85755 2.99268,-1.78534 6.06318,-3.43689 9.09476,-5.15533 0,0 -5.47123,4.40514 -5.47123,4.40514 v 0 c 0.95624,-0.59672 3.72626,-2.52165 2.86873,-1.79014 -0.99988,0.85293 -2.23681,1.38507 -3.29983,2.15788 -2.67999,1.94834 -4.08326,3.35428 -6.53797,5.59152 -1.02393,1.03447 -2.07002,2.04747 -3.07178,3.10342 -3.15187,3.32235 -5.98806,6.916 -8.70184,10.5997 0,0 -6.83858,2.89434 -6.83858,2.89434 z"
       inkscape:connector-curvature="0" />
    <path
       style="fill:#000000"
       id="path4347"
       d="m 655.48616,167.31072 c -1.14764,-2.56672 -1.19027,-5.3896 -0.42431,-8.07908 0.20373,-0.71535 0.50809,-1.39813 0.76213,-2.09719 2.54461,-5.26205 5.06115,-6.45107 10.93587,-9.35522 0.39063,-0.1931 0.89534,-0.094 1.30628,0.051 0.43658,0.15402 0.75296,0.53884 1.12944,0.80826 0.26827,0.49441 0.61771,0.95276 0.80479,1.48324 1.22953,3.4864 0.0444,8.02329 -0.77209,11.48439 -0.18029,0.62773 -0.36058,1.25546 -0.54087,1.88319 0,0 -6.54194,3.09358 -6.54194,3.09358 v 0 c 0.19978,-0.62218 0.39955,-1.24436 0.59933,-1.86654 0.82313,-3.25965 2.0741,-7.64477 0.92845,-10.95706 -0.14315,-0.41388 -0.43203,-0.76191 -0.64804,-1.14286 -0.2907,-0.14599 -0.54944,-0.39655 -0.87209,-0.43797 -1.33016,-0.17076 -9.93857,3.99355 3.83658,-2.77156 0.53463,-0.26256 -0.92209,0.76015 -1.32529,1.19856 -1.22885,1.33616 -1.41663,1.90003 -2.30523,3.49315 -0.26458,0.6638 -0.58017,1.30947 -0.79375,1.9914 -0.77883,2.48677 -0.84151,5.16615 0.35034,7.52271 0,0 -6.4296,3.698 -6.4296,3.698 z"
       inkscape:connector-curvature="0" />
    <path
       style="fill:#000000"
       id="path4349"
       d="m 683.37889,146.08889 c -0.41593,0.19191 -1.64058,0.81139 -1.24779,0.57573 1.52233,-0.91336 3.03042,-1.8661 4.64149,-2.61186 0.68422,-0.31671 -1.25195,0.84359 -1.84022,1.31517 -1.24845,1.00077 -2.56872,2.28466 -3.57376,3.52725 -0.53587,0.66252 -0.98733,1.38907 -1.48099,2.08361 -1.28056,2.37668 -3.63036,6.47041 -1.88389,9.19103 0.23996,0.37381 0.62689,0.6295 0.94034,0.94425 0.44971,0.20297 0.8717,0.48438 1.34912,0.60892 3.28632,0.85728 6.92078,-1.09559 9.69521,-2.59849 0,0 -5.60545,4.50014 -5.60545,4.50014 v 0 c -3.0276,1.52436 -6.70797,3.3222 -10.17636,2.10302 -0.53681,-0.18869 -0.99964,-0.54385 -1.49946,-0.81578 -0.36003,-0.39789 -0.79997,-0.73598 -1.08007,-1.19366 -1.90773,-3.11729 0.2988,-7.08791 1.70291,-9.88204 0.48188,-0.72189 0.91953,-1.47535 1.44562,-2.16567 3.6268,-4.75895 9.09188,-7.70828 14.42012,-10.16132 0,0 -5.80682,4.5797 -5.80682,4.5797 z"
       inkscape:connector-curvature="0" />
    <path
       style="fill:#000000"
       id="path4351"
       d="m 689.20888,163.83959 c 0.2811,-6.63951 0.46182,-13.28114 0.56057,-19.92585 0.0549,-4.21931 0.0406,-8.43898 0.0167,-12.65841 0,0 6.3946,-3.25295 6.3946,-3.25295 v 0 c -0.079,4.2569 -0.16499,8.5137 -0.22556,12.77093 -0.0944,6.56943 -0.2607,13.14337 -0.1641,19.71246 0,0 -6.58224,3.35382 -6.58224,3.35382 z"
       inkscape:connector-curvature="0" />
    <path
       style="fill:#000000"
       id="path4353"
       d="m 692.90264,153.51949 c 2.46241,-3.60962 4.62935,-7.4049 6.76745,-11.21161 1.54143,-2.79544 0.79692,-1.43324 2.23515,-4.0857 0,0 6.57317,-2.94445 6.57317,-2.94445 v 0 c -1.47784,2.67389 -0.71562,1.30121 -2.2876,4.11751 -2.1019,3.74611 -4.19914,7.49619 -6.49536,11.12834 0,0 -6.79281,2.99591 -6.79281,2.99591 z"
       inkscape:connector-curvature="0" />
    <path
       style="fill:#000000"
       id="path4355"
       d="m 702.30545,143.91388 c -0.0675,3.29028 -0.2184,6.58652 0.17671,9.85977 0.29467,1.32779 0.85828,3.17066 2.57661,3.06776 0.84585,-0.0506 1.53062,-0.49433 2.26415,-0.85573 -8.56667,4.74881 -5.59825,3.43909 -3.7333,1.79156 1.1132,-0.98341 2.01357,-2.15684 2.90683,-3.33308 0,0 6.71322,-2.89689 6.71322,-2.89689 v 0 c -3.58926,4.94453 -5.22186,5.54437 -11.63204,8.96583 -0.99214,0.33701 -1.52697,0.66789 -2.59195,0.48681 -1.88723,-0.3209 -2.60017,-2.21693 -2.94388,-3.84664 -0.39602,-3.27872 -0.2342,-6.5751 -0.34725,-9.87097 0,0 6.6109,-3.36842 6.6109,-3.36842 z"
       inkscape:connector-curvature="0" />
    <path
       style="fill:#000000"
       id="path4357"
       d="m 710.06761,105.11967 c -1.89183,3.68758 -3.57058,7.48021 -5.02407,11.36056 -0.17253,0.5622 -0.34506,1.1244 -0.51758,1.6866 0,0 -6.56296,3.1006 -6.56296,3.1006 v 0 c 0.17997,-0.5821 0.35994,-1.1642 0.53991,-1.7463 1.4557,-3.83926 3.08971,-7.60691 4.83139,-11.32501 0,0 6.73331,-3.07645 6.73331,-3.07645 z"
       inkscape:connector-curvature="0" />
    <path
       style="fill:#000000"
       id="path4359"
       d="m 726.61672,148.09287 c -0.85804,2.26986 -1.48226,4.622 -2.04833,6.97917 0,0 -6.58939,3.16295 -6.58939,3.16295 v 0 c 0.57289,-2.35549 1.20981,-4.69609 1.92581,-7.01207 0,0 6.71191,-3.13005 6.71191,-3.13005 z"
       inkscape:connector-curvature="0" />
    <path
       style="fill:#000000"
       id="path4361"
       d="m 730.1175,112.92592 c -0.11631,5.32138 -0.82914,10.60346 -1.48654,15.87799 -0.68659,5.09438 -1.29381,10.19919 -2.01424,15.28896 0,0 -6.44423,3.1619 -6.44423,3.1619 v 0 c 0.82929,-5.10007 1.50066,-10.22374 2.1764,-15.34605 0.62575,-5.17628 1.33071,-10.3848 1.15055,-15.61073 0,0 6.61806,-3.37207 6.61806,-3.37207 z"
       inkscape:connector-curvature="0" />
    <path
       style="fill:#000000"
       id="path4369"
       d="m 323.99089,80.00117 c 2.71562,-2.550562 5.7517,-4.731086 8.78953,-6.875993 7.95191,-5.628024 16.38657,-10.537653 25.00159,-15.072721 1.29227,-0.642806 2.58453,-1.285613 3.8768,-1.928419 0,0 -5.40236,4.321232 -5.40236,4.321232 v 0 c -1.2891,0.647352 -2.5782,1.294705 -3.8673,1.942058 -1.27251,0.679322 -2.50174,1.446814 -3.81753,2.037965 -0.81747,0.367267 3.06788,-1.852944 2.31696,-1.363796 -1.08951,0.70971 -2.23006,1.338052 -3.33347,2.025952 -2.76145,1.721569 -5.4633,3.537475 -8.12111,5.414555 -2.96287,2.083204 -5.92128,4.199689 -8.58756,6.659506 0,0 -6.85555,2.839661 -6.85555,2.839661 z"
       inkscape:connector-curvature="0" />
    <path
       style="fill:#000000"
       id="path4371"
       d="m 427.5183,48.724287 c 2.41604,-0.231052 4.82486,-0.311554 7.24224,-0.09138 3.47548,0.408395 6.8212,1.448434 10.13455,2.52938 4.16748,1.382057 8.3235,2.803236 12.45275,4.296485 4.02286,1.527693 8.02581,3.107662 11.98512,4.793744 4.09756,1.809595 8.19483,3.62313 12.18455,5.661455 4.40635,2.248791 8.45421,5.09803 12.54762,7.85461 4.27064,2.805584 8.27583,5.978763 12.05677,9.409712 4.0375,3.938857 7.84566,8.103792 11.61482,12.297458 4.25935,4.547789 8.20171,9.361799 11.79591,14.448459 4.27783,6.38442 7.62789,13.32453 10.6925,20.35371 3.17738,7.39486 5.44093,15.10992 7.20146,22.94886 1.38657,6.85173 1.93954,13.85184 1.64016,20.83663 -0.0707,1.64963 -0.22655,3.2945 -0.33982,4.94176 -0.93354,9.75142 -3.07017,19.37267 -6.27873,28.62738 -0.68213,1.96754 -1.4615,3.90001 -2.19226,5.85001 -3.92369,9.6034 -8.8744,18.73522 -12.99886,28.24863 -0.28409,0.77305 -0.56819,1.5461 -0.85228,2.31915 0,0 -6.49377,3.01509 -6.49377,3.01509 v 0 c 0.31922,-0.80329 0.63843,-1.60657 0.95765,-2.40986 4.35232,-9.50105 9.337,-18.70663 13.34659,-28.3646 0.7356,-1.93988 1.52133,-3.86148 2.20678,-5.81963 3.21075,-9.17228 5.3178,-18.72331 6.19191,-28.40266 0.10565,-1.6296 0.25402,-3.257 0.31695,-4.88881 0.26697,-6.92323 -0.29858,-13.85615 -1.64905,-20.65018 -1.73258,-7.80289 -3.95168,-15.48722 -7.10962,-22.84678 -3.05492,-6.98112 -6.42792,-13.85407 -10.71615,-20.17353 -3.6088,-5.04618 -7.54964,-9.82705 -11.79688,-14.352518 -3.76715,-4.1673 -7.56543,-8.314404 -11.613,-12.213311 -3.77078,-3.398452 -7.77442,-6.523704 -12.01901,-9.313741 -4.06895,-2.751576 -8.11466,-5.564338 -12.51915,-7.766757 -3.99324,-2.010319 -8.07952,-3.823942 -12.17903,-5.605999 -3.9513,-1.667407 -7.93329,-3.262281 -11.94801,-4.770799 -4.13194,-1.483386 -8.28601,-2.907792 -12.46363,-4.256907 -3.3033,-1.030524 -6.63969,-2.032403 -10.10258,-2.345405 -2.42406,-0.148526 -4.84663,-0.03637 -7.25654,0.272149 0,0 5.96004,-4.431809 5.96004,-4.431809 z"
       inkscape:connector-curvature="0" />
    <path
       style="fill:#000000"
       id="path4373"
       d="m 512.99688,264.03699 c -3.09156,3.08944 -6.35857,6.00386 -9.56163,8.97787 -6.12249,5.61068 -12.15295,11.3343 -18.5352,16.65342 -1.49032,1.24207 -3.01569,2.44146 -4.52354,3.66219 -9.60676,7.52514 -20.14339,13.79605 -30.93747,19.45275 0,0 5.46787,-4.39095 5.46787,-4.39095 v 0 c 1.05471,-0.5529 2.04514,-1.25134 3.16415,-1.65871 0.75559,-0.27506 -2.75119,1.66611 -2.05925,1.25648 6.26503,-3.70886 12.43062,-7.6069 18.13022,-12.15428 1.50475,-1.21228 3.02806,-2.40189 4.51425,-3.63685 6.31441,-5.24702 12.2564,-10.92153 18.26438,-16.51036 3.08529,-2.91853 6.21092,-5.79784 9.24514,-8.76861 0,0 6.83108,-2.88295 6.83108,-2.88295 z"
       inkscape:connector-curvature="0" />
  </g>
</svg>
